<?xml version="1.0" encoding="UTF-8"?>
<svg width="30px" height="30px" viewBox="0 0 30 30" version="1.1" xmlns="http://www.w3.org/2000/svg" xmlns:xlink="http://www.w3.org/1999/xlink">
    <title>Activity streak/Best label Copy 2</title>
    <g id="Symbols" stroke="none" stroke-width="1" fill="none" fill-rule="evenodd">
        <g id="Tools/Activity/Stats/Streak/Positive" transform="translate(-424.000000, -18.000000)">
            <g id="Group" transform="translate(424.000000, 18.000000)">
                <polygon id="Star" fill="#FFC300" points="15 27.78755 13.9050703 29.9599843 13.1381178 27.6512778 11.7385474 29.6411382 11.3159184 27.2453656 9.64153665 29.0102416 9.57223873 26.5784646 7.65873228 28.0807411 7.94424242 25.6647888 5.83239429 26.8724473 6.46662732 24.5238115 4.20144789 25.4111129 5.17088625 23.1798508 2.80065389 23.7278837 4.08463568 21.6615507 1.65986777 21.8586348 3.23102714 20.0012712 0.803403403 19.8432061 2.62825383 18.2343983 0.249514848 17.7245528 2.28916281 16.3985898 0.0100072744 15.5478303 2.22098122 14.5329728 0.0899853714 13.3594319 2.42516222 12.6773097 0.487744544 11.2059993 2.89735406 10.8711507 1.19480725 9.13342919 3.62749279 9.15299092 2.19610366 7.18589489 4.60001676 7.55945001 3.4702929 5.40490468 5.79419832 6.12449151 4.99021783 3.82841726 7.18458556 4.87869906 6.72348389 2.49003273 8.74154479 3.84862457 8.63314952 1.41827644 10.4318921 3.05622229 10.6785135 0.635991001 12.2196008 2.51838089 12.8159825 0.159849479 14.0665688 2.24656354 15 0 15.9334312 2.24656354 17.1840175 0.159849479 17.7803992 2.51838089 19.3214865 0.635991001 19.5681079 3.05622229 21.3668505 1.41827644 21.2584552 3.84862457 23.2765161 2.49003273 22.8154144 4.87869906 25.0097822 3.82841726 24.2058017 6.12449151 26.5297071 5.40490468 25.3999832 7.55945001 27.8038963 7.18589489 26.3725072 9.15299092 28.8051928 9.13342919 27.1026459 10.8711507 29.5122555 11.2059993 27.5748378 12.6773097 29.9100146 13.3594319 27.7790188 14.5329728 29.9899927 15.5478303 27.7108372 16.3985898 29.7504852 17.7245528 27.3717462 18.2343983 29.1965966 19.8432061 26.7689729 20.0012712 28.3401322 21.8586348 25.9153643 21.6615507 27.1993461 23.7278837 24.8291137 23.1798508 25.7985521 25.4111129 23.5333727 24.5238115 24.1676057 26.8724473 22.0557576 25.6647888 22.3412677 28.0807411 20.4277613 26.5784646 20.3584633 29.0102416 18.6840816 27.2453656 18.2614526 29.6411382 16.8618822 27.6512778 16.0949297 29.9599843"></polygon>
                <text id="PB" font-family="SFProText-Semibold, SF Pro Text" font-size="12" font-weight="500" fill="#FFFFFF">
                    <tspan x="6.9609375" y="20">PB</tspan>
                </text>
            </g>
        </g>
    </g>
</svg>