<?xml version="1.0" encoding="UTF-8"?>
<svg width="477px" height="200px" viewBox="0 0 477 200" version="1.1" xmlns="http://www.w3.org/2000/svg" xmlns:xlink="http://www.w3.org/1999/xlink">
    <title>Group 10</title>
    <g id="Symbols" stroke="none" stroke-width="1" fill="none" fill-rule="evenodd">
        <g id="Group-10">
            <rect id="Rectangle" x="0" y="0" width="468" height="180"></rect>
            <rect id="Rectangle" fill="#9E9E9E" x="21" y="179" width="447" height="1"></rect>
            <line x1="21" y1="139.5" x2="468" y2="139.5" id="Line-5-Copy-2" stroke="#BDC3C7" stroke-dasharray="3"></line>
            <line x1="21" y1="17.5" x2="468" y2="17.5" id="Line-5-Copy-3" stroke="#BDC3C7" stroke-dasharray="3"></line>
            <line x1="21" y1="98.5" x2="468" y2="98.5" id="Line-5-Copy-4" stroke="#BDC3C7" stroke-dasharray="3"></line>
            <line x1="21" y1="58.5" x2="468" y2="58.5" id="Line-5-Copy-5" stroke="#BDC3C7" stroke-dasharray="3"></line>
            <text id="0’" font-family="SFProText-Regular, SF Pro Text" font-size="12" font-weight="normal" letter-spacing="-0.289411662" fill="#BDC3C7">
                <tspan x="0" y="183">0’</tspan>
            </text>
            <text id="12-AM" font-family="SFProText-Regular, SF Pro Text" font-size="12" font-weight="normal" letter-spacing="-0.289411662" fill="#9E9E9E">
                <tspan x="11.3211854" y="197">12 AM</tspan>
            </text>
            <text id="12-PM" font-family="SFProText-Regular, SF Pro Text" font-size="12" font-weight="normal" letter-spacing="-0.289411662" fill="#9E9E9E">
                <tspan x="237.552631" y="197">12 PM</tspan>
            </text>
            <text id="11-PM" font-family="SFProText-Regular, SF Pro Text" font-size="12" font-weight="normal" letter-spacing="-0.289411662" fill="#9E9E9E">
                <tspan x="445.378803" y="197">11 PM</tspan>
            </text>
            <text id="5’" font-family="SFProText-Regular, SF Pro Text" font-size="12" font-weight="normal" letter-spacing="-0.289411662" fill="#BDC3C7">
                <tspan x="0" y="143">5’</tspan>
            </text>
            <text id="10’" font-family="SFProText-Regular, SF Pro Text" font-size="12" font-weight="normal" letter-spacing="-0.289411662" fill="#BDC3C7">
                <tspan x="0" y="103">10’</tspan>
            </text>
            <text id="15’" font-family="SFProText-Regular, SF Pro Text" font-size="12" font-weight="normal" letter-spacing="-0.289411662" fill="#BDC3C7">
                <tspan x="0" y="63">15’</tspan>
            </text>
            <text id="20’" font-family="SFProText-Regular, SF Pro Text" font-size="12" font-weight="normal" letter-spacing="-0.289411662" fill="#BDC3C7">
                <tspan x="0" y="23">20’</tspan>
            </text>
            <rect id="Rectangle" x="21" y="17" width="14" height="162"></rect>
            <rect id="Rectangle-Copy" x="40" y="17" width="14" height="162"></rect>
            <rect id="Rectangle-Copy-2" x="59" y="17" width="14" height="162"></rect>
            <rect id="Rectangle-Copy-3" x="77" y="17" width="14" height="162"></rect>
            <rect id="Rectangle-Copy-4" x="96" y="17" width="14" height="162"></rect>
            <rect id="Rectangle-Copy-5" x="115" y="17" width="14" height="162"></rect>
            <rect id="Rectangle-Copy-7" x="134" y="17" width="14" height="162"></rect>
            <rect id="Rectangle-Copy-8" x="153" y="17" width="14" height="162"></rect>
            <rect id="Rectangle-Copy-9" fill="#BDC3C7" x="172" y="126" width="14" height="53"></rect>
            <rect id="Rectangle-Copy-10" fill="#BDC3C7" x="190" y="118" width="14" height="61"></rect>
            <rect id="Rectangle-Copy-11" fill="#BDC3C7" x="209" y="118" width="14" height="61"></rect>
            <rect id="Rectangle-Copy-12" fill="#BDC3C7" x="228" y="126" width="14" height="53"></rect>
            <rect id="Rectangle-Copy-13" fill="#7BEFB2" x="247" y="43" width="14" height="136"></rect>
            <rect id="Rectangle-Copy-14" fill="#BDC3C7" x="266" y="84" width="14" height="95"></rect>
            <rect id="Rectangle-Copy-15" fill="#BDC3C7" x="285" y="165" width="14" height="14"></rect>
            <rect id="Rectangle-Copy-16" fill="#BDC3C7" x="303" y="169" width="14" height="10"></rect>
            <rect id="Rectangle-Copy-17" fill="#BDC3C7" x="322" y="165" width="14" height="14"></rect>
            <rect id="Rectangle-Copy-18" fill="#BDC3C7" x="341" y="126" width="14" height="53"></rect>
            <rect id="Rectangle-Copy-19" fill="#BDC3C7" x="360" y="92" width="14" height="87"></rect>
            <rect id="Rectangle-Copy-20" fill="#BDC3C7" x="379" y="152" width="14" height="27"></rect>
            <rect id="Rectangle-Copy-21" x="398" y="17" width="14" height="162"></rect>
            <rect id="Rectangle-Copy-22" x="416" y="17" width="14" height="162"></rect>
            <rect id="Rectangle-Copy-23" x="435" y="17" width="14" height="162"></rect>
            <rect id="Rectangle-Copy-24" x="454" y="17" width="14" height="162"></rect>
        </g>
    </g>
</svg>