<?xml version="1.0" encoding="UTF-8"?>
<svg width="28px" height="28px" viewBox="0 0 28 28" version="1.1" xmlns="http://www.w3.org/2000/svg" xmlns:xlink="http://www.w3.org/1999/xlink">
    <title>Tools/Glyphs/Clients Inactive</title>
    <g id="Tools/Glyphs/Clients-Inactive" stroke="none" stroke-width="1" fill="none" fill-rule="evenodd">
        <path d="M13.8065366,25.2662192 C14.1657492,25.5067338 14.5655513,25.6254318 15.0059909,25.6254318 L25.8806441,25.6254318 C27.0394769,25.6254318 28,24.666508 28,23.5060759 C28,22.347243 27.0410762,21.38672 25.8806441,21.38672 L19.3648081,21.3882821 C19.2851564,21.5475856 19.2055046,21.7084484 19.0852473,21.867744 C18.5261416,22.6673802 17.6062401,23.1468421 16.6066948,23.1468421 C16.0069676,23.1468421 15.4072404,22.946933 14.9277785,22.6267587 L11.1701279,19.9482971 L9.81138594,18.9487518 L9.69112865,18.8691 C9.53182511,18.7488427 9.49121958,18.5098874 9.57087135,18.3490166 C9.69112865,18.1897131 9.93008395,18.1491076 10.0909548,18.2287593 L11.9697801,19.4688352 L15.4088557,21.8271224 C15.5681592,21.9473797 15.7680683,22.0270315 15.9289391,22.1066833 C16.1288481,22.186335 16.3693787,22.2269406 16.60831,22.2269406 C17.287681,22.2269406 17.9280297,21.9067742 18.3278478,21.307039 C18.9681965,20.3481152 18.727666,19.0283956 17.7687422,18.3880469 L8.36981771,12.0329378 C8.01060511,11.7924232 7.61080298,11.6737252 7.17036333,11.6737252 L0.0939823572,11.6721635 L0.0939823572,18.7097621 L4.37163647,18.7097621 L13.8065366,25.2662192 Z" id="Path" fill="#9E9E9E" fill-rule="nonzero" transform="translate(14.046991, 18.648798) scale(-1, 1) translate(-14.046991, -18.648798) "></path>
        <path d="M4.76369478,8.63062818 C6.59483757,8.63062818 8.08002133,7.14751997 8.08002133,5.31430163 C8.08002133,3.48414599 6.59493882,2 4.76369478,2 C2.93245074,2 1.44838069,3.48409537 1.44838069,5.31430163 C1.44838069,7.14741872 2.93247606,8.63062818 4.76369478,8.63062818 Z" id="Path" fill="#9E9E9E" fill-rule="nonzero"></path>
        <path d="M7.58948242,10.087058 L1.93790714,10.087058 C0.868086822,10.087058 -4.79616347e-14,10.9561572 -4.79616347e-14,12.0259776 L-4.79616347e-14,17.1930887 L9.52754143,17.1930887 L9.52754143,12.0259776 C9.52754143,10.9561572 8.6594293,10.087058 7.58963429,10.087058 L7.58948242,10.087058 Z" id="Path" fill="#9E9E9E" fill-rule="nonzero"></path>
    </g>
</svg>