<?xml version="1.0" encoding="UTF-8"?>
<svg width="12px" height="19px" viewBox="0 0 12 19" version="1.1" xmlns="http://www.w3.org/2000/svg" xmlns:xlink="http://www.w3.org/1999/xlink">
    <title>Path</title>
    <g id="Symbols" stroke="none" stroke-width="1" fill="none" fill-rule="evenodd">
        <g id="Tools/Header-bar/Org-code" transform="translate(-767.000000, -27.000000)" fill="#9E9E9E" fill-rule="nonzero">
            <g id="Tools/Glyphs/Org-code-inactive" transform="translate(767.000000, 27.000000)">
                <path d="M11.5648268,2.13421993 C11.5648268,1.55355778 11.3392618,1.00795469 10.9295492,0.595996734 C10.1373559,-0.198301291 8.66407967,-0.199395134 7.8752061,0.59709254 L0.633101796,7.87956013 C0.231007533,8.28383315 0,8.8425904 0,9.41559565 C0,9.98750705 0.231013113,10.5473581 0.633101796,10.9516312 L7.87743779,18.2352206 C8.28497179,18.643869 8.82763446,18.8695652 9.40410719,18.8695652 C9.97837612,18.8695652 10.5199508,18.6438718 10.9307766,18.233033 C11.3393985,17.8232907 11.5649663,17.2765657 11.5649663,16.6969974 C11.5649663,16.1174291 11.3394013,15.5707322 10.9307766,15.1609619 L5.21765705,9.41576393 L10.9299397,3.67168781 C11.3396775,3.26194559 11.5652174,2.7163425 11.5652174,2.13455846 L11.5648268,2.13421993 Z" id="Path"></path>
            </g>
        </g>
    </g>
</svg>