<?xml version="1.0" encoding="UTF-8"?>
<svg width="12px" height="19px" viewBox="0 0 12 19" version="1.1" xmlns="http://www.w3.org/2000/svg" xmlns:xlink="http://www.w3.org/1999/xlink">
    <title>Path</title>
    <g id="Symbols" stroke="none" stroke-width="1" fill="none" fill-rule="evenodd">
        <g id="Tools/Header-bar/Org-code" transform="translate(-1103.000000, -27.000000)" fill="#9E9E9E" fill-rule="nonzero">
            <g id="Tools/Glyphs/Org-code-inactive" transform="translate(767.000000, 27.000000)">
                <path d="M340.123807,0.597073881 C339.33152,-0.198282016 337.86351,-0.200497648 337.066871,0.599265113 C336.659289,1.00898881 336.434783,1.55568906 336.434783,2.13413736 C336.434783,2.71586704 336.660374,3.26144546 337.066871,3.67010341 L342.782898,9.41616343 L337.066871,15.1622234 C336.659289,15.5719471 336.434783,16.1186474 336.434783,16.6970957 C336.434783,17.275544 336.659286,17.8222162 337.069047,18.2352493 C337.477718,18.6438792 338.02156,18.8695652 338.595897,18.8695652 C339.170234,18.8695652 339.712961,18.643882 340.122747,18.2341555 L347.366823,10.9520173 C347.768965,10.5477626 348,9.98793679 348,9.41605124 C348,8.84307191 347.770048,8.28433993 347.367911,7.8800852 L340.123807,0.597073881 Z" id="Path"></path>
            </g>
        </g>
    </g>
</svg>