<?xml version="1.0" encoding="UTF-8"?>
<svg width="783px" height="487px" viewBox="0 0 783 487" version="1.1" xmlns="http://www.w3.org/2000/svg" xmlns:xlink="http://www.w3.org/1999/xlink">
    <!-- Generator: Sketch 64 (93537) - https://sketch.com -->
    <title>undraw_creative_team_r90h</title>
    <desc>Created with Sketch.</desc>
    <g id="CMR-screens" stroke="none" stroke-width="1" fill="none" fill-rule="evenodd">
        <g id="Create-account-&amp;-Log-in-/-Home" transform="translate(-525.000000, -335.000000)" fill-rule="nonzero">
            <g id="undraw_creative_team_r90h" transform="translate(525.000000, 334.687980)">
                <circle id="Oval" fill="#FFCDD2" cx="595" cy="257.31202" r="177"></circle>
                <circle id="Oval" fill="#FF6584" cx="96.5" cy="67.8120205" r="67.5"></circle>
                <circle id="Oval" fill="#FFAB91" cx="217" cy="186.31202" r="177"></circle>
                <ellipse id="Oval" fill="#3F3D56" cx="208.5" cy="362.81202" rx="194.5" ry="10.5"></ellipse>
                <ellipse id="Oval" fill="#000000" opacity="0.1" cx="169.5" cy="363.31202" rx="145.5" ry="7"></ellipse>
                <ellipse id="Oval" fill="#3F3D56" cx="588.5" cy="435.81202" rx="194.5" ry="11.5"></ellipse>
                <ellipse id="Oval" fill="#000000" opacity="0.1" cx="549.5" cy="436.31202" rx="145.5" ry="8"></ellipse>
                <ellipse id="Oval" fill="#3F3D56" cx="279" cy="408.81202" rx="124" ry="6.5"></ellipse>
                <ellipse id="Oval" fill="#3F3D56" cx="60" cy="388.31202" rx="60" ry="3"></ellipse>
                <ellipse id="Oval" fill="#3F3D56" cx="665.5" cy="481.81202" rx="111.5" ry="5.5"></ellipse>
                <rect id="Rectangle" fill="#3F3D56" x="430" y="302.31202" width="223" height="132"></rect>
                <circle id="Oval" fill="#FF5252" cx="502" cy="369.31202" r="50"></circle>
                <rect id="Rectangle" fill="#FF5252" x="567" y="323.31202" width="17" height="17"></rect>
                <rect id="Rectangle" fill="#FF5252" opacity="0.5" x="588" y="323.31202" width="17" height="17"></rect>
                <rect id="Rectangle" fill="#FF5252" opacity="0.2" x="609" y="323.31202" width="17" height="17"></rect>
                <rect id="Rectangle" fill="#2F2E41" x="567" y="344.31202" width="17" height="17"></rect>
                <rect id="Rectangle" fill="#2F2E41" opacity="0.5" x="588" y="344.31202" width="17" height="17"></rect>
                <rect id="Rectangle" fill="#2F2E41" opacity="0.2" x="609" y="344.31202" width="17" height="17"></rect>
                <rect id="Rectangle" fill="#FF6584" x="567" y="364.31202" width="17" height="17"></rect>
                <rect id="Rectangle" fill="#FF6584" opacity="0.5" x="588" y="364.31202" width="17" height="17"></rect>
                <rect id="Rectangle" fill="#FF6584" opacity="0.2" x="609" y="364.31202" width="17" height="17"></rect>
                <path d="M502,319.31202 L502,419.31202 C529.942643,419.31202 554,396.926236 554,369.31202 C554,341.697805 529.942622,319.31202 502,319.31202 Z" id="Path" fill="#3F3D56" opacity="0.5"></path>
                <path d="M701.02505,311.31202 C701.02505,311.31202 730.159898,324.510494 719.754595,339.792936 C709.349292,355.075379 678.133383,384.250952 677.439697,390.50286 C676.74601,396.754769 672.583889,402.31202 672.583889,402.31202 C672.583889,402.31202 658.710151,387.724234 660.097525,386.334921 C661.484899,384.945608 675.358636,371.747135 676.052323,368.273853 C676.74601,364.80057 697.556615,337.708967 697.556615,337.708967 L678.82707,321.037211 L701.02505,311.31202 Z" id="Path" fill="#FFB9B9"></path>
                <path d="M701.02505,311.31202 C701.02505,311.31202 730.159898,324.510494 719.754595,339.792936 C709.349292,355.075379 678.133383,384.250952 677.439697,390.50286 C676.74601,396.754769 672.583889,402.31202 672.583889,402.31202 C672.583889,402.31202 658.710151,387.724234 660.097525,386.334921 C661.484899,384.945608 675.358636,371.747135 676.052323,368.273853 C676.74601,364.80057 697.556615,337.708967 697.556615,337.708967 L678.82707,321.037211 L701.02505,311.31202 Z" id="Path" fill="#000000" opacity="0.1"></path>
                <path d="M664,340.771286 C664,340.771286 684.076923,349.138698 682.692308,362.3871 C681.307692,375.635503 706.923077,413.288858 706.923077,413.288858 C706.923077,413.288858 709.692308,422.353554 709,425.142691 C708.307692,427.931829 727,427.234544 727,427.234544 L727,420.958985 C727,420.958985 712.461538,395.856749 711.076923,388.883905 C709.692308,381.911062 701.384615,354.716973 701.384615,354.716973 C701.384615,354.716973 698.615385,330.31202 684.769231,330.31202 C676.597647,330.31202 668.90295,334.187025 664,340.771286 L664,340.771286 Z" id="Path" fill="#FFB9B9"></path>
                <path d="M664.744621,277.31202 C664.744621,277.31202 706.353028,311.540187 704.966081,314.334324 C703.579134,317.12846 683.468404,327.60647 680.001037,328.305004 C676.533669,329.003538 652,277.31202 652,277.31202 L664.744621,277.31202 Z" id="Path" fill="#2F2E41"></path>
                <path d="M664.744621,277.31202 C664.744621,277.31202 706.353028,311.540187 704.966081,314.334324 C703.579134,317.12846 683.468404,327.60647 680.001037,328.305004 C676.533669,329.003538 652,277.31202 652,277.31202 L664.744621,277.31202 Z" id="Path" fill="#000000" opacity="0.1"></path>
                <path d="M619.773403,285.070402 C619.773403,285.070402 615.562655,303.92392 626.791316,311.604983 C638.019978,319.286046 656.968344,349.31202 659.073718,349.31202 C661.179092,349.31202 691.35612,333.251616 689.952538,330.458502 C688.548955,327.665388 673.109545,303.225642 673.109545,303.225642 L668.197006,277.389338 C668.197006,277.389338 625.387734,275.992782 619.773403,285.070402 Z" id="Path" fill="#2F2E41"></path>
                <path d="M665,223.31202 L671.169859,263.78819 L682.138498,292.400655 C682.138498,292.400655 698.591456,309.847279 688.993897,311.243009 C679.396338,312.638739 673.912019,292.400655 673.912019,292.400655 L665,275.651895 L665,223.31202 Z" id="Path" fill="#FFB9B9"></path>
                <path d="M665,223.31202 L671.169859,263.78819 L682.138498,292.400655 C682.138498,292.400655 698.591456,309.847279 688.993897,311.243009 C679.396338,312.638739 673.912019,292.400655 673.912019,292.400655 L665,275.651895 L665,223.31202 Z" id="Path" fill="#000000" opacity="0.1"></path>
                <path d="M641.497452,178.31202 C641.497452,178.31202 641.497452,192.850482 636.642038,194.235097 C631.786624,195.619713 656.063694,214.31202 656.063694,214.31202 C656.063694,214.31202 653.289172,190.081251 663,183.850482 L641.497452,178.31202 Z" id="Path" fill="#FFB9B9"></path>
                <path d="M641.497452,178.31202 C641.497452,178.31202 641.497452,192.850482 636.642038,194.235097 C631.786624,195.619713 656.063694,214.31202 656.063694,214.31202 C656.063694,214.31202 653.289172,190.081251 663,183.850482 L641.497452,178.31202 Z" id="Path" fill="#000000" opacity="0.1"></path>
                <circle id="Oval" fill="#FFB9B9" cx="653" cy="174.31202" r="16"></circle>
                <path d="M653.553488,207.75775 C653.553488,207.75775 639.000054,189.634579 636.920992,190.331624 C634.84193,191.028669 619.595476,206.36366 618.209434,211.242975 C616.823393,216.122291 614.05131,250.974543 616.130372,257.944993 C618.209434,264.915444 618.209434,283.038615 617.516414,284.432705 C616.823393,285.826795 612.665269,289.31202 616.823393,289.31202 C620.981517,289.31202 635.534951,278.856345 645.23724,280.94748 C654.939529,283.038615 668.106922,280.250435 668.799942,278.856345 C669.492963,277.462255 668.106922,241.215912 668.799942,238.427732 C669.492963,235.639552 667.413901,221.698651 666.72088,218.910471 C666.02786,216.122291 666.02786,204.96957 659.097653,202.18139 L656.142613,201.887683 L655.977106,208.782553 L653.553488,207.75775 Z" id="Path" fill="#FF5252"></path>
                <path d="M623,243.31202 C623,243.31202 624.389242,265.05657 634.808555,274.175252 C645.227868,283.293934 667.455737,298.72555 668.844978,301.531299 C670.23422,304.337047 683.432017,319.067226 686.2105,312.754292 C687.016847,310.786244 687.211132,308.61703 686.767545,306.534825 C685.952132,302.35163 683.463124,298.693753 679.888409,296.425159 L673.707325,292.412617 L643.144006,260.146511 L641.754764,243.31202 L623,243.31202 Z" id="Path" fill="#FFB9B9"></path>
                <path d="M662.521043,384.613375 C662.521043,384.613375 654.549202,382.877573 651.776388,387.737819 C649.003574,392.598066 654.549202,405.790165 654.549202,405.790165 C654.549202,405.790165 670.492883,439.117572 673.265697,434.951646 C676.038511,430.78572 671.186087,415.510659 671.186087,415.510659 C671.186087,415.510659 678.118122,400.235597 675.345308,399.541276 C672.572494,398.846955 662.521043,392.945227 662.521043,384.613375 Z" id="Path" fill="#2F2E41"></path>
                <path d="M712.218893,424.854855 C712.218893,424.854855 708.032204,422.776292 707.334423,424.854855 C706.636642,426.933418 702.449953,437.326233 707.334423,438.711942 C712.218893,440.097651 760.365815,441.483359 758.970252,438.711942 C757.574689,435.940525 749.899093,432.476253 745.014622,431.090544 C740.130152,429.704836 727.570086,419.31202 727.570086,419.31202 C727.570086,419.31202 720.592271,428.319127 712.218893,424.854855 Z" id="Path" fill="#2F2E41"></path>
                <path d="M668.587231,161.130386 C668.288635,160.123762 667.630801,159.262681 666.739329,158.711552 C666.785352,157.633235 666.653535,156.554696 666.349193,155.519442 C665.332681,152.505782 662.924581,152.678523 660.652475,151.346126 C659.666697,150.768046 659.727583,150.257128 659.214409,149.307644 C658.541972,148.062965 657.534798,147.032444 656.307385,146.333232 C654.849687,145.401867 653.310947,144.442692 651.586505,144.324815 C647.96253,144.077108 645.184035,147.495316 641.720355,148.592347 C640.193637,149.075843 638.553136,149.095807 637.018359,149.55293 C635.483583,150.010053 633.952361,151.101554 633.723648,152.690627 C633.618055,153.424252 633.804345,154.176855 633.697244,154.910278 C633.484323,156.367975 632.209021,157.388901 631.355301,158.587868 C629.46741,161.239232 629.683341,164.984872 631.193084,167.86966 C631.511229,168.466575 631.875207,169.037761 632.281722,169.578047 C632.40766,170.941574 632.798121,172.267275 633.431149,173.480605 C634.940892,176.365386 637.538796,178.521065 640.252634,180.31202 C640.030375,179.355296 639.895641,178.380227 639.85011,177.398944 C639.811805,177.07192 639.854223,176.740468 639.973632,176.433741 C640.275856,175.800187 641.074459,175.631692 641.683354,175.284705 C642.944517,174.566009 643.439083,172.9755 643.475551,171.521293 C643.512019,170.067086 643.204711,168.610478 643.356643,167.163839 C643.368615,166.491082 643.663885,165.854816 644.169426,165.412403 C644.634875,165.146128 645.166593,165.019 645.701775,165.046034 C648.285775,164.940317 650.985654,164.892731 653.264899,163.667307 C653.999967,163.177709 654.790119,162.776876 655.61894,162.473133 C657.55593,161.966592 659.535649,163.328061 660.65197,164.994355 C661.768291,166.660649 662.324878,168.64356 663.354851,170.36489 C664.384824,172.086221 666.164176,173.621256 668.15557,173.417313 C668.382415,173.417827 668.598727,173.321368 668.750292,173.152112 C668.836194,172.997362 668.874326,172.820512 668.859849,172.643996 L668.971114,165.010317 C669.063554,163.704533 668.933741,162.392495 668.587231,161.130386 L668.587231,161.130386 Z" id="Path" fill="#2F2E41"></path>
                <path d="M629.204369,208.31202 C629.204369,208.31202 644.271514,215.201354 643.586644,229.668956 C642.901774,244.136557 647.695866,245.514423 636.053071,246.89229 C624.410277,248.270157 621.670796,246.89229 620.985926,248.270157 C620.301056,249.648024 616.191834,216.579221 618.931315,213.134554 C621.670796,209.689887 629.204369,208.31202 629.204369,208.31202 Z" id="Path" fill="#FF5252"></path>
                <circle id="Oval" fill="#2F2E41" cx="319.5" cy="67.8120205" r="22.5"></circle>
                <path d="M334.988806,312.31202 L322.271072,346.401555 C322.271072,346.401555 311.67296,354.750012 318.031827,357.532831 C324.390695,360.31565 337.108429,354.750012 337.108429,354.750012 L347,329.70464 L345.586918,312.31202 L334.988806,312.31202 Z" id="Path" fill="#2F2E41"></path>
                <path d="M334.988806,312.31202 L322.271072,346.401555 C322.271072,346.401555 311.67296,354.750012 318.031827,357.532831 C324.390695,360.31565 337.108429,354.750012 337.108429,354.750012 L347,329.70464 L345.586918,312.31202 L334.988806,312.31202 Z" id="Path" fill="#000000" opacity="0.1"></path>
                <path d="M335.605987,110.31202 L345.779992,111.703117 C345.779992,111.703117 350.527861,149.95827 348.49306,152.740463 C346.458259,155.522656 336.284254,166.651428 332.214652,163.869235 C328.14505,161.087042 335.605987,110.31202 335.605987,110.31202 Z" id="Path" fill="#575A89"></path>
                <path d="M235.808955,180.31202 C235.808955,180.31202 221.140299,186.534852 218.346269,187.226278 C215.552239,187.917704 211.361194,194.831962 216.250746,196.214813 C221.140299,197.597665 240,183.769149 240,183.769149 L235.808955,180.31202 Z" id="Path" fill="#A0616A"></path>
                <path d="M340,326.068147 L347.72973,354.958963 C347.72973,354.958963 348.432432,365.528774 351.945946,366.233428 C355.459459,366.938083 366,362.710158 366,361.30085 C366,359.891542 361.783784,348.617077 361.783784,348.617077 C361.783784,348.617077 361.783784,340.161228 357.567568,336.637958 C353.351351,333.114687 349.552885,321.31202 349.552885,321.31202 L340,326.068147 Z" id="Path" fill="#2F2E41"></path>
                <path d="M349.1,261.146306 C350.514,264.429849 350.339,288.25122 348.792042,304.104249 C348.042993,311.807678 346.971979,317.62882 345.6,318.31202 L335.568951,315.816249 L331.6,314.826306 L331.495,306.153849 L330.9,258.357735 L319,208.860592 L319,196.31202 L349.1,199.100592 L353.874049,206.566992 L354,206.769163 C354,206.769163 347,256.266306 349.1,261.146306 Z" id="Path" fill="#2F2E41"></path>
                <path d="M342.885956,276.483449 C344.389366,278.721278 346.897392,292.120363 348.899639,304.104249 C348.147885,311.807678 347.073003,317.62882 345.696068,318.31202 L335.628791,315.816249 C335.474235,315.495563 335.319721,315.160935 335.158147,314.826306 C333.872471,312.149278 332.664172,309.193392 331.540127,306.153849 L330.942978,258.357735 L319,208.860592 L319,196.31202 L349.208709,199.100592 L354,206.566992 L326.025281,204.677735 L332.348034,231.866306 L340.075844,260.449163 C340.075844,260.449163 340.075844,272.300592 342.885956,276.483449 Z" id="Path" fill="#000000" opacity="0.1"></path>
                <path d="M293.322537,168.38549 C293.322537,168.38549 283.558347,190.022225 297.507189,220.034469 C306.138642,238.711372 313.820324,257.81334 320.522779,277.267123 C320.522779,277.267123 325.404874,300.299776 332.379295,314.956918 C339.353716,329.614061 337.958832,330.31202 337.958832,330.31202 L349.117905,324.030388 C349.117905,324.030388 342.840926,280.756918 340.051158,276.569163 C337.261389,272.381408 337.261389,260.516102 337.261389,260.516102 L329.589526,231.899776 L323.312547,204.679367 L354,206.773245 C354,206.773245 354,166.989571 340.051158,159.31202 L293.322537,168.38549 Z" id="Path" fill="#2F2E41"></path>
                <path d="M305.08482,78.3120205 C305.08482,78.3120205 305.08482,89.546063 301.624378,90.2481907 C298.163936,90.9503183 291.243053,90.9503183 289.166788,94.4609566 C287.090523,97.9715949 305.08482,144.31202 305.08482,144.31202 L323.771205,132.37585 L330,100.780106 C330,100.780106 321.002851,95.1630843 321.002851,92.3545737 L321.002851,79.7162758 L305.08482,78.3120205 Z" id="Path" fill="#A0616A"></path>
                <path d="M305.08482,78.3120205 C305.08482,78.3120205 305.08482,89.546063 301.624378,90.2481907 C298.163936,90.9503183 291.243053,90.9503183 289.166788,94.4609566 C287.090523,97.9715949 305.08482,144.31202 305.08482,144.31202 L323.771205,132.37585 L330,100.780106 C330,100.780106 321.002851,95.1630843 321.002851,92.3545737 L321.002851,79.7162758 L305.08482,78.3120205 Z" id="Path" fill="#000000" opacity="0.1"></path>
                <circle id="Oval" fill="#A0616A" cx="315.5" cy="73.8120205" r="16.5"></circle>
                <path d="M307.111111,130.113745 C307.111111,130.113745 300.861111,90.3120205 299.472222,90.3120205 C298.083333,90.3120205 278.638889,94.5016756 277.25,95.1999515 C275.861111,95.8982274 271,102.18271 271,102.18271 L280.722222,130.113745 C280.722222,130.113745 284.888889,149.665469 287.666667,153.156848 C290.444444,156.648227 296,166.424089 293.222222,167.820641 C290.444444,169.217193 287.666667,171.31202 290.444444,171.31202 C293.222222,171.31202 316.138889,167.122365 317.527778,169.217193 C318.916667,171.31202 341.833333,161.536158 341.833333,160.837883 C341.833333,160.139607 339.055556,127.320641 339.055556,127.320641 L346,111.260296 L325.166667,96.5965032 L307.111111,130.113745 Z" id="Path" fill="#575A89"></path>
                <path d="M278.169014,98.3120205 L271.267606,101.804084 C271.267606,101.804084 251.943662,146.502497 250.56338,147.200909 C249.183099,147.899322 242.28169,161.169163 241.591549,163.962814 C240.901408,166.756465 239.521127,175.83583 237.450704,177.232655 C236.340136,177.995891 235.188087,178.695405 234,179.327893 C234,179.327893 238.140845,186.31202 240.211268,186.31202 C242.28169,186.31202 249.183099,176.534243 249.183099,176.534243 C249.183099,176.534243 264.366197,186.31202 268.507042,178.629481 C272.647887,170.946941 283,122.058052 283,122.058052 L278.169014,98.3120205 Z" id="Path" fill="#575A89"></path>
                <path d="M333,119.889068 C333,119.889068 323.237723,95.6988832 317.659279,98.5447873 C312.080835,101.390691 321.843112,118.466116 328.118862,121.31202 L333,119.889068 Z" id="Path" fill="#A0616A"></path>
                <path d="M322.877831,120.510005 L332.65193,118.31202 L334.720571,128.825885 C334.720571,128.825885 343.776784,144.764655 341.686888,151.694555 C339.596993,158.624455 327.057621,169.712295 322.877831,163.475385 C318.69804,157.238475 315.214881,147.536615 318.001408,141.992695 C320.787935,136.448775 324.967726,123.281965 322.877831,120.510005 Z" id="Path" fill="#000000" opacity="0.1"></path>
                <path d="M324.877831,119.510005 L334.65193,117.31202 L336.720571,127.825885 C336.720571,127.825885 345.776784,143.764655 343.686888,150.694555 C341.596993,157.624455 329.057621,168.712295 324.877831,162.475385 C320.69804,156.238475 317.214881,146.536615 320.001408,140.992695 C322.787935,135.448775 326.967726,122.281965 324.877831,119.510005 Z" id="Path" fill="#575A89"></path>
                <ellipse id="Oval" fill="#2F2E41" transform="translate(320.880614, 63.157690) rotate(-64.898700) translate(-320.880614, -63.157690) " cx="320.880614" cy="63.1576904" rx="8.02540107" ry="16.7486631"></ellipse>
                <circle id="Oval" fill="#2F2E41" cx="333" cy="49.3120205" r="10"></circle>
                <path d="M324.14047,45.3120205 C324.141161,40.2045384 327.96108,35.9184573 333,35.3713216 C329.219069,34.9551665 325.534778,36.7536395 323.514905,40.0014362 C321.495032,43.249233 321.495032,47.3748079 323.514905,50.6226047 C325.534778,53.8704014 329.219069,55.6688745 333,55.2527193 C327.96108,54.7055836 324.141161,50.4195025 324.14047,45.3120205 L324.14047,45.3120205 Z" id="Path" fill="#2F2E41"></path>
                <rect id="Rectangle" fill="#3F3D56" x="45" y="193.31202" width="244" height="169"></rect>
                <rect id="Rectangle" fill="#F2F2F2" x="65" y="210.31202" width="32" height="32"></rect>
                <rect id="Rectangle" fill="#FF5252" x="65" y="262.31202" width="32" height="32"></rect>
                <rect id="Rectangle" fill="#F2F2F2" x="65" y="314.31202" width="32" height="32"></rect>
                <rect id="Rectangle" fill="#F2F2F2" x="112" y="220.31202" width="153" height="3"></rect>
                <rect id="Rectangle" fill="#F2F2F2" x="112" y="229.31202" width="47" height="3"></rect>
                <rect id="Rectangle" fill="#F2F2F2" x="112" y="272.31202" width="153" height="3"></rect>
                <rect id="Rectangle" fill="#F2F2F2" x="112" y="281.31202" width="47" height="3"></rect>
                <rect id="Rectangle" fill="#F2F2F2" x="112" y="324.31202" width="153" height="3"></rect>
                <rect id="Rectangle" fill="#F2F2F2" x="112" y="333.31202" width="47" height="3"></rect>
                <path d="M691,466.310946 C691,480.394798 682.494157,485.31202 672,485.31202 C671.75692,485.31202 671.513855,485.308561 671.272525,485.3034 C670.786373,485.293077 670.303721,485.270709 669.828071,485.238012 C660.356924,484.578824 653,479.4086 653,466.310946 C653,452.758918 670.59577,435.656231 671.921303,434.387773 L671.923053,434.38605 C671.973772,434.336146 672,434.31202 672,434.31202 C672,434.31202 691,452.228811 691,466.310946 Z" id="Path" fill="#FF5252"></path>
                <path d="M671.670647,483.165436 L678.650996,473.608203 L671.653072,484.215491 L671.635511,485.31202 C671.147199,485.301696 670.662402,485.279324 670.184639,485.246621 L670.936416,471.155201 L670.931156,471.045037 L670.943449,471.026098 L671.01547,469.693734 L664,459.060621 L671.036547,468.695321 L671.054115,468.97765 L671.621467,458.330759 L665.615971,447.343047 L671.695233,456.463043 L672.287179,434.387758 L672.288937,434.31202 L672.288937,434.386063 L672.190571,451.792881 L678.169723,444.891775 L672.165978,453.292234 L672.007898,462.825365 L677.591821,453.676098 L671.985063,464.228304 L671.897239,469.528509 L680,456.793562 L671.86562,471.3773 L671.670647,483.165436 Z" id="Path" fill="#3F3D56"></path>
                <path d="M79,369.310946 C79,383.394798 70.4941567,388.31202 60,388.31202 C59.7569203,388.31202 59.5138546,388.308561 59.2725253,388.3034 C58.7863728,388.293077 58.3037212,388.270709 57.8280711,388.238012 C48.3569245,387.578824 41,382.4086 41,369.310946 C41,355.758918 58.5957698,338.656231 59.9213026,337.387773 L59.923053,337.38605 C59.9737722,337.336146 60,337.31202 60,337.31202 C60,337.31202 79,355.228811 79,369.310946 Z" id="Path" fill="#FF5252"></path>
                <path d="M58.6706465,386.165436 L65.6509955,376.608203 L58.6530719,387.215491 L58.6355114,388.31202 C58.1471987,388.301696 57.6624025,388.279324 57.1846389,388.246621 L57.9364159,374.155201 L57.9311555,374.045037 L57.9434486,374.026098 L58.0154701,372.693734 L51,362.060621 L58.0365469,371.695321 L58.0541145,371.97765 L58.6214672,361.330759 L52.6159711,350.343047 L58.6952327,359.463043 L59.2871785,337.387758 L59.2889367,337.31202 L59.2889367,337.386063 L59.1905709,354.792881 L65.1697227,347.891775 L59.1659777,356.292234 L59.0078976,365.825365 L64.591821,356.676098 L58.9850626,367.228304 L58.8972388,372.528509 L67,359.793562 L58.8656199,374.3773 L58.6706465,386.165436 Z" id="Path" fill="#3F3D56"></path>
            </g>
        </g>
    </g>
</svg>