<?xml version="1.0" encoding="UTF-8"?>
<svg width="28px" height="28px" viewBox="0 0 28 28" version="1.1" xmlns="http://www.w3.org/2000/svg" xmlns:xlink="http://www.w3.org/1999/xlink">
    <title>Tools/Glyphs/Library Inactive</title>
    <g id="Tools/Glyphs/Library-Inactive" stroke="none" stroke-width="1" fill="none" fill-rule="evenodd">
        <path d="M2.97884299,12.173913 L9.19507006,12.173913 C11.2184351,12.173913 12.173913,11.0125409 12.173913,8.52583809 L12.173913,3.63441175 C12.173913,1.14770897 11.2184351,0 9.19507006,0 L2.97884299,0 C0.95547794,0 0,1.14770897 0,3.63441175 L0,8.52583809 C0,11.0125409 0.95547794,12.173913 2.97884299,12.173913 Z M18.8049299,12.173913 L25.021157,12.173913 C27.0445221,12.173913 28,11.0125409 28,8.52583809 L28,3.63441175 C28,1.14770897 27.0445221,0 25.021157,0 L18.8049299,0 C16.7815649,0 15.826087,1.14770897 15.826087,3.63441175 L15.826087,8.52583809 C15.826087,11.0125409 16.7815649,12.173913 18.8049299,12.173913 Z M2.97884299,28 L9.19507006,28 C11.2184351,28 12.173913,26.8386278 12.173913,24.351925 L12.173913,19.4604987 C12.173913,16.9737959 11.2184351,15.826087 9.19507006,15.826087 L2.97884299,15.826087 C0.95547794,15.826087 0,16.9737959 0,19.4604987 L0,24.351925 C0,26.8386278 0.95547794,28 2.97884299,28 Z M18.8049299,28 L25.021157,28 C27.0445221,28 28,26.8386278 28,24.351925 L28,19.4604987 C28,16.9737959 27.0445221,15.826087 25.021157,15.826087 L18.8049299,15.826087 C16.7815649,15.826087 15.826087,16.9737959 15.826087,19.4604987 L15.826087,24.351925 C15.826087,26.8386278 16.7815649,28 18.8049299,28 Z" id="Icon-Copy" fill="#9E9E9E"></path>
    </g>
</svg>