<?xml version="1.0" encoding="UTF-8"?>
<svg width="224px" height="61px" viewBox="0 0 224 61" version="1.1" xmlns="http://www.w3.org/2000/svg" xmlns:xlink="http://www.w3.org/1999/xlink">
    <!-- Generator: Sketch 64 (93537) - https://sketch.com -->
    <title>Group 4</title>
    <desc>Created with Sketch.</desc>
    <g id="CMR-screens" stroke="none" stroke-width="1" fill="none" fill-rule="evenodd">
        <g id="Create-account-&amp;-Log-in-/-Home" transform="translate(-213.000000, -169.000000)">
            <g id="Group-4" transform="translate(213.000000, 169.000000)">
                <g id="Logo" transform="translate(0.680412, 0.000000)">
                    <path d="M103.197432,1.82701965 L103.197432,7.71711287 L92.8239732,7.71711287 L92.8239732,38.9556429 L85.3231646,38.9556429 L85.3231646,7.71711287 L75.002903,7.71711287 L75.002903,1.82701965 L103.197432,1.82701965 Z M118.75512,11.0039952 C120.563834,9.9346575 122.585309,9.39999664 124.819603,9.39999664 L124.819603,17.3411045 L122.638517,17.3411045 C117.141443,17.3411045 114.392947,19.8654049 114.392947,24.9140814 L114.392947,38.9556429 L106.892138,38.9556429 L106.892138,9.82071759 L114.392947,9.82071759 L114.392947,15.3952701 C115.492362,13.5370766 116.946405,12.073333 118.75512,11.0039952 Z M146.441774,11.1880607 C148.215024,12.345049 149.474012,13.9052069 150.218777,15.8685812 L150.218777,9.82071759 L157.666389,9.82071759 L157.666389,38.9556429 L150.218777,38.9556429 L150.218777,32.8551893 C149.474012,34.8185635 148.215024,36.3874863 146.441774,37.5620048 C144.668525,38.7365233 142.540657,39.3237738 140.058107,39.3237738 C137.575558,39.3237738 135.341297,38.7277584 133.355257,37.5357098 C131.369217,36.3436611 129.817647,34.6169695 128.7005,32.3555831 C127.583352,30.0941968 127.024787,27.4384224 127.024787,24.3881803 C127.024787,21.3379382 127.583352,18.6821638 128.7005,16.4207774 C129.817647,14.159391 131.369217,12.4326994 133.355257,11.2406508 C135.341297,10.0486021 137.575558,9.45258676 140.058107,9.45258676 C142.540657,9.45258676 144.668525,10.0310723 146.441774,11.1880607 Z M136.759879,18.1825463 C135.34128,19.6901373 134.63199,21.7586612 134.63199,24.3881803 C134.63199,27.0176993 135.34128,29.0774583 136.759879,30.5675191 C138.178479,32.0575799 140.058096,32.8025991 142.398785,32.8025991 C144.668545,32.8025991 146.539295,32.0400501 148.011092,30.514929 C149.48289,28.989808 150.218777,26.9475788 150.218777,24.3881803 C150.218777,21.7937215 149.48289,19.7339625 148.011092,18.2088414 C146.539295,16.6837204 144.668545,15.9211713 142.398785,15.9211713 C140.058096,15.9211713 138.178479,16.6749554 136.759879,18.1825463 Z M186.76277,12.5028136 C189.298517,14.5363083 190.885551,17.3060268 191.523921,20.8120522 L183.597535,20.8120522 C183.27835,19.2694011 182.551328,18.0510755 181.416449,17.157039 C180.281569,16.2630026 178.845258,15.815991 177.107473,15.815991 C175.121434,15.815991 173.46347,16.5434804 172.133533,17.9984809 C170.803596,19.4534815 170.138637,21.5833599 170.138637,24.3881803 C170.138637,27.1930006 170.803596,29.3228791 172.133533,30.7778796 C173.46347,32.2328801 175.121434,32.9603695 177.107473,32.9603695 C178.845258,32.9603695 180.281569,32.513358 181.416449,31.6193215 C182.551328,30.725285 183.27835,29.5069595 183.597535,27.9643083 L191.523921,27.9643083 C190.885551,31.4703337 189.298517,34.2400522 186.76277,36.2735469 C184.227023,38.3070417 181.061819,39.3237738 177.267065,39.3237738 C174.394401,39.3237738 171.840959,38.7189935 169.606665,37.5094147 C167.37237,36.2998359 165.634612,34.5731443 164.393337,32.3292881 C163.152062,30.0854318 162.531434,27.4384224 162.531434,24.3881803 C162.531434,21.3379382 163.152062,18.6821638 164.393337,16.4207774 C165.634612,14.159391 167.37237,12.4326994 169.606665,11.2406508 C171.840959,10.0486021 174.394401,9.45258676 177.267065,9.45258676 C181.061819,9.45258676 184.227023,10.4693189 186.76277,12.5028136 Z M213.624867,38.9556429 L203.889775,26.2288344 L203.889775,38.9556429 L196.388967,38.9556429 L196.388967,0.0389556429 L203.889775,0.0389556429 L203.889775,21.9164447 L213.57167,9.82071759 L222.455607,9.82071759 L210.060653,24.3355901 L222.77479,38.9556429 L213.624867,38.9556429 Z" id="OnTrack" fill="#FF5252"></path>
                    <path d="M68.4887437,12.7131741 C70.5102483,14.9219701 71.5209855,18.024756 71.5209855,22.021625 L71.5209855,38.9556429 L64.0733741,38.9556429 L64.0733741,22.8630668 C64.0733741,20.5490901 63.4704782,18.752279 62.2646684,17.4725798 C61.0588586,16.1928805 59.4097612,15.5530404 57.3173265,15.5530404 C55.1894269,15.5530404 53.4871327,16.2367051 52.210393,17.604055 C50.9336532,18.971405 50.2952929,20.9347497 50.2952929,23.4941483 L50.2952929,38.9556429 L42.7944842,38.9556429 L42.7944842,9.82071759 L50.2952929,9.82071759 L50.2952929,15.6582207 C51.0755227,13.6948465 52.3611095,12.1609834 54.1520917,11.0565854 C55.9430738,9.95218736 58.0088787,9.39999664 60.3495683,9.39999664 C63.7542077,9.39999664 66.4672391,10.5043781 68.4887437,12.7131741 Z" id="Combined-Shape" fill="#212121"></path>
                    <path d="M18.9732941,0.64 C22.5122821,0.64 25.7205589,1.47074283 28.5982209,3.13225342 C31.4758829,4.79376401 33.7458058,7.11442605 35.4080577,10.0943092 C37.0703096,13.0741923 37.9014232,16.4423127 37.9014232,20.1987714 C37.9014232,23.9552301 37.0703096,27.3323803 35.4080577,30.3303233 C33.7458058,33.3282664 31.4758829,35.6579582 28.5982209,37.3194688 C25.7205589,38.9809794 22.5122821,39.8117222 18.9732941,39.8117222 C15.4343061,39.8117222 12.2260292,38.9809794 9.34836723,37.3194688 C6.47070526,35.6579582 4.20078236,33.3282664 2.53853041,30.3303233 C0.876278472,27.3323803 0.045164967,23.9552301 0.045164967,20.1987714 C0.045164967,16.4423127 0.876278472,13.0741923 2.53853041,10.0943092 C4.20078236,7.11442605 6.47070526,4.79376401 9.34836723,3.13225342 C12.2260292,1.47074283 15.4343061,0.64 18.9732941,0.64 Z M18.9035772,7.68527378 C16.6906394,7.68527378 14.7454249,8.19053584 13.0678752,9.20107511 C11.3903256,10.2116144 10.0786442,11.6642428 9.1327918,13.5590039 C8.18693935,15.4537651 7.71402022,17.6642866 7.71402022,20.1906347 C7.71402022,22.7169829 8.18693935,24.9275044 9.1327918,26.8222656 C10.0786442,28.7170267 11.3903256,30.1696551 13.0678752,31.1801944 C14.7454249,32.1907336 16.6906394,32.6959957 18.9035772,32.6959957 C21.116515,32.6959957 23.0617295,32.1907336 24.7392792,31.1801944 C26.4168288,30.1696551 27.7285101,28.7170267 28.6743626,26.8222656 C29.620215,24.9275044 30.0931342,22.7169829 30.0931342,20.1906347 C30.0931342,17.6642866 29.620215,15.4537651 28.6743626,13.5590039 C27.7285101,11.6642428 26.4168288,10.2116144 24.7392792,9.20107511 C23.0617295,8.19053584 21.116515,7.68527378 18.9035772,7.68527378 Z" id="Combined-Shape" fill="#212121"></path>
                    <path d="M14.6491214,12.1788143 C13.4261218,12.9155371 12.4698546,13.9745603 11.7802911,15.3559155 C11.0907275,16.7372708 10.7459509,18.3488277 10.7459509,20.1906347 C10.7459509,22.0324417 11.0907275,23.6439987 11.7802911,25.0253539 C12.4698546,26.4067092 13.4261218,27.4657323 14.6491214,28.2024551 C15.8721209,28.9391779 17.2902587,29.3075338 18.9035772,29.3075338 C20.5168957,29.3075338 21.9350335,28.9391779 23.158033,28.2024551 C24.3810326,27.4657323 25.3372998,26.4067092 26.0268633,25.0253539 C26.7164269,23.6439987 27.0612035,22.0324417 27.0612035,20.1906347 C27.0612035,18.3488277 26.7164269,16.7372708 26.0268633,15.3559155 C25.3372998,13.9745603 24.3810326,12.9155371 23.158033,12.1788143 C21.9350335,11.4420915 20.5168957,11.0737357 18.9035772,11.0737357 C17.2902587,11.0737357 15.8721209,11.4420915 14.6491214,12.1788143 Z" id="Combined-Shape" fill="#FF5252"></path>
                </g>
                <path d="M162.046952,46.2074689 L162.046952,48.5311203 L157.864923,48.5311203 L157.864923,60.8547718 L154.840995,60.8547718 L154.840995,48.5311203 L150.680412,48.5311203 L150.680412,46.2074689 L162.046952,46.2074689 Z M172.009951,46 C173.425414,46 174.708605,46.3181158 175.859562,46.9543568 C177.010519,47.5905979 177.918403,48.4792474 178.583242,49.620332 C179.248081,50.7614165 179.580495,52.0511685 179.580495,53.4896266 C179.580495,54.9280846 179.248081,56.2212944 178.583242,57.3692946 C177.918403,58.5172948 177.010519,59.4094021 175.859562,60.0456432 C174.708605,60.6818842 173.425414,61 172.009951,61 C170.594488,61 169.311297,60.6818842 168.16034,60.0456432 C167.009382,59.4094021 166.101498,58.5172948 165.436659,57.3692946 C164.771821,56.2212944 164.439406,54.9280846 164.439406,53.4896266 C164.439406,52.0511685 164.771821,50.7614165 165.436659,49.620332 C166.101498,48.4792474 167.009382,47.5905979 168.16034,46.9543568 C169.311297,46.3181158 170.594488,46 172.009951,46 Z M172.009951,48.6970954 C171.123499,48.6970954 170.344291,48.8907311 169.672304,49.2780083 C169.000316,49.6652855 168.474887,50.2219881 168.096001,50.9481328 C167.717114,51.6742775 167.527674,52.5214336 167.527674,53.4896266 C167.527674,54.4578195 167.717114,55.3049756 168.096001,56.0311203 C168.474887,56.757265 169.000316,57.3139676 169.672304,57.7012448 C170.344291,58.088522 171.123499,58.2821577 172.009951,58.2821577 C172.896402,58.2821577 173.67561,58.088522 174.347598,57.7012448 C175.019585,57.3139676 175.545014,56.757265 175.923901,56.0311203 C176.302787,55.3049756 176.492228,54.4578195 176.492228,53.4896266 C176.492228,52.5214336 176.302787,51.6742775 175.923901,50.9481328 C175.545014,50.2219881 175.019585,49.6652855 174.347598,49.2780083 C173.67561,48.8907311 172.896402,48.6970954 172.009951,48.6970954 Z M190.14399,46 C191.559453,46 192.842644,46.3181158 193.993601,46.9543568 C195.144558,47.5905979 196.052443,48.4792474 196.717281,49.620332 C197.38212,50.7614165 197.714534,52.0511685 197.714534,53.4896266 C197.714534,54.9280846 197.38212,56.2212944 196.717281,57.3692946 C196.052443,58.5172948 195.144558,59.4094021 193.993601,60.0456432 C192.842644,60.6818842 191.559453,61 190.14399,61 C188.728527,61 187.445336,60.6818842 186.294379,60.0456432 C185.143422,59.4094021 184.235537,58.5172948 183.570699,57.3692946 C182.90586,56.2212944 182.573446,54.9280846 182.573446,53.4896266 C182.573446,52.0511685 182.90586,50.7614165 183.570699,49.620332 C184.235537,48.4792474 185.143422,47.5905979 186.294379,46.9543568 C187.445336,46.3181158 188.728527,46 190.14399,46 Z M190.14399,48.6970954 C189.257539,48.6970954 188.478331,48.8907311 187.806343,49.2780083 C187.134356,49.6652855 186.608927,50.2219881 186.23004,50.9481328 C185.851153,51.6742775 185.661713,52.5214336 185.661713,53.4896266 C185.661713,54.4578195 185.851153,55.3049756 186.23004,56.0311203 C186.608927,56.757265 187.134356,57.3139676 187.806343,57.7012448 C188.478331,58.088522 189.257539,58.2821577 190.14399,58.2821577 C191.030442,58.2821577 191.809649,58.088522 192.481637,57.7012448 C193.153624,57.3139676 193.679054,56.757265 194.05794,56.0311203 C194.436827,55.3049756 194.626267,54.4578195 194.626267,53.4896266 C194.626267,52.5214336 194.436827,51.6742775 194.05794,50.9481328 C193.679054,50.2219881 193.153624,49.6652855 192.481637,49.2780083 C191.809649,48.8907311 191.030442,48.6970954 190.14399,48.6970954 Z M204.203232,58.6141079 L209.286006,58.6141079 L209.286006,60.8547718 L201.179304,60.8547718 L201.179304,46.2074689 L204.203232,46.2074689 L204.203232,58.6141079 Z M222.680412,56.8506224 C222.680412,57.5975141 222.487398,58.2856123 222.101362,58.9149378 C221.715327,59.5442632 221.143431,60.0490991 220.385658,60.4294606 C219.627885,60.8098221 218.705703,61 217.619085,61 C216.546765,61 215.58884,60.8236532 214.745281,60.4709544 C213.901722,60.1182555 213.22617,59.6099618 212.718605,58.9460581 C212.21104,58.2821544 211.921518,57.5076116 211.85003,56.6224066 L215.066975,56.6224066 C215.138463,57.2171537 215.385093,57.7116163 215.806873,58.1058091 C216.228652,58.5 216.789825,58.6970954 217.490407,58.6970954 C218.119502,58.6970954 218.602039,58.5345798 218.938033,58.2095436 C219.274026,57.8845074 219.442021,57.466116 219.442021,56.9543568 C219.442021,56.497923 219.306196,56.121025 219.034541,55.8236515 C218.762887,55.5262779 218.419749,55.2876911 218.005119,55.1078838 C217.590488,54.9280766 217.018592,54.7206098 216.289415,54.4854772 C215.345773,54.181188 214.573713,53.8803611 213.973214,53.5829876 C213.372715,53.285614 212.861583,52.8533915 212.439803,52.2863071 C212.018024,51.7192226 211.807138,50.9792577 211.807138,50.06639 C211.807138,48.8077392 212.275377,47.8153563 213.21187,47.0892116 C214.148363,46.3630669 215.388662,46 216.932804,46 C218.534135,46 219.810178,46.3734402 220.760968,47.120332 C221.711759,47.8672237 222.251486,48.8630643 222.380164,50.1078838 L219.120326,50.1078838 C219.034541,49.5822934 218.805782,49.1500709 218.434045,48.8112033 C218.062307,48.4723358 217.55475,48.3029046 216.911357,48.3029046 C216.353751,48.3029046 215.903383,48.4446735 215.56024,48.7282158 C215.217098,49.011758 215.045529,49.4232338 215.045529,49.9626556 C215.045529,50.3914268 215.17778,50.7475781 215.442286,51.0311203 C215.706791,51.3146626 216.04278,51.5463338 216.450262,51.7261411 C216.857744,51.9059483 217.411767,52.1064996 218.11235,52.3278008 C219.084587,52.6597527 219.874518,52.9709529 220.482166,53.2614108 C221.089815,53.5518687 221.608095,53.987549 222.037023,54.5684647 C222.465952,55.1493805 222.680412,55.9100921 222.680412,56.8506224 Z" id="TOOLS" fill="#FF5252" fill-rule="nonzero"></path>
            </g>
        </g>
    </g>
</svg>