<?xml version="1.0" encoding="UTF-8"?>
<svg width="28px" height="28px" viewBox="0 0 28 28" version="1.1" xmlns="http://www.w3.org/2000/svg" xmlns:xlink="http://www.w3.org/1999/xlink">
    <title>Tools/Glyphs/Profile Active</title>
    <g id="Tools/Glyphs/Profile-Active" stroke="none" stroke-width="1" fill="none" fill-rule="evenodd">
        <path d="M14.0163584,15.0327168 C16.234708,15.0327168 18.0339433,13.2359959 18.0339433,11.0151318 C18.0339433,8.79797812 16.2348306,7 14.0163584,7 C11.7978861,7 10,8.79791679 10,11.0151318 C10,13.2358732 11.7979168,15.0327168 14.0163584,15.0327168 Z" id="Path" fill="#FF5252" fill-rule="nonzero"></path>
        <path d="M14,0 C21.7319865,0 28,6.2680135 28,14 C28,21.7319865 21.7319865,28 14,28 C6.2680135,28 0,21.7319865 0,14 C0,6.2680135 6.2680135,0 14,0 Z M14,2 C7.372583,2 2,7.372583 2,14 C2,18.4416697 4.41316522,22.3197144 7.99994078,24.3945794 L8,19.511057 C8,18.1255536 9.05164931,17 10.34769,17 L10.34769,17 L17.1945108,17 C18.4905208,17 19.5422008,18.1255536 19.5422008,19.511057 L19.5422008,19.511057 L19.5426724,24.6460308 C23.3801751,22.6440115 26,18.6279522 26,14 C26,7.372583 20.627417,2 14,2 Z" id="Combined-Shape" fill="#FF5252" fill-rule="nonzero"></path>
    </g>
</svg>