<?xml version="1.0" encoding="UTF-8"?>
<svg width="28px" height="28px" viewBox="0 0 28 28" version="1.1" xmlns="http://www.w3.org/2000/svg" xmlns:xlink="http://www.w3.org/1999/xlink">
    <title>Tools/Glyphs/Settings Inactive</title>
    <g id="Tools/Glyphs/Settings-Inactive" stroke="none" stroke-width="1" fill="none" fill-rule="evenodd">
        <path d="M27.6487686,10.8391459 C27.6126651,10.7473205 27.5645299,10.6609578 27.5065474,10.5811549 C27.0022014,9.93508621 26.2166954,9.5721448 25.3973012,9.60494358 L25.25508,9.60494358 C24.7846502,9.59291885 24.3569027,9.33055607 24.1348089,8.91625324 C24.1118347,8.91843973 24.0932357,8.89985553 24.0954258,8.8769003 C23.9466398,8.61890939 23.8153581,8.40683116 23.6643735,8.14883464 L23.6632793,8.14992775 C23.6479633,8.14555504 23.637023,8.13243693 23.635929,8.11604034 C23.3854,7.70720304 23.3711782,7.19557572 23.5965459,6.77252188 C23.6337417,6.74737876 23.6589058,6.70802415 23.6665628,6.66320568 C24.0943103,5.93844229 24.1720011,5.05950785 23.879896,4.27132975 C23.8525455,4.17513027 23.8033143,4.0876762 23.7365798,4.01333884 C23.2595964,3.56294336 22.7585272,3.13879809 22.2355846,2.74305791 C22.1655677,2.70917051 22.0867987,2.67309465 21.9839606,2.63374172 L21.9828663,2.63374172 C21.1645364,2.46539332 20.3145027,2.69495957 19.6919961,3.2524688 C19.6515179,3.26340042 19.6154144,3.28854465 19.5891581,3.32243206 C19.3692601,3.50827127 19.0891811,3.60883366 18.8014675,3.6022851 C18.6286125,3.5990055 18.4568441,3.56183794 18.2971215,3.4929689 C18.0312756,3.37927861 17.7566747,3.28526478 17.476607,3.21311586 C17.0291427,3.05351288 16.7020516,2.66544347 16.6199918,2.19755717 C16.6123336,2.14836461 16.5992054,2.10026347 16.5806086,2.05435078 C16.4755832,1.21806594 15.9668682,0.485634574 15.2196474,0.0953795124 C15.1441607,0.0516524752 15.0577346,0.0286961305 14.9702134,0.0286961305 C14.3280181,-0.00956537684 13.6836382,-0.00956537684 13.0403786,0.0286961305 C12.9528574,0.036348432 12.8675236,0.0603978827 12.7887545,0.09865939 C12.042626,0.507496693 11.5371877,1.24759604 11.4277933,2.09042943 C11.3971594,2.11885131 11.3829376,2.15929847 11.3884101,2.19974563 C11.3151108,2.67199763 10.9847205,3.06443554 10.5317949,3.21530432 C10.2856405,3.28526757 9.99680947,3.39458377 9.7112804,3.49515735 C9.54499017,3.53560451 9.37651541,3.55856086 9.20693438,3.56512061 C8.92031305,3.5629344 8.64352208,3.46454703 8.41924383,3.28526757 C8.38533042,3.24591464 8.34922689,3.24591464 8.31531348,3.20983879 L8.31640743,3.20983879 C7.69499309,2.65013271 6.84386719,2.42056926 6.02553722,2.59220313 C5.93035899,2.59438934 5.83955543,2.63374452 5.77282088,2.7004279 C5.23128187,3.07319214 4.72693586,3.49736539 4.26854897,3.96849798 C4.20947147,4.04720665 4.16133623,4.1335665 4.12632776,4.2264861 C3.81889739,5.01248135 3.89767764,5.89796434 4.3385659,6.61836203 C4.36591648,6.65334366 4.38889128,6.68941952 4.40858284,6.72767823 C4.63395056,7.15182349 4.61863366,7.66123998 4.37029198,8.07119669 C4.34731774,8.0690102 4.32871872,8.0875944 4.33090885,8.11054963 C4.17665313,8.34230152 4.03989045,8.58607591 3.92175787,8.83752386 C3.89987758,8.83643076 3.88127968,8.85501468 3.88237474,8.8768768 C3.67232393,9.30211349 3.23690259,9.56996083 2.76210373,9.56556714 L2.61660013,9.56556714 C1.79827015,9.54479673 1.01825345,9.90774345 0.507353855,10.5483271 C0.44061931,10.6215702 0.392481265,10.7101157 0.365132648,10.8052237 C0.193372696,11.473149 0.0719297165,12.1520165 0.000820513734,12.8374326 C-0.00355554493,12.9325378 0.00957263105,13.0265516 0.0402036413,13.1172856 C0.306049555,13.8868814 0.911046316,14.4925114 1.68123264,14.7592393 C1.72937069,14.7690781 1.77750593,14.782196 1.82454891,14.7985923 C2.26870836,14.9538239 2.58708939,15.3473561 2.64506341,15.8152424 L2.64506341,15.8545953 L2.64506341,15.8535022 C2.67241371,16.1366295 2.72055007,16.417574 2.78728462,16.6930613 L2.78728462,16.7324143 C2.868241,17.201392 2.70632823,17.6780097 2.35623234,18.0004843 C2.31465908,18.0125094 2.27855835,18.0365602 2.25230199,18.0704476 C1.62542634,18.5765898 1.25892968,19.3363348 1.25237609,20.1409123 C1.26112821,20.2371118 1.28519723,20.3322171 1.32239303,20.4207654 C1.63746925,21.0624684 1.99629206,21.6811955 2.39561266,22.2737003 C2.4284338,22.377551 2.50939019,22.4595395 2.61332053,22.4923355 C3.30035474,22.8771334 4.12414603,22.9296059 4.85386257,22.6344477 C4.9052802,22.6453796 4.95888797,22.630075 4.99717884,22.5950947 C5.13611765,22.5480878 5.28161565,22.5240372 5.42823112,22.5251315 C5.58576923,22.5251315 5.74112281,22.5524611 5.88771028,22.60712 C6.04306106,22.6661522 6.18855906,22.7492322 6.31876256,22.8530857 L6.96314244,23.4127917 L7.00252557,23.4521447 C7.36246865,23.7516714 7.53860326,24.2173748 7.46749406,24.6808674 C7.44014376,24.7235002 7.42701587,24.7726928 7.42811093,24.8229796 C7.26619816,25.5980326 7.45108517,26.4058843 7.93245694,27.0344622 C8.00247388,27.1120767 8.08780772,27.1732945 8.18408102,27.2126503 C8.83719902,27.5362164 9.52314096,27.7909386 10.2287997,27.9713039 C10.33273,28.0095654 10.4465075,28.0095654 10.5515217,27.9713039 C11.3184313,27.8149808 11.9748261,27.3219609 12.3380459,26.6277854 C12.3643023,26.593898 12.3872763,26.5578221 12.4080629,26.5195606 C12.6224884,26.0888388 13.0765006,25.8319617 13.5556965,25.8702176 L14.4527815,25.8702176 C14.9253959,25.8581929 15.3673708,26.1074379 15.6004152,26.5195606 C15.6266715,26.553448 15.6507406,26.5895239 15.6704321,26.6277854 C16.033652,27.3219609 16.6900468,27.814978 17.4569563,27.9713039 L17.6002726,27.9713039 C17.6396557,27.9713039 17.7042029,27.9713039 17.6593501,27.8958751 C18.3529659,27.6794255 19.0334185,27.4247145 19.6974871,27.1317364 C19.7948555,27.0934749 19.8812816,27.0311628 19.9502035,26.9524569 C20.3342044,26.4976957 20.5409784,25.9194074 20.5354891,25.3236283 C20.5354891,25.1530914 20.5179848,24.9825434 20.4851637,24.8153032 C20.4906337,24.7398744 20.4764116,24.6644456 20.4457806,24.596668 C20.3877981,24.1364497 20.5792497,23.6805971 20.9501266,23.4018355 C20.9129308,23.3646682 20.968725,23.3078217 21.0059217,23.3460832 C21.2356641,23.1777348 21.4511734,22.9897183 21.6503016,22.7863771 L21.6896847,22.7863771 C21.9238045,22.5732074 22.2290392,22.4562345 22.5462999,22.4584173 C22.6513253,22.4573242 22.7552557,22.4704423 22.8570071,22.4977702 C22.8985804,22.5065156 22.9390586,22.5196338 22.9773494,22.5371232 C23.0265797,22.5458686 23.0736227,22.5589867 23.1206657,22.5764761 C23.2738291,22.6322284 23.4302806,22.6770497 23.5910955,22.7076572 C23.7551984,22.7404532 23.9225837,22.7568498 24.0899522,22.757944 C24.5406932,22.762317 24.9859449,22.6486278 25.3808965,22.4299842 L25.5996994,22.2113491 L25.5986055,22.2124422 C26.0197994,21.6330624 26.3786502,21.0121245 26.6718251,20.3595072 C26.7155857,20.2731474 26.7396547,20.1769479 26.741842,20.0796542 C26.7276199,19.2761681 26.3622102,18.5196974 25.7419161,18.0091895 C25.7080027,17.975302 25.6718992,17.9392262 25.6379858,17.8998733 C25.3097744,17.62658 25.146775,17.2024235 25.2069335,16.7804611 L25.2069335,16.7378283 C25.2736681,16.4623466 25.3218061,16.1813965 25.3502498,15.8982692 L25.3502498,15.8676589 C25.4870013,15.039042 26.1007474,14.8324265 26.1729488,14.8324265 C26.2298362,14.8433581 26.2878214,14.8247742 26.3272045,14.7821397 C27.0941141,14.5197775 27.6958116,13.9185412 27.9594674,13.1533111 C27.9901012,13.0636713 28.0043231,12.9685633 27.9988505,12.873458 C27.9386808,12.1869505 27.8216209,11.5059002 27.6487658,10.8390664 L27.6487686,10.8391459 Z M14.0041477,19.9005074 C12.4780025,19.9136255 11.0088231,19.3189448 9.92132001,18.2476394 C8.83387293,17.1774254 8.21685566,15.7180198 8.20699728,14.1931285 C8.19715122,12.6670619 8.79449541,11.2012197 9.86771504,10.1156698 C10.9420269,9.03123926 12.4025523,8.41796931 13.9298177,8.41022905 C15.455963,8.40264931 16.9231819,9.00280619 18.0073242,10.0773859 C19.0904022,11.1519656 19.7019582,12.613554 19.7063272,14.1386132 C19.7205493,15.6603141 19.1265029,17.1240854 18.0554678,18.2062771 C16.985525,19.2874333 15.5272122,19.897429 14.0042878,19.9007199 L14.0041477,19.9005074 Z" id="Shape" fill="#9E9E9E" fill-rule="nonzero"></path>
    </g>
</svg>