<?xml version="1.0" encoding="UTF-8"?>
<svg width="28px" height="28px" viewBox="0 0 28 28" version="1.1" xmlns="http://www.w3.org/2000/svg" xmlns:xlink="http://www.w3.org/1999/xlink">
    <title>Tools/Glyphs/Team Inactive</title>
    <g id="Tools/Glyphs/Team-Inactive" stroke="none" stroke-width="1" fill="none" fill-rule="evenodd">
        <path d="M13.9999475,12.6404713 C16.1099729,12.6404713 17.8213498,10.9314861 17.8213498,8.81906901 C17.8213498,6.71018109 16.1100896,5 13.9999475,5 C11.8898054,5 10.1797118,6.71012275 10.1797118,8.81906901 C10.1797118,10.9313694 11.8898346,12.6404713 13.9999475,12.6404713 Z" id="Path" fill="#9E9E9E" fill-rule="nonzero"></path>
        <path d="M17.256102,14.3187151 L10.743793,14.3187151 C9.51103933,14.3187151 8.51074308,15.320178 8.51074308,16.5529317 L8.51074308,22.5069927 L19.4893269,22.5069927 L19.4893269,16.5529317 C19.4893269,15.320178 18.4890015,14.3187151 17.256277,14.3187151 L17.256102,14.3187151 Z" id="Path" fill="#9E9E9E" fill-rule="nonzero"></path>
        <path d="M4.69056574,14.0757576 C6.49410898,14.0757576 7.95576183,12.6128798 7.95576183,10.8117282 C7.95576183,9.00704747 6.49402148,7.54769878 4.69056574,7.54769878 C2.88702251,7.54769878 1.42653632,9.00716414 1.42653632,10.8117282 C1.42653632,12.6129965 2.88713917,14.0757576 4.69056574,14.0757576 Z" id="Path" fill="#9E9E9E" fill-rule="nonzero"></path>
        <path d="M23.3104959,14.0757576 C25.1129017,14.0757576 26.5736503,12.6128798 26.5736503,10.8117282 C26.5736503,9.00704747 25.1130475,7.54769878 23.3104959,7.54769878 C21.5069527,7.54769878 20.0452998,9.00716414 20.0452998,10.8117282 C20.0452998,12.6129965 21.5070402,14.0757576 23.3104959,14.0757576 Z" id="Path" fill="#9E9E9E" fill-rule="nonzero"></path>
        <path d="M1.90836784,15.5112685 C0.854492629,15.5112685 0,16.3658282 0,17.4185659 L0,22.5066718 L7.81576236,22.5066718 L7.81576236,16.5526108 C7.81576236,16.213083 7.88526043,15.8940883 7.99235711,15.5898811 C7.82601732,15.543168 7.65396671,15.5112685 7.47284239,15.5112685 L1.90836784,15.5112685 Z" id="Path" fill="#9E9E9E" fill-rule="nonzero"></path>
        <path d="M26.0926938,15.5113356 L20.528298,15.5113356 C20.346007,15.5113356 20.1751202,15.543238 20.0087833,15.5899482 C20.1147396,15.8941554 20.1842376,16.21315 20.1842376,16.5526779 L20.1842376,22.5067389 L28,22.5067389 L28,17.418633 C28,16.3658953 27.1455074,15.5113356 26.0927697,15.5113356 L26.0926938,15.5113356 Z" id="Path" fill="#9E9E9E" fill-rule="nonzero"></path>
    </g>
</svg>