<?xml version="1.0" encoding="UTF-8"?>
<svg width="220px" height="220px" viewBox="0 0 220 220" version="1.1" xmlns="http://www.w3.org/2000/svg" xmlns:xlink="http://www.w3.org/1999/xlink">
    <title>Engagement pie</title>
    <g id="OnTrack-Tools-screens" stroke="none" stroke-width="1" fill="none" fill-rule="evenodd">
        <g id="Stats-Copy-2" transform="translate(-879.000000, -131.000000)">
            <g id="Engagement-pie" transform="translate(879.000000, 131.000000)">
                <rect id="Rectangle-Copy-32" fill="#FFFFFF" x="0" y="0" width="220" height="220" rx="3"></rect>
                <text id="88%" font-family="SFProText-Regular, SF Pro Text" font-size="30" font-weight="normal" fill="#212121">
                    <tspan x="78.2421875" y="114">88%</tspan>
                </text>
                <circle id="Oval" stroke="#E0E0E0" stroke-width="15" cx="109.5" cy="109.5" r="69"></circle>
                <path d="M109.5,33 C151.749783,33 186,67.2502166 186,109.5 C186,151.749783 151.749783,186 109.5,186 C67.2502166,186 33,151.749783 33,109.5 C33,83.326128 46.1446885,60.2223625 66.1928306,46.4299383 L74.6388523,58.8280048 C58.5473782,69.9196761 48,88.478102 48,109.5 C48,143.465512 75.5344879,171 109.5,171 C143.465512,171 171,143.465512 171,109.5 C171,75.5344879 143.465512,48 109.5,48 L109.5,33 L109.5,33 Z" id="Combined-Shape" fill="#FF5252"></path>
                <text id="COMPLIANCE" font-family="SFProText-Regular, SF Pro Text" font-size="12" font-weight="normal" fill="#212121">
                    <tspan x="71.1425781" y="132">COMPLIANCE</tspan>
                </text>
                <text id="Title-Copy-31" font-family="SFProText-Semibold, SF Pro Text" font-size="13" font-weight="500" letter-spacing="-0.3135293" fill="#212121">
                    <tspan x="7" y="20">Engagement </tspan>
                </text>
            </g>
        </g>
    </g>
</svg>