<?xml version="1.0" encoding="UTF-8"?>
<svg width="508px" height="374px" viewBox="0 0 508 374" version="1.1" xmlns="http://www.w3.org/2000/svg" xmlns:xlink="http://www.w3.org/1999/xlink">
    <title>undraw_feeling_blue_-4-b7q</title>
    <g id="🛠-OnTrack-Tools-screens" stroke="none" stroke-width="1" fill="none" fill-rule="evenodd">
        <g id="404" transform="translate(-343, -285)" fill-rule="nonzero">
            <g id="undraw_feeling_blue_-4-b7q" transform="translate(343, 285)">
                <path d="M5,179 C13.0350535,209.987037 30.0303248,236.773537 56.8878495,249.758273 C112.721525,276.743261 238.641036,262.826097 332.619243,246.85021 C381.232011,238.587615 423.960732,215.784701 455,183.694446 L5,179 Z" id="Path" fill="#FF5252" opacity="0.1"></path>
                <path d="M498.058837,33.6753489 L446.577873,33.6753489 C444.134756,33.6753489 442.130384,31.8676654 442.130384,29.6587868 C442.130384,27.4499083 444.134756,25.6376133 446.577873,25.6376133 L455.48209,25.6376133 C453.034354,25.6376133 451.0346,23.8299298 451.0346,21.6164398 C451.0346,19.4029498 453.034354,17.5998777 455.48209,17.5998777 L449.127213,17.5998777 C446.679478,17.5998777 444.675105,15.7921942 444.675105,13.5787042 C444.675105,11.3652141 446.679478,9.56214206 449.127213,9.56214206 L475.996886,9.56214206 C470.034572,7.05813148 463.065452,5.27811659 455.034108,4.34199477 C381.763678,-4.15688461 355.605234,1.46445775 346.377732,7.24258898 C334.876104,14.5344052 322.09993,19.5940242 308.719548,22.155978 C263.514948,30.5810744 178.975697,40.7170141 102.35233,18.9279717 C64.2692566,8.07725917 35.9632707,26.3892776 19,57 L507,57 C506.362665,48.104537 504.455278,39.8869553 500.954554,32.6977242 C500.125488,33.3368771 499.106246,33.6809839 498.058837,33.6753489 L498.058837,33.6753489 Z" id="Path" fill="#FF5252" opacity="0.1"></path>
                <path d="M1.10905238,115 C-0.87036025,133.018036 -0.197499318,151.228264 3.10624448,169.051769 L455.562717,184 C468.017604,171.104875 478.599716,156.530108 487,140.701358 L1.10905238,115 Z M180.061163,153.558959 L171.152392,153.558959 C173.60265,153.558959 175.609089,155.372684 175.609089,157.583305 C175.609089,159.793927 173.60265,161.603037 171.152392,161.603037 L119.618363,161.603037 C117.172727,161.603037 115.166289,159.793927 115.166289,157.583305 C115.166289,155.372684 117.172727,153.558959 119.618363,153.558959 L128.531757,153.558959 C126.081499,153.558959 124.079683,151.74985 124.079683,149.539228 C124.079683,147.328607 126.081499,145.514882 128.531757,145.514882 L122.165708,145.514882 C119.715449,145.514882 117.70901,143.705772 117.70901,141.495151 C117.70901,139.284529 119.715449,137.470805 122.165708,137.470805 L173.699736,137.470805 C176.149995,137.470805 178.15181,139.279914 178.15181,141.495151 C178.15181,143.710387 176.149995,145.514882 173.699736,145.514882 L180.061163,145.514882 C182.511422,145.514882 184.513237,147.323992 184.513237,149.539228 C184.513237,151.754465 182.511422,153.558959 180.061163,153.558959 Z" id="Shape" fill="#FF5252" opacity="0.1"></path>
                <path d="M506.770589,57 L12.8298366,67.8611044 C6.82015019,81.8326441 2.83526579,97.6297738 1,114 L498.116641,114 C501.351859,104.422435 503.752353,94.5830366 505.291282,84.5918268 C506.775212,74.9739723 507.366935,65.6703965 506.770589,57 Z M101.287798,92.610557 L92.379594,92.610557 C94.8296969,92.610557 96.8360076,94.4269034 96.8360076,96.64072 C96.8360076,98.8545366 94.8296969,100.670883 92.379594,100.670883 L40.848844,100.670883 C38.4033639,100.670883 36.3970532,98.8545366 36.3970532,96.64072 C36.3970532,94.4269034 38.4033639,92.610557 40.848844,92.610557 L49.7616713,92.610557 C47.3115684,92.610557 45.3098805,90.7988324 45.3098805,88.5850158 C45.3098805,86.3711992 47.3115684,84.5548528 49.7616713,84.5548528 L43.3960265,84.5548528 C40.9459236,84.5548528 38.9396129,82.7431282 38.9396129,80.5293116 C38.9396129,78.315495 40.9459236,76.4991486 43.3960265,76.4991486 L94.9267764,76.4991486 C97.3768794,76.4991486 99.3785673,78.3108733 99.3785673,80.5293116 C99.3785673,82.7477499 97.3768794,84.5548528 94.9267764,84.5548528 L101.287798,84.5548528 C103.737901,84.5548528 105.739589,86.3711992 105.739589,88.5850158 C105.739589,90.7988324 103.737901,92.610557 101.287798,92.610557 Z" id="Shape" fill="#FF5252" opacity="0.1"></path>
                <ellipse id="Oval" fill="#FF5252" opacity="0.1" cx="251.5" cy="341" rx="206.5" ry="19"></ellipse>
                <ellipse id="Oval" fill="#575A89" cx="375.5" cy="195" rx="4.5" ry="3"></ellipse>
                <circle id="Oval" fill="#FF8A80" cx="254.5" cy="209.5" r="142.5"></circle>
                <path d="M329,281.442185 C329,304.014865 293.52709,283.370365 255.496571,283.370365 C217.466053,283.370365 179,303.162016 179,280.589337 C179,267.717811 191.259838,249.817258 208.848026,236.815951 L208.848026,236.815951 C222.099401,227.017461 238.371718,220 254.718169,220 C271.527955,220 287.994872,227.596842 301.130413,238.025698 C317.708532,251.175327 329,268.844127 329,281.442185 Z" id="Path" fill="#444053"></path>
                <path d="M301,238 C280.845551,234.959115 244.393854,231.251736 209,236.791977 C222.211488,227.007457 238.434826,220 254.732075,220 C271.486644,220 287.903997,227.586012 301,238 Z" id="Path" fill="#F6F8FB"></path>
                <path d="M179,109 C179,109 136.655813,136.41532 137.002113,179.298768 C137.348412,222.182217 179,109 179,109 Z" id="Path" fill="#000000" opacity="0.05"></path>
                <path d="M381.270704,32.0504284 C381.270704,32.0504284 342.839174,29.7058875 347.371539,56.9894991 C347.371539,56.9894991 346.458676,61.8080624 350.785646,64 C350.785646,64 350.854111,61.979163 354.72465,62.6635655 C356.104043,62.8973736 357.505826,62.9656682 358.900998,62.8670365 C360.786278,62.7371684 362.5781,61.9869817 364.003902,60.7305909 L364.003902,60.7305909 C364.003902,60.7305909 374.807634,56.2126098 379.011368,38.3210347 C379.011368,38.3210347 382.119666,34.4180909 381.99643,33.4192333 L375.510539,36.2215839 C375.510539,36.2215839 377.724231,40.9615334 375.96697,44.9014719 C375.96697,44.9014719 375.757012,36.3973089 374.510954,36.5776582 C374.259917,36.6192772 371.14249,38.2192992 371.14249,38.2192992 C371.14249,38.2192992 374.953692,46.4783721 372.055353,52.4761424 C372.055353,52.4761424 373.146224,42.3025923 369.928382,38.8158392 L365.364067,41.5164543 C365.364067,41.5164543 369.818838,50.043739 366.797262,57.0033721 C366.797262,57.0033721 367.573196,46.3303932 364.405561,42.1731107 L360.265728,45.4425198 C360.265728,45.4425198 364.451204,53.8495716 361.899752,59.6207491 C361.899752,59.6207491 361.566557,47.195145 359.371122,46.2564038 C359.371122,46.2564038 355.751621,49.4934424 355.199338,50.8206283 C355.199338,50.8206283 358.065728,56.920134 356.29021,60.1386753 C356.29021,60.1386753 355.199338,51.861105 354.304733,51.8148616 C354.304733,51.8148616 350.698924,57.29933 350.320086,61.0635435 C350.320086,61.0635435 350.479837,55.4680909 353.428384,51.2923111 C353.428384,51.2923111 349.941248,51.8980997 347.910128,54.1917728 C347.910128,54.1917728 348.471539,50.3119508 354.300169,49.9743739 C354.300169,49.9743739 357.280666,45.812467 358.079421,45.5627526 C358.079421,45.5627526 352.25992,45.0679481 348.731705,46.6540971 C348.731705,46.6540971 351.835439,42.9962434 359.142906,44.6563818 L363.25079,41.2806129 C363.25079,41.2806129 355.59187,40.2170145 352.342078,41.3915971 C352.342078,41.3915971 356.080251,38.1545584 364.350789,40.5129723 L368.800996,37.8169815 C368.800996,37.8169815 362.269462,36.3926845 358.376102,36.8921133 C358.376102,36.8921133 362.483985,34.649308 370.101826,37.0817113 L373.296846,35.6342926 C373.296846,35.6342926 368.50888,34.6816784 367.107636,34.5336995 C365.706391,34.3857206 365.633362,33.9880272 365.633362,33.9880272 C368.673984,33.4871503 371.792203,33.8538319 374.638755,35.0470013 C374.638755,35.0470013 381.384812,32.4804921 381.270704,32.0504284 Z" id="Path" fill="#FF5252"></path>
                <path d="M342.648683,19.0238985 C342.648683,19.0238985 325.118166,17.9202447 327.166468,30.7130312 C327.166468,30.7130312 326.755885,32.9731222 328.725762,34 C328.725762,34 328.753441,33.0403011 330.524946,33.3761957 C331.154416,33.483951 331.793702,33.5161519 332.430237,33.4721656 C333.291904,33.4082017 334.110659,33.0564441 334.764563,32.4692802 L334.764563,32.4692802 C334.764563,32.4692802 339.696175,30.3483456 341.615305,21.9605772 C341.615305,21.9605772 343.0362,20.1323507 342.999293,19.6620983 L340.037559,20.9768858 C340.037559,20.9768858 341.052483,23.1985888 340.254383,25.0460092 C340.254383,25.0460092 340.157504,21.0584602 339.590069,21.1544301 C339.474737,21.1544301 338.049229,21.9221892 338.049229,21.9221892 C338.049229,21.9221892 339.793054,25.7945743 338.478265,28.6064921 C338.478265,28.6064921 338.976501,23.8367885 337.509473,22.2005019 L335.424265,23.4673045 C335.424265,23.4673045 337.458727,27.4692489 336.079352,30.7322252 C336.079352,30.7322252 336.429963,25.7273954 334.986002,23.7792066 L333.094551,25.3099264 C333.094551,25.3099264 335.004455,29.2494904 333.841905,31.9558413 C333.841905,31.9558413 333.689666,26.1304689 332.683968,25.6890074 C332.683968,25.6890074 331.032409,27.2053317 330.778677,27.829136 C330.778677,27.829136 332.088853,30.7082327 331.276913,32.2005645 C331.276913,32.2005645 330.778677,28.3185824 330.354254,28.304187 C330.354254,28.304187 328.707308,30.8713816 328.536617,32.6228321 C328.616009,30.9929024 329.104293,29.4129971 329.952898,28.0402698 C329.003701,28.2270641 328.127972,28.6991895 327.434039,29.3982437 C327.434039,29.3982437 327.68777,27.5796143 330.358868,27.421264 C330.358868,27.421264 331.719789,25.4730752 332.08424,25.3531128 C332.08424,25.3531128 329.426982,25.1227851 327.816943,25.8665517 C327.816943,25.8665517 329.233224,24.1486907 332.573249,24.9068528 L334.418566,23.3281481 C334.418566,23.3281481 330.92169,22.8482987 329.436209,23.3761331 C329.436209,23.3761331 331.143128,21.8598088 334.921415,22.968261 L336.951265,21.7014585 C336.951265,21.7014585 333.971077,21.0344677 332.190345,21.2743924 C332.190345,21.2743924 334.067956,20.2235221 337.54638,21.3655638 L338.999567,20.6841776 C338.999567,20.6841776 336.812866,20.2379176 336.176231,20.1707387 C335.539597,20.1035598 335.498077,19.9164185 335.498077,19.9164185 C336.882976,19.6767872 338.304668,19.8429407 339.603909,20.3962679 C339.603909,20.3962679 342.699429,19.2254353 342.648683,19.0238985 Z" id="Path" fill="#FF5252"></path>
                <ellipse id="Oval" fill="#FF5252" opacity="0.1" cx="495.5" cy="335" rx="12.5" ry="2"></ellipse>
                <ellipse id="Oval" fill="#FF5252" opacity="0.1" cx="21.5" cy="369" rx="12.5" ry="2"></ellipse>
                <ellipse id="Oval" fill="#FF5252" opacity="0.1" cx="93.5" cy="372" rx="12.5" ry="2"></ellipse>
                <ellipse id="Oval" fill="#FF5252" cx="468.5" cy="357" rx="18.5" ry="3"></ellipse>
                <path d="M476.169755,352.226011 C477.017207,351.561162 477.635365,350.665247 477.942867,349.656187 C478.169124,348.639797 477.716611,347.414803 476.705382,347.041979 C475.569482,346.624771 474.355085,347.383735 473.436206,348.147136 C472.517327,348.910538 471.459924,349.780461 470.254761,349.62068 C471.515544,348.523336 472.083672,346.869891 471.750825,345.266626 C471.698283,344.940077 471.55467,344.633316 471.335252,344.378949 C470.702657,343.730945 469.562139,344.006125 468.804872,344.516539 C466.403782,346.140987 465.734247,349.274486 465.720395,352.097297 C465.480286,351.080908 465.683455,350.020134 465.678837,348.990429 C465.67422,347.960724 465.374084,346.771238 464.459822,346.225316 C463.892448,345.934051 463.255783,345.790238 462.61283,345.808108 C461.532339,345.768163 460.331794,345.870246 459.592997,346.629209 C458.669501,347.574585 458.914228,349.154649 459.713052,350.179916 C460.511876,351.205182 461.721656,351.87094 462.834469,352.58552 C463.730045,353.097298 464.493962,353.796692 465.06933,354.631614 C465.136609,354.74914 465.192262,354.872476 465.235559,355 L472.000169,355 C473.513824,354.260321 474.916407,353.327194 476.169755,352.226011 L476.169755,352.226011 Z" id="Path" fill="#FF5252"></path>
                <path d="M27.1620222,314 C27.1620222,314 29.760199,317.368633 25.9599514,322.44504 C22.1597037,327.521448 19.0267474,331.828418 20.2808764,335 C20.2808764,335 26.0120096,325.550938 30.6925138,325.414879 C35.3730181,325.27882 32.2921199,319.681635 27.1620222,314 Z" id="Path" fill="#FF5252"></path>
                <path d="M27.0867739,314 C27.3148971,314.325349 27.4953005,314.680452 27.6227081,315.054923 C32.2260008,320.352981 34.6759861,325.299397 30.2545283,325.421299 C26.1297484,325.538513 21.162786,332.758875 20,334.582719 C20.040648,334.724093 20.0885603,334.863364 20.1435538,335 C20.1435538,335 25.9383433,325.557267 30.6708344,325.421299 C35.4033255,325.285332 32.2738521,319.67783 27.0867739,314 Z" id="Path" fill="#000000" opacity="0.1"></path>
                <path d="M32,317.790239 C32,319.010915 31.7716535,320 31.496063,320 C31.2204724,320 31,319.035039 31,317.790239 C31,316.54544 31.2755906,317.143716 31.5590551,317.143716 C31.8425197,317.143716 32,316.569564 32,317.790239 Z" id="Path" fill="#FFD037"></path>
                <path d="M33.2795992,319.008047 C32.1113594,319.713554 31.0957274,320.13919 31.0062676,319.95844 C30.9168078,319.777691 31.7956189,319.066353 32.9638587,318.360846 C34.1320986,317.655339 33.6690125,318.168435 33.7584723,318.360846 C33.8479321,318.553257 34.4688885,318.30254 33.2795992,319.008047 Z" id="Path" fill="#FFD037"></path>
                <path d="M13.841572,314 C13.841572,314 11.2428801,317.368633 15.0391477,322.44504 C18.8354153,327.521448 21.9737264,331.828418 20.7193487,335 C20.7193487,335 14.9823457,325.550938 10.3056469,325.414879 C5.6289481,325.27882 8.70572362,319.681635 13.841572,314 Z" id="Path" fill="#FF5252"></path>
                <path d="M13.9148551,314 C13.6845253,314.324132 13.5038857,314.679541 13.378682,315.054923 C8.77333781,320.352981 6.3174734,325.299397 10.745689,325.421299 C14.8675199,325.538513 19.8414831,332.758875 21,334.582719 C20.9609512,334.724021 20.914615,334.863293 20.8611695,335 C20.8611695,335 15.0590103,325.557267 10.3291973,325.421299 C5.59938439,325.285332 8.72067795,319.67783 13.9148551,314 Z" id="Path" fill="#000000" opacity="0.1"></path>
                <path d="M9,317.790239 C9,319.010915 9.22222222,320 9.5,320 C9.77777778,320 10,319.035039 10,317.790239 C10,316.54544 9.72222222,317.143716 9.44444444,317.143716 C9.16666667,317.143716 9,316.569564 9,317.790239 Z" id="Path" fill="#FFD037"></path>
                <path d="M6.70955623,319.008047 C7.88065026,319.713554 8.90403873,320.13919 8.9937171,319.95844 C9.08339547,319.777691 8.20243735,319.066353 7.03134332,318.360846 C5.86024929,317.655339 6.31919155,318.168435 6.23478838,318.360846 C6.1503852,318.553257 5.5384622,318.30254 6.70955623,319.008047 Z" id="Path" fill="#FFD037"></path>
                <path d="M10,333.015524 C10,333.015524 17.2544561,332.788548 19.4459064,331.194892 C21.6373567,329.601236 30.6062449,327.703336 31.1493845,330.22904 C31.6925241,332.754744 42.0499605,342.929997 33.8603596,342.997607 C25.6707588,343.065216 14.8315811,341.688877 12.6495768,340.331854 C10.4675724,338.974832 10,333.015524 10,333.015524 Z" id="Path" fill="#A8A8A8"></path>
                <path d="M34.0075321,342.207496 C25.8144479,342.268293 14.9706601,341.030654 12.7877276,339.810386 C11.124541,338.881072 10.4630463,335.54162 10.2409731,334 L10,334 C10,334 10.4724962,339.38047 12.6412538,340.600738 C14.8100113,341.821006 25.6679741,343.058644 33.8610583,342.997848 C36.2235393,342.997848 37.0409577,342.203154 36.9984331,341.061052 C36.6676857,341.760209 35.7699429,342.194469 34.0075321,342.207496 Z" id="Path" fill="#000000" opacity="0.2"></path>
                <path d="M204.102385,190.815495 C206.795898,190.664499 219.474225,189.712764 227.527234,185.132541 C228.820575,184.373798 230.281574,183.944751 231.780875,183.883389 C234.341319,183.810179 237.287206,184.876305 235.401287,190.842949 C232.345274,200.602805 214.601122,211.584359 203.58846,210.975798 C192.997951,210.390115 180.434339,206.134763 172.138134,191.172396 C171.343253,189.73289 170.951753,188.106509 171.004747,186.464055 C171.101108,183.444127 172.202374,179.660067 177.887661,183.878814 C185.568993,189.575495 200.142415,190.655348 203.065359,190.815495 C203.410786,190.83396 203.756957,190.83396 204.102385,190.815495 L204.102385,190.815495 Z" id="Path" fill="#444053"></path>
                <path d="M306.102385,190.815495 C308.795898,190.664499 321.474225,189.712764 329.527234,185.132541 C330.820575,184.373798 332.281574,183.944751 333.780875,183.883389 C336.341319,183.810179 339.287206,184.876305 337.401287,190.842949 C334.345274,200.602805 316.601122,211.584359 305.58846,210.975798 C294.997951,210.390115 282.434339,206.134763 274.138134,191.172396 C273.343253,189.73289 272.951753,188.106509 273.004747,186.464055 C273.101108,183.444127 274.202374,179.660067 279.887661,183.878814 C287.568993,189.575495 302.142415,190.655348 305.065359,190.815495 C305.410786,190.83396 305.756957,190.83396 306.102385,190.815495 L306.102385,190.815495 Z" id="Path" fill="#444053"></path>
            </g>
        </g>
    </g>
</svg>