<?xml version="1.0" encoding="UTF-8"?>
<svg width="28px" height="28px" viewBox="0 0 28 28" version="1.1" xmlns="http://www.w3.org/2000/svg" xmlns:xlink="http://www.w3.org/1999/xlink">
    <title>Tools/Glyphs/Alerts</title>
    <g id="Symbols" stroke="none" stroke-width="1" fill="none" fill-rule="evenodd">
        <g id="Tools/Header-bar" transform="translate(-1135.000000, -23.000000)" fill="#9E9E9E">
            <g id="Fill-1" transform="translate(1135.000000, 23.000000)">
                <path d="M15.5773243,2.08635885 L15.5773243,1.58652113 C15.5773243,0.70902886 14.8707848,0 14.0001682,0 C13.1306435,0 12.4230121,0.710128086 12.4230121,1.58652113 L12.4230121,2.08635885 C10.6522674,2.35940374 8.12900799,3.27431196 7.10954602,6.32514285 C5.79925319,10.2434602 5.37270873,15.9521065 4.04388023,17.5738874 C2.7292192,19.1791236 1.16833081,19.9267099 0.563541501,20.9318815 C0.112917526,21.6816662 -0.0150402057,22.4688529 0.00136748931,23.7670386 C3.69170246,24.0643087 23.9857436,24.0907183 27.9986326,23.7670386 C28.0150403,22.4689656 27.8870714,21.681779 27.4364585,20.9318815 C26.8316132,19.9266817 25.2708648,19.1790954 23.9561201,17.5738874 C22.6272356,15.9521347 22.2006911,10.2434602 20.8904543,6.32514285 C19.8711043,3.27436833 17.3479542,2.3594742 15.5769883,2.08635885 L15.5773243,2.08635885 Z M18,25 C17.9905016,26.6591093 16.6513643,28 15,28 C13.3486357,28 12.0094552,26.659219 12,25 L18,25 Z"></path>
            </g>
        </g>
    </g>
</svg>