<?xml version="1.0" encoding="UTF-8"?>
<svg width="41px" height="41px" viewBox="0 0 41 41" version="1.1" xmlns="http://www.w3.org/2000/svg" xmlns:xlink="http://www.w3.org/1999/xlink">
    <title>Caution</title>
    <g id="🛠-OnTrack-Tools-screens" stroke="none" stroke-width="1" fill="none" fill-rule="evenodd">
        <g id="Caution" transform="translate(0, 0.001)" fill="#212121" fill-rule="nonzero">
            <path d="M21.2599143,0.673355525 L40.8631671,39.2012134 C41.282107,40.0245771 40.6884688,41 39.7697081,41 L1.23155172,41 C0.319259239,41 -0.274387216,40.0391536 0.128361488,39.2174049 L19.0632651,0.687913778 C19.5113158,-0.222784584 20.7989025,-0.23090103 21.2599143,0.673355525 Z M20.2231449,9.48763195 L7.16631849,36.0565693 L33.7412731,36.0565693 L20.2231449,9.48763195 Z M22.3304905,18.0125256 C22.4776888,18.0125256 22.5909177,18.1403182 22.5763593,18.2859008 L21.7206736,26.3948928 C21.7061182,26.5210663 21.6009753,26.6165049 21.4764239,26.6165049 L19.3849133,26.6165049 C19.2587427,26.6165049 19.1536028,26.5210663 19.1390445,26.3948928 L18.2849737,18.2859008 C18.268795,18.1403141 18.3820252,18.0125256 18.5292235,18.0125256 Z" id="Path-3"></path>
            <path d="M18,30.9997659 C18,32.1067135 18.8938259,33 20,33 C21.1076995,33 22,32.1067135 22,30.9997659 C22,29.8928183 21.1077386,29.0010775 20,29.0010775 C18.8938259,28.9639216 18,29.8928183 18,30.9997659 Z" id="Path"></path>
        </g>
    </g>
</svg>