<?xml version="1.0" encoding="UTF-8"?>
<svg width="567px" height="400px" viewBox="0 0 567 400" version="1.1" xmlns="http://www.w3.org/2000/svg" xmlns:xlink="http://www.w3.org/1999/xlink">
    <title>Group</title>
    <g id="Symbols" stroke="none" stroke-width="1" fill="none" fill-rule="evenodd">
        <g id="Group" transform="translate(0.000000, 0.000000)">
            <rect id="Rectangle" x="0" y="40" width="567" height="318"></rect>
            <text id="Target" font-family="SFProText-Regular, SF Pro Text" font-size="12" font-weight="normal" line-spacing="12.6" fill="#212121">
                <tspan x="14" y="11">Target</tspan>
            </text>
            <text id="Actual" font-family="SFProText-Regular, SF Pro Text" font-size="12" font-weight="normal" line-spacing="12.6" fill="#212121">
                <tspan x="85" y="11">Actual</tspan>
            </text>
            <circle id="Oval-Copy-8" stroke="#9E9E9E" stroke-width="0.5" fill="#FFCDD2" cx="6" cy="7" r="5"></circle>
            <circle id="Oval-Copy-10" stroke="#9E9E9E" stroke-width="0.5" fill="#F62459" cx="75" cy="7" r="5"></circle>
            <circle id="Oval-Copy-9" stroke="#9E9E9E" stroke-width="0.5" fill="#7BEFB2" cx="68" cy="7" r="5"></circle>
            <text id="07-Feb" font-family="SFProText-Regular, SF Pro Text" font-size="12" font-weight="normal" letter-spacing="-0.289411662" fill="#212121">
                <tspan x="289.546946" y="374">07 Feb</tspan>
            </text>
            <line x1="20.0279441" y1="40" x2="20.0279441" y2="358" id="Line-5" stroke="#9E9E9E" stroke-linecap="square" transform="translate(20.027944, 199.000000) rotate(0.000000) translate(-20.027944, -199.000000) "></line>
            <line x1="67.5429142" y1="40" x2="67.5429142" y2="358" id="Line-5-Copy-7" stroke="#9E9E9E" stroke-linecap="square"></line>
            <line x1="116.113772" y1="40" x2="116.113772" y2="358" id="Line-5-Copy-8" stroke="#9E9E9E" stroke-linecap="square" transform="translate(116.113772, 199.000000) rotate(0.000000) translate(-116.113772, -199.000000) "></line>
            <line x1="164.684631" y1="40" x2="164.684631" y2="358" id="Line-5-Copy-9" stroke="#9E9E9E" stroke-linecap="square" transform="translate(164.684631, 199.000000) rotate(-0.000000) translate(-164.684631, -199.000000) "></line>
            <line x1="212.199601" y1="40" x2="212.199601" y2="358" id="Line-5-Copy-10" stroke="#9E9E9E" stroke-linecap="square"></line>
            <line x1="260.770459" y1="40" x2="260.770459" y2="358" id="Line-5-Copy-11" stroke="#9E9E9E" stroke-linecap="square" transform="translate(260.770459, 199.000000) rotate(0.000000) translate(-260.770459, -199.000000) "></line>
            <line x1="356.856287" y1="40" x2="356.856287" y2="358" id="Line-5-Copy-13" stroke="#9E9E9E" stroke-linecap="square" transform="translate(356.856287, 199.000000) rotate(0.000000) translate(-356.856287, -199.000000) "></line>
            <line x1="404.371257" y1="40" x2="404.371257" y2="358" id="Line-5-Copy-14" stroke="#9E9E9E" stroke-linecap="square" transform="translate(404.371257, 199.000000) rotate(0.000000) translate(-404.371257, -199.000000) "></line>
            <polyline id="Path-14" stroke="#BDC3C7" stroke-width="0.75" points="20.8401658 225 67.7459696 220 116.479272 220 163.994242 204 211.509212 204 260.242515 204 307.757485 196.5 356.490788 196.5 404.005758 196.5 451.520728 182 500.25403 182 547.769 174"></polyline>
            <polyline id="Path-13" stroke="#212121" points="20.2309995 213.022949 67.7459696 208.5 116.479272 201 163.994242 213.022949 211.509212 208.5 260.242515 192 308.366651 188 356.490788 208.5 404.005758 184 451.520728 174 500.25403 160 547.769 137.553101"></polyline>
            <circle id="Oval-Copy-12" fill="#7BEFB2" opacity="0.397803762" cx="308.5" cy="188.5" r="12.5"></circle>
            <circle id="Oval-Copy-11" stroke="#9E9E9E" stroke-width="0.5" fill="#FFCDD2" cx="20" cy="225" r="5"></circle>
            <circle id="Oval-Copy-12" stroke="#9E9E9E" stroke-width="0.5" fill="#FFCDD2" cx="67" cy="220" r="5"></circle>
            <circle id="Oval-Copy-13" stroke="#9E9E9E" stroke-width="0.5" fill="#FFCDD2" cx="116" cy="220" r="5"></circle>
            <circle id="Oval-Copy-14" stroke="#9E9E9E" stroke-width="0.5" fill="#FFCDD2" cx="165" cy="204" r="5"></circle>
            <circle id="Oval-Copy-15" stroke="#9E9E9E" stroke-width="0.5" fill="#FFCDD2" cx="212" cy="204" r="5"></circle>
            <circle id="Oval-Copy-16" stroke="#9E9E9E" stroke-width="0.5" fill="#FFCDD2" cx="261" cy="204" r="5"></circle>
            <circle id="Oval-Copy-17" stroke="#9E9E9E" stroke-width="0.5" fill="#FFCDD2" cx="308.5" cy="197" r="5"></circle>
            <circle id="Oval-Copy-18" stroke="#9E9E9E" stroke-width="0.5" fill="#FFCDD2" cx="357" cy="197" r="5"></circle>
            <circle id="Oval-Copy-19" stroke="#9E9E9E" stroke-width="0.5" fill="#FFCDD2" cx="404" cy="197" r="5"></circle>
            <circle id="Oval-Copy-23" stroke="#9E9E9E" stroke-width="0.5" fill="#7BEFB2" cx="20" cy="213" r="5"></circle>
            <circle id="Oval-Copy-24" stroke="#9E9E9E" stroke-width="0.5" fill="#7BEFB2" cx="67" cy="208" r="5"></circle>
            <circle id="Oval-Copy-25" stroke="#9E9E9E" stroke-width="0.5" fill="#7BEFB2" cx="116" cy="200" r="5"></circle>
            <circle id="Oval-Copy-26" stroke="#9E9E9E" stroke-width="0.5" fill="#F62459" cx="165" cy="213" r="5"></circle>
            <circle id="Oval-Copy-27" stroke="#9E9E9E" stroke-width="0.5" fill="#F62459" cx="212" cy="208" r="5"></circle>
            <circle id="Oval-Copy-28" stroke="#9E9E9E" stroke-width="0.5" fill="#7BEFB2" cx="261" cy="192" r="5"></circle>
            <circle id="Oval-Copy-29" stroke="#9E9E9E" stroke-width="0.5" fill="#7BEFB2" cx="308.5" cy="188.5" r="5"></circle>
            <circle id="Oval-Copy-31" stroke="#9E9E9E" stroke-width="0.5" fill="#7BEFB2" cx="404" cy="184" r="5"></circle>
            <circle id="Oval-Copy-30" stroke="#9E9E9E" stroke-width="0.5" fill="#FC396B" cx="357" cy="208" r="5"></circle>
            <line x1="308.285429" y1="40" x2="308.285429" y2="358" id="Line-5-Copy-12" stroke="#FF5252" stroke-width="2" stroke-linecap="square" transform="translate(308.285429, 198.999408) rotate(0.000000) translate(-308.285429, -198.999408) "></line>
            <text id="12W-|-All" font-family="SFProText-Bold, SF Pro Text" font-size="13" font-weight="bold" fill="#212121">
                <tspan x="17" y="397">12W</tspan>
                <tspan x="45.1582031" y="397" font-family="SFProText-Regular, SF Pro Text" font-weight="normal">  |  All</tspan>
            </text>
        </g>
    </g>
</svg>