<?xml version="1.0" encoding="UTF-8"?>
<svg width="28px" height="19px" viewBox="0 0 28 19" version="1.1" xmlns="http://www.w3.org/2000/svg" xmlns:xlink="http://www.w3.org/1999/xlink">
    <title>Tools/Glyphs/Org code inactive</title>
    <g id="Symbols" stroke="none" stroke-width="1" fill="none" fill-rule="evenodd">
        <g id="Tools/Header-bar" transform="translate(-1087.000000, -27.000000)" fill="#9E9E9E" fill-rule="nonzero">
            <g id="Path" transform="translate(1087.000000, 22.000000)">
                <path d="M11.5648268,7.13421993 C11.5648268,6.55355778 11.3392618,6.00795469 10.9295492,5.59599673 C10.1373559,4.80169871 8.66407967,4.80060487 7.8752061,5.59709254 L0.633101796,12.8795601 C0.231007533,13.2838331 -1.58983937e-13,13.8425904 -1.58983937e-13,14.4155956 C-1.58983937e-13,14.9875071 0.231013113,15.5473581 0.633101796,15.9516312 L7.87743779,23.2352206 C8.28497179,23.643869 8.82763446,23.8695652 9.40410719,23.8695652 C9.97837612,23.8695652 10.5199508,23.6438718 10.9307766,23.233033 C11.3393985,22.8232907 11.5649663,22.2765657 11.5649663,21.6969974 C11.5649663,21.1174291 11.3394013,20.5707322 10.9307766,20.1609619 L5.21765705,14.4157639 L10.9299397,8.67168781 C11.3396775,8.26194559 11.5652174,7.7163425 11.5652174,7.13455846 L11.5648268,7.13421993 Z"></path>
                <path d="M27.3678835,12.880334 L20.1238072,5.59707388 C19.3315204,4.80171798 17.8635103,4.79950235 17.0668712,5.59926511 C16.659289,6.00898881 16.4347826,6.55568906 16.4347826,7.13413736 C16.4347826,7.71586704 16.6603743,8.26144546 17.0668712,8.67010341 L22.782898,14.4161634 L17.0668712,20.1622234 C16.659289,20.5719471 16.4347826,21.1186474 16.4347826,21.6970957 C16.4347826,22.275544 16.6592862,22.8222162 17.0690473,23.2352493 C17.4777176,23.6438792 18.0215604,23.8695652 18.5958972,23.8695652 C19.170234,23.8695652 19.7129608,23.643882 20.122747,23.2341555 L27.3668234,15.9520173 C27.7689652,15.5477626 28,14.9879368 28,14.4160512 C28,13.8430719 27.7700477,13.2843399 27.3679114,12.8800852 L27.3678835,12.880334 Z"></path>
            </g>
        </g>
    </g>
</svg>