<?xml version="1.0" encoding="UTF-8"?>
<svg width="49px" height="41px" viewBox="0 0 49 41" version="1.1" xmlns="http://www.w3.org/2000/svg" xmlns:xlink="http://www.w3.org/1999/xlink">
    <title>Consult instructions</title>
    <g id="🛠-OnTrack-Tools-screens" stroke="none" stroke-width="1" fill="none" fill-rule="evenodd">
        <g id="Consult-instructions" transform="translate(0, 0.001)" fill="#212121" fill-rule="nonzero">
            <path d="M19.5383475,37.986306 C20.5932016,37.986306 21.6076582,38.185245 22.5838406,38.6021561 C22.9538915,39.2920685 23.6599823,39.7767518 24.5,39.7767518 C25.3421955,39.7767518 26.0482808,39.2921064 26.4161594,38.6000431 C27.3902185,38.1852396 28.4046206,37.984193 29.4616525,37.984193 C33.9341249,37.984193 39.0448997,41 44.0553885,41 C45.7248618,41 47.3815952,40.6656141 49,39.7746388 L49,1.79044577 C47.3815408,2.68141563 45.7248618,3.01580699 44.0553885,3.01580699 C39.0448453,3.01580699 33.932056,0 29.4616525,0 C27.6922198,0 26.0227465,0.471945837 24.5,1.79044577 C22.9772535,0.471951255 21.3077802,0 19.5383475,0 C15.0658751,0 9.9551003,3.01580699 4.94461148,3.01580699 C3.27513817,3.01580699 1.61840477,2.68142104 0,1.79044577 L0,39.7746388 C1.61845921,40.6656086 3.27513817,41 4.94461148,41 C9.95515474,41 15.0657662,37.984193 19.5383475,37.986306 L19.5383475,37.986306 Z M26.6966554,5.68221509 L27.3835763,5.08960772 C27.9790857,4.57321362 28.563924,4.37217246 29.4635036,4.37217246 C30.9755791,4.37217246 32.9577247,4.97957064 35.0565441,5.62294352 C37.7574605,6.45041586 40.8199945,7.38797945 44.0566952,7.38797945 C44.2417179,7.38797945 44.4246174,7.38586323 44.6075059,7.37951402 L44.6075059,36.6105851 C44.428864,36.623283 44.2459646,36.6296322 44.0566952,36.6296322 C42.1405357,36.6296322 39.9542247,35.9608495 37.6404602,35.2518661 C35.0139688,34.4476365 32.2960114,33.6159382 29.4629591,33.6159382 C28.5016944,33.6159382 27.5808272,33.7217548 26.6982342,33.9185754 L26.6966554,5.68221509 Z M4.39363738,7.37952756 C4.57653682,7.38587677 4.75943627,7.38799299 4.94444815,7.38799299 C8.18131212,7.38799299 11.2436284,6.4504294 13.9445993,5.62295706 C16.0436908,4.97958418 18.0257821,4.37218601 19.5376397,4.37218601 C20.4372193,4.37218601 21.0199888,4.573238 21.617567,5.08962126 L22.3023647,5.68222864 L22.3023647,33.9142433 C21.4197716,33.719541 20.4989045,33.6116061 19.5376397,33.6116061 L19.5355126,33.6116061 C16.7027326,33.6116061 13.9849385,34.4433585 11.3580116,35.247534 C9.04413812,35.9565174 6.85788158,36.6253001 4.94177658,36.6253001 C4.75249628,36.6253001 4.56960228,36.6189509 4.3909658,36.6062525 L4.39363738,7.37952756 Z" id="Shape"></path>
            <path d="M38,13.5 C38,16.8333333 33,16.8333333 33,13.5 C33,10.1666667 38,10.1666667 38,13.5" id="Path"></path>
            <polygon id="Path" points="40.9998864 27.2498155 38.2492902 27.2498155 38.2492902 19 30 19 30 21.7500142 32.7505963 21.7500142 32.7505963 27.2499858 30 27.2499858 30 30 41 30"></polygon>
        </g>
    </g>
</svg>