<?xml version="1.0" encoding="UTF-8"?>
<svg width="20px" height="24px" viewBox="0 0 20 24" version="1.1" xmlns="http://www.w3.org/2000/svg" xmlns:xlink="http://www.w3.org/1999/xlink">
    <title>np_copy_3424353_FF5252</title>
    <g id="Symbols" stroke="none" stroke-width="1" fill="none" fill-rule="evenodd">
        <g id="Tools/Header-bar/Org-code" transform="translate(-1036.000000, -24.000000)" fill="#FF5252" fill-rule="nonzero">
            <g id="np_copy_3424353_FF5252" transform="translate(1036.000000, 24.000000)">
                <path d="M7.80755508,5 L2.625078,5 C1.17571719,5 0,6.1454579 0,7.55777775 L0,21.4422222 C0,22.8544252 1.17559719,24 2.625078,24 L12.374922,24 C13.8242828,24 15,22.8545421 15,21.4422222 L15,12.0080491 L14.7825035,11.7888211 L8.03261148,5.21197893 L7.80755508,5 Z M13.12491,13.0383626 L13.12491,21.4422222 C13.12491,21.6358725 13.0461625,21.8222176 12.9055391,21.9592263 C12.7649158,22.0962445 12.5736724,22.1729731 12.3749316,22.1729731 L2.6250876,22.1729731 C2.21071023,22.1729731 1.8750996,21.8459667 1.8750996,21.4422129 L1.8750996,7.5577684 C1.8750996,7.1540146 2.21071023,6.82700816 2.6250876,6.82700816 L6.7501416,6.82700816 L6.7501416,10.4808093 C6.7501416,11.8930123 7.92573879,13.0385871 9.3752196,13.0385871 L13.12491,13.0383626 Z" id="Shape"></path>
                <path d="M17.3749115,17.1730938 L16.249925,17.1730938 L16.249925,19 L17.3749115,19 C18.8242781,19 20,17.8545386 20,16.4422144 L20,7.00801223 L19.7825026,6.78878349 L13.0325836,0.211921121 L12.8075863,0 L7.6250885,0 C6.17572189,0 5,1.14546143 5,2.55778562 L5,2.92316686 L6.8749775,2.92316686 L6.8749775,2.55778562 C6.8749775,2.15403058 7.21058947,1.82702314 7.6249685,1.82702314 L11.750039,1.82702314 L11.750039,5.48083556 C11.750039,6.89304283 12.9256409,8.03862118 14.3751275,8.03862118 L18.1250825,8.03862118 L18.1250825,16.4425067 C18.1250825,16.6361576 18.0463346,16.8225032 17.9057107,16.9595124 C17.7650868,17.0965309 17.5738427,17.1732598 17.3751011,17.1732598 L17.3749115,17.1730938 Z" id="Path"></path>
            </g>
        </g>
    </g>
</svg>