<?xml version="1.0" encoding="UTF-8"?>
<svg width="25px" height="13px" viewBox="0 0 25 13" version="1.1" xmlns="http://www.w3.org/2000/svg" xmlns:xlink="http://www.w3.org/1999/xlink">
    <title>np_crown_3204405_000000</title>
    <g id="App-Symbols" stroke="none" stroke-width="1" fill="none" fill-rule="evenodd">
        <g id="Tools/Activity/Weekly/Weekday-target/Met-off-+-High" transform="translate(0.000000, -4.000000)" fill="#FFC300" fill-rule="nonzero">
            <g id="np_crown_3204405_000000" transform="translate(0.000000, 4.000000)">
                <path d="M23.2143429,0 C22.2280214,0 21.4286286,0.77597039 21.4286286,1.73334951 C21.4286286,2.05022026 21.5137286,2.34812162 21.67835,2.61356146 L16.2012071,7.92998475 L13.74585,2.97235763 C14.0806714,2.66090175 14.2857429,2.21808834 14.2857429,1.73331484 C14.2857429,0.775935723 13.48635,0 12.5000286,0 C11.5137071,0 10.7143143,0.775935723 10.7143143,1.73331484 C10.7143143,2.21403238 10.9110214,2.65685966 11.2542071,2.97235763 L8.79885,7.92998475 L3.32170714,2.61356146 C3.48632857,2.34814935 3.57142857,2.05023413 3.57142857,1.73334951 C3.57142857,0.77597039 2.77203571,0 1.78571429,0 C0.799392857,0 0,0.77597039 0,1.73334951 C0,2.67311815 0.772892857,3.44094196 1.73689286,3.4626084 L3.98160714,13 L21.0183929,13 L23.2645,3.4626084 C24.2271071,3.44094196 25,2.67315282 25,1.73334951 C25,0.77597039 24.2006071,0 23.2142857,0 L23.2143429,0 Z" id="Path"></path>
            </g>
        </g>
    </g>
</svg>