<?xml version="1.0" encoding="UTF-8"?>
<svg width="28px" height="28px" viewBox="0 0 28 28" version="1.1" xmlns="http://www.w3.org/2000/svg" xmlns:xlink="http://www.w3.org/1999/xlink">
    <title>np_delete_1891208_212121</title>
    <g id="Symbols" stroke="none" stroke-width="1" fill="none" fill-rule="evenodd">
        <g id="Tools/Glyphs/Delete" fill="#212121" fill-rule="nonzero">
            <g id="np_delete_1891208_212121">
                <path d="M19.3939789,10.7578947 C19.6887158,10.4631579 19.6887158,10.0210526 19.3939789,9.72631579 L18.2449768,8.57731368 C17.95024,8.28257684 17.5081347,8.28257684 17.2133979,8.57731368 L14.7081347,11.0825768 C14.2959747,11.4947368 13.6765558,11.4947368 13.2643958,11.0825768 L10.7579832,8.60610947 C10.4632463,8.31137263 10.0211411,8.31137263 9.72640421,8.60610947 L8.57740211,9.75511158 C8.28266526,10.0498484 8.28266526,10.4919537 8.57740211,10.7866905 L11.0826653,13.2919537 C11.4948253,13.7041137 11.4948253,14.3235326 11.0826653,14.7356926 L8.60619789,17.2421053 C8.31146105,17.5368421 8.31146105,17.9789474 8.60619789,18.2736842 L9.7552,19.4226863 C10.0499368,19.7174232 10.4920421,19.7174232 10.7867789,19.4226863 L13.2920421,16.9174232 C13.7042021,16.5052632 14.3236211,16.5052632 14.7357811,16.9174232 L17.2410442,19.4226863 C17.5357811,19.7174232 17.9778863,19.7174232 18.2726232,19.4226863 L19.4216253,18.2736842 C19.7163621,17.9789474 19.7163621,17.5368421 19.4216253,17.2421053 L16.9163621,14.7368421 C16.5042021,14.3246821 16.5042021,13.7052632 16.9163621,13.2931032 L19.3939789,10.7578947 Z" id="Path"></path>
                <path d="M14,0 C6.27818947,0 0,6.27818947 0,14 C0,21.7218105 6.27818947,28 14,28 C21.7218105,28 28,21.7218105 28,14 C28,6.27818947 21.7218105,0 14,0 Z M14,24.9353263 C7.95789474,24.9353263 3.06467368,20.0421053 3.06467368,14 C3.06467368,7.95789474 7.95789474,3.06467368 14,3.06467368 C20.0421053,3.06467368 24.9353263,7.95789474 24.9353263,14 C24.9353263,20.0421053 20.0421053,24.9353263 14,24.9353263 Z" id="Shape"></path>
            </g>
        </g>
    </g>
</svg>