<?xml version="1.0" encoding="UTF-8"?>
<svg width="15px" height="15px" viewBox="0 0 15 15" version="1.1" xmlns="http://www.w3.org/2000/svg" xmlns:xlink="http://www.w3.org/1999/xlink">
    <title>np_check_926053_2FD5A2</title>
    <g id="Symbols" stroke="none" stroke-width="1" fill="none" fill-rule="evenodd">
        <g id="Tools/Focus/Completed-card" transform="translate(-231.000000, -20.000000)" fill="#7BEFB2" fill-rule="nonzero">
            <g id="np_check_926053_2FD5A2" transform="translate(231.000000, 20.000000)">
                <path d="M7.5,0 C3.358,0 0,3.358 0,7.5 C0,11.642 3.358,15 7.5,15 C11.642,15 15,11.642 15,7.5 C15,3.358 11.642,0 7.5,0 Z M11.7578333,5.58716667 L6.54883333,10.7961667 C6.49154167,10.8534583 6.41667167,10.8821033 6.3418,10.8821033 C6.26628,10.8821033 6.19141,10.8528067 6.13411667,10.7961667 L3.24211667,7.90483333 C3.12753333,7.79025 3.12753333,7.6047 3.24211667,7.48946667 L4.21021667,6.52136667 C4.3248,6.40678333 4.511,6.40678333 4.62493333,6.52136667 L6.3411,8.23753333 L10.3749333,4.2037 C10.4895167,4.088465 10.6750667,4.088465 10.78965,4.2037 L11.75775,5.1718 C11.8130883,5.22648667 11.8436867,5.30135667 11.8436867,5.37948333 C11.8436867,5.45695667 11.8130883,5.53182667 11.75775,5.58716667 L11.7578333,5.58716667 Z" id="Shape"></path>
            </g>
        </g>
    </g>
</svg>