<?xml version="1.0" encoding="UTF-8"?>
<svg width="21px" height="21px" viewBox="0 0 21 21" version="1.1" xmlns="http://www.w3.org/2000/svg" xmlns:xlink="http://www.w3.org/1999/xlink">
    <title>np_check_926053_2FD5A2 2</title>
    <g id="Symbols" stroke="none" stroke-width="1" fill="none" fill-rule="evenodd">
        <g id="Tools/Activity/Weekly/Weekday-target/Not-Met" transform="translate(-2.000000, -2.000000)" fill="#BDC3C7" fill-rule="nonzero">
            <g id="np_check_926053_2FD5A2" transform="translate(2.000000, 2.000000)">
                <path d="M10.5,0 C4.7012,0 0,4.7012 0,10.5 C0,16.2988 4.7012,21 10.5,21 C16.2988,21 21,16.2988 21,10.5 C21,4.7012 16.2988,0 10.5,0 Z M16.4609667,7.82203333 L9.16836667,15.1146333 C9.08815833,15.1948417 8.98334033,15.2349447 8.87852,15.2349447 C8.772792,15.2349447 8.667974,15.1939293 8.58776333,15.1146333 L4.53896333,11.0667667 C4.37854667,10.90635 4.37854667,10.64658 4.53896333,10.4852533 L5.89430333,9.12991333 C6.05472,8.96949667 6.3154,8.96949667 6.47490667,9.12991333 L8.87754,11.5325467 L14.5249067,5.88518 C14.6853233,5.723851 14.9450933,5.723851 15.10551,5.88518 L16.46085,7.24052 C16.5383237,7.31708133 16.5811613,7.42189933 16.5811613,7.53127667 C16.5811613,7.63973933 16.5383237,7.74455733 16.46085,7.82203333 L16.4609667,7.82203333 Z" id="Shape"></path>
            </g>
        </g>
    </g>
</svg>