<?xml version="1.0" encoding="UTF-8"?>
<svg width="28px" height="28px" viewBox="0 0 28 28" version="1.1" xmlns="http://www.w3.org/2000/svg" xmlns:xlink="http://www.w3.org/1999/xlink">
    <title>Path</title>
    <g id="Symbols" stroke="none" stroke-width="1" fill="none" fill-rule="evenodd">
        <g id="Tools/Glyphs/Home-Active" fill="#FF5252" fill-rule="nonzero">
            <path d="M15.2580692,0.517689947 C14.5698707,-0.172563316 13.433003,-0.172563316 12.7460009,0.517689947 L0.541902805,12.5179205 C-0.175489145,13.2081738 -0.175489145,14.3484357 0.511524917,15.0679695 C1.19972347,15.7875033 2.3365911,15.7875033 3.05398305,15.0984381 L3.11357228,15.038671 L3.70292494,27.3695079 C3.8524813,27.7597554 4.21117727,28 4.65984635,28 L23.3126136,28 C23.7308928,28 24.1199786,27.7597614 24.269535,27.3695079 L24.8588876,15.038671 L24.9184769,15.0984381 C25.2771728,15.4289245 25.7258419,15.6082079 26.174511,15.6082079 C26.6535699,15.6082079 27.102239,15.4277364 27.460935,15.0679575 C28.1794935,14.3484237 28.1794935,13.2081618 27.4621033,12.5179085 L15.2580692,0.517689947 Z" id="Path"></path>
        </g>
    </g>
</svg>