<?xml version="1.0" encoding="UTF-8"?>
<svg width="739px" height="564px" viewBox="0 0 739 564" version="1.1" xmlns="http://www.w3.org/2000/svg" xmlns:xlink="http://www.w3.org/1999/xlink">
    <title>undraw_walking_outside_5ueb</title>
    <g id="OnTrack-Tools-screens" stroke="none" stroke-width="1" fill="none" fill-rule="evenodd">
        <g id="Log-in-/-start" transform="translate(-525.000000, -400.000000)" fill-rule="nonzero">
            <g id="undraw_walking_outside_5ueb" transform="translate(525.000000, 400.000000)">
                <path d="M739,329.843658 C738.982328,296.616794 718.859678,266.694648 688.06675,254.106511 C657.273822,241.518373 621.916132,248.760176 598.571478,272.43653 C575.226824,296.112884 568.523904,331.529322 581.605447,362.080503 C581.525261,361.991466 581.442413,361.904847 581.362626,361.815469 C585.004779,370.292484 590.053873,378.094666 596.297076,384.893129 C596.315725,384.913613 596.334873,384.93359 596.353555,384.954082 C596.857296,385.502308 597.363923,386.047709 597.882245,386.582063 C613.018172,402.346998 633.848723,411.398137 655.717073,411.712032 L652.946258,562 L661.506581,562 L659.774066,462.808171 L672.15693,456.297914 L670.267944,452.714917 L659.694878,458.273595 L658.881473,411.704498 C703.423217,410.684842 739,374.335018 739,329.843658 Z" id="Path" fill="#BDC3C7"></path>
                <path d="M495,290.179339 C494.979318,251.132481 471.421092,215.96919 435.37083,201.176122 C399.320567,186.383055 357.926192,194.89333 330.595865,222.716822 C303.265539,250.540315 295.418227,292.160275 310.733219,328.062774 C310.63932,327.958148 310.542362,327.856353 310.448937,327.751318 C314.71292,337.713161 320.624056,346.881968 327.933171,354.871244 C327.955001,354.895324 327.97742,354.918797 327.999291,354.942877 C328.589037,355.587162 329.182156,356.228065 329.788978,356.856015 C347.509084,375.382321 371.896067,386.018848 397.498035,386.387722 L394.254165,563 L404.276,563 L402.247684,446.433823 L416.744734,438.783203 L414.533232,434.572606 L402.155023,441.104969 L401.202735,386.378877 C453.349162,385.180599 495,342.463763 495,290.179339 L495,290.179339 Z" id="Path" fill="#BDC3C7"></path>
                <path d="M219,252.21173 C218.976383,207.873976 192.105278,167.94603 150.985461,151.148491 C109.865643,134.350953 62.6502034,144.014378 31.4765539,175.607978 C0.302904453,207.201578 -8.64795447,254.461086 8.82067311,295.228428 C8.71359569,295.109626 8.60297013,294.994048 8.49641744,294.874764 C13.3600075,306.186452 20.1023853,316.597648 28.4393365,325.669483 C28.4642318,325.696819 28.4898018,325.723507 28.5147555,325.750818 C29.1874292,326.482406 29.8639592,327.210155 30.5561144,327.923192 C50.7681143,348.959838 78.584515,361.037631 107.786759,361.456495 L104.086758,562 L115.517914,562 L113.204397,429.638939 L129.740029,420.95167 L127.217537,416.170527 L113.098635,423.588032 L112.012436,361.446463 C171.491983,360.085859 219,311.580805 219,252.21173 Z" id="Path" fill="#BDC3C7"></path>
                <circle id="Oval" fill="#FFCDD2" cx="629.5" cy="71.5" r="71.5"></circle>
                <circle id="Oval" fill="#FF5252" cx="204.5" cy="156.5" r="143.5"></circle>
                <path d="M98.3010164,60 C70.7027327,124.674126 93.9553759,199.855236 153.220193,237.566253 C212.485011,275.277269 290.296925,264.404923 337,211.887438 C314.694725,264.165114 263.689292,298.324756 206.942741,298.99011 C150.19619,299.655463 98.4066872,266.701092 74.8862038,214.960723 C51.3657204,163.220354 60.5484653,102.448363 98.3010164,60 Z" id="Path" fill="#000000" opacity="0.2"></path>
                <polygon id="Path" fill="#3F3D56" points="204.499583 156 204.894825 156 212 562 197 562"></polygon>
                <polygon id="Rectangle" fill="#3F3D56" transform="translate(217.356311, 380.529489) rotate(62.234130) translate(-217.356311, -380.529489) " points="213.814207 367.136903 220.903043 367.135678 220.898414 393.922074 213.809579 393.9233"></polygon>
                <path d="M424,559 C424,559 424.511625,547.803861 435,549.105258" id="Path" fill="#3F3D56"></path>
                <circle id="Oval" fill="#FF5252" cx="420.5" cy="543.5" r="5.5"></circle>
                <rect id="Rectangle" fill="#3F3D56" x="420" y="552" width="1" height="10"></rect>
                <path d="M56,557 C56,557 56.511625,545.803853 67,547.105259" id="Path" fill="#3F3D56"></path>
                <circle id="Oval" fill="#FF5252" cx="52.5" cy="541.5" r="5.5"></circle>
                <rect id="Rectangle" fill="#3F3D56" x="52" y="551" width="1" height="10"></rect>
                <path d="M143,558 C143,558 143.511633,546.803853 154,548.105259" id="Path" fill="#3F3D56"></path>
                <circle id="Oval" fill="#FF5252" cx="139.5" cy="542.5" r="5.5"></circle>
                <rect id="Rectangle" fill="#3F3D56" x="139" y="551" width="1" height="10"></rect>
                <path d="M374.175279,69.7138054 L385,61.120347 C376.590758,60.1994663 373.13556,64.7516542 371.721484,68.3547461 C365.151842,65.6470318 358,69.1956327 358,69.1956327 L379.658257,77 C378.565636,74.1032647 376.663642,71.5757527 374.175279,69.7138054 L374.175279,69.7138054 Z" id="Path" fill="#3F3D56"></path>
                <path d="M536.175284,155.713805 L547,147.120347 C538.590755,146.199466 535.135556,150.751654 533.72148,154.354746 C527.151835,151.647032 520,155.195624 520,155.195624 L541.658264,163 C540.565636,160.103268 538.663643,157.575757 536.175284,155.713805 L536.175284,155.713805 Z" id="Path" fill="#3F3D56"></path>
                <path d="M361.175284,229.713805 L372,221.120347 C363.590755,220.199466 360.135556,224.751654 358.72148,228.354746 C352.151835,225.647032 345,229.195633 345,229.195633 L366.658264,237 C365.565636,234.103268 363.663643,231.575757 361.175284,229.713805 Z" id="Path" fill="#3F3D56"></path>
                <path d="M299,514.368419 C299,514.368419 307.324321,538.644739 303.756753,547.526316 L314.459459,557 L321,548.710522 C321,548.710522 313.864863,541.605265 314.459459,536.276312 C315.054055,530.947359 315.648643,512 315.648643,512 L299,514.368419 Z" id="Path" fill="#FFB9B9"></path>
                <path d="M338.611941,561.194602 C338.121503,561.480634 337.65371,561.751592 337.22364,562 L299.989076,562 C299.282524,561.596582 298.898461,560.800326 299.023337,559.997791 C299.19682,559.109612 299.641984,557.303156 300.192806,555.2257 C301.498069,550.310554 303.414488,543.874976 303.829498,544.559912 C303.831511,544.559868 303.833455,544.560647 303.83488,544.562067 C303.836304,544.563488 303.837084,544.565428 303.83704,544.567436 C304.418016,545.636309 305.617698,550.423467 308.62059,549.828804 C311.623491,549.226649 316.422143,548.029888 316.422143,548.029888 C316.422143,548.029888 314.709412,544.191091 316.346665,542.6405 C316.69877,542.313934 317.144794,542.105939 317.621774,542.045878 C321.220753,541.451265 321.220753,546.833036 321.220753,546.833036 L334.41696,554.013823 C335.554463,554.327945 336.664677,554.733207 337.736773,555.225658 C340.41521,556.475158 343.063517,558.612846 338.611941,561.194602 Z" id="Path" fill="#2F2E41"></path>
                <path d="M274.799985,505 L259.199999,523.370368 L255,532.851849 L260.400001,537 L265.199993,535.222226 C265.199993,535.222226 269.399992,524.555556 273.599991,522.777782 C277.79999,521 288,509.148151 288,509.148151 L274.799985,505 Z" id="Path" fill="#FFB9B9"></path>
                <path d="M308,491.129354 L300.144056,505.704126 L294.515745,516.140101 C292.714707,517.21334 290.315254,517.195538 287.732139,516.561075 C286.528462,516.252758 285.348432,515.858423 284.201136,515.381107 C277.150932,512.493428 270,506.759596 270,506.759596 L283.531697,489.836719 L287.951375,484.316335 L289.00005,483 L294.0537,485.164256 L302.970121,488.976936 L308,491.129354 Z" id="Path" fill="#2F2E41"></path>
                <path d="M272.326698,364.111691 L266,390.066537 L272.512264,423.364989 C272.512264,423.364989 272.67268,436.977031 278.640411,435.944047 C284.608142,434.911062 278.354067,421.1827 278.354067,421.1827 L275.435006,393.879734 L284.767907,366.905775 C285.488984,364.629676 284.484947,362.162919 282.379401,361.037599 L282.379401,361.037599 C278.684086,358.780409 273.432611,360.386314 272.326698,364.111691 Z" id="Path" fill="#FFB9B9"></path>
                <path d="M294,342.754435 L288.807694,359 L279,353.778212 C279,353.778212 283.038464,342.174202 283.038464,340.433633 C283.038464,338.693064 294,342.754435 294,342.754435 Z" id="Path" fill="#FFB9B9"></path>
                <circle id="Oval" fill="#FFB9B9" cx="290.5" cy="336.5" r="12.5"></circle>
                <path d="M293.914479,362.640954 L291.535335,360.265117 L290.940539,357.295311 C290.940539,357.295311 283.208211,347.197994 276.665467,350.761754 C274.620857,351.875427 273.099016,354.439202 271.972891,357.438001 C269.104772,365.275791 269.372341,373.915949 272.71996,381.561789 L283.208211,406 L307,403.624163 L302.836442,388.181212 C302.836442,388.181212 307,378.677857 299.267672,372.1443 L293.914479,362.640954 Z" id="Path" fill="#FF5252"></path>
                <path d="M307,491.129354 L299.267658,505.704126 L293.727902,516.140101 C291.955201,517.21334 289.5935,517.195538 287.051027,516.561075 C286.607851,513.560736 289.255286,497.705208 287.173495,484.778861 L287.266781,484.316335 L288.298956,483 L293.273094,485.164256 L302.049227,488.976936 L307,491.129354 Z" id="Path" fill="#000000" opacity="0.3"></path>
                <path d="M307.896919,402.619661 C307.896919,402.619661 292.411461,393.061495 281.690756,405.009201 L282.286352,408.593514 C282.286352,408.593514 273.352411,418.749068 278.712784,440.25494 C284.073157,461.760813 292.411461,517.915038 292.411461,517.915038 C292.411461,517.915038 312.066083,519.109812 321,512.538572 C321,512.538572 318.022019,438.462754 307.896919,431.294161 L307.896919,402.619661 Z" id="Path" fill="#212121"></path>
                <path d="M274.986824,369.21032 L291.736452,389.712924 L322.011689,404.485763 C322.011689,404.485763 332.885288,412.496627 335.651772,407.175286 C338.418256,401.853945 323.79259,398.576628 323.79259,398.576628 L300.422396,384.555699 L284.671464,361.074339 C283.302478,359.14534 280.746416,358.462098 278.590823,359.448967 L278.590823,359.448967 C274.584185,361.012309 272.701509,366.111574 274.986824,369.21032 Z" id="Path" fill="#FFB9B9"></path>
                <path d="M263.676565,533.71528 C263.676565,533.71528 267.281331,529.18023 269.434705,532.037637 C271.58808,534.895044 266.895339,537.343775 266.895339,537.343775 L266.622217,552.083546 C266.622217,552.083546 269.183019,563.354005 262.269187,558.999582 C255.355356,554.645159 255.083368,554.123577 253.723404,551.515669 C252.36344,548.90776 249.553211,538.430966 247.127849,535.051969 C244.702486,531.672972 242.481388,524.869833 245.360458,524.031008 C248.239528,523.192182 261.659509,520.205727 260.990931,521.200541 C260.322353,522.195355 256.695026,525.415142 258.576405,527.750967 C260.457784,530.086793 263.676565,533.71528 263.676565,533.71528 Z" id="Path" fill="#2F2E41"></path>
                <path d="M296.998828,325.538387 C296.998828,325.522924 297,325.507723 297,325.492261 C297,318.41751 292.736329,312.039384 286.197122,309.331992 C279.657915,306.624601 272.130961,308.12112 267.126068,313.123724 C262.121175,318.126328 260.623972,325.649839 263.332602,332.186056 C266.041232,338.722272 272.422277,342.983996 279.500264,342.983993 C279.906807,342.983993 281.514406,346.027094 281.914019,346 C281.937995,336.766785 287.913384,326.158337 296.998828,325.538387 Z" id="Path" fill="#2F2E41"></path>
                <circle id="Oval" fill="#2F2E41" cx="261.5" cy="312.5" r="11.5"></circle>
                <path d="M260,295.473545 C265.825519,295.437476 270.786634,299.633807 271.626835,305.308039 C272.467036,310.982272 268.92919,316.39787 263.335563,318 C267.910421,317.992702 272.060018,315.357821 273.95288,311.258294 C275.845741,307.158767 275.133543,302.34899 272.130621,298.951815 C269.127699,295.554641 264.386653,294.195218 260,295.473545 L260,295.473545 Z" id="Path" fill="#2F2E41"></path>
                <path d="M287,322 L293.071444,322 C299.107119,322 304,326.924868 304,333 L304,333 L287,333 L287,322 Z" id="Path" fill="#2F2E41"></path>
                <path d="M569,563 C569,563 569.511633,551.803861 580,553.105258" id="Path" fill="#3F3D56"></path>
                <path d="M469,563 C469,563 469.511625,551.803861 480,553.105258" id="Path" fill="#3F3D56"></path>
                <path d="M106,563 C106,563 106.511625,551.803861 117,553.105258" id="Path" fill="#3F3D56"></path>
                <path d="M614,563 C614,563 614.511633,551.803861 625,553.105258" id="Path" fill="#3F3D56"></path>
                <path d="M593,563 C593,563 593.511625,551.803861 604,553.105258" id="Path" fill="#3F3D56"></path>
                <path d="M550,563 C550,563 549.488375,551.803861 539,553.105258" id="Path" fill="#3F3D56"></path>
                <path d="M377,563 C377,563 376.488367,551.803861 366,553.105258" id="Path" fill="#3F3D56"></path>
                <path d="M234,563 C234,563 233.488375,551.803861 223,553.105258" id="Path" fill="#3F3D56"></path>
                <path d="M82,563 C82,563 81.4883667,551.803861 71,553.105258" id="Path" fill="#3F3D56"></path>
                <path d="M659,563 C659,563 658.488375,551.803861 648,553.105258" id="Path" fill="#3F3D56"></path>
                <path d="M595,564 C595,564 594.488375,552.80386 584,554.105258" id="Path" fill="#3F3D56"></path>
                <rect id="Rectangle" fill="#3F3D56" x="0" y="561" width="739" height="2"></rect>
            </g>
        </g>
    </g>
</svg>