<?xml version="1.0" encoding="UTF-8"?>
<svg width="782px" height="431px" viewBox="0 0 782 431" version="1.1" xmlns="http://www.w3.org/2000/svg" xmlns:xlink="http://www.w3.org/1999/xlink">
    <title>undraw_work_together_h63l</title>
    <g id="OnTrack-Tools-screens" stroke="none" stroke-width="1" fill="none" fill-rule="evenodd">
        <g id="Forgot-password-/-start" transform="translate(-525.000000, -294.000000)" fill-rule="nonzero">
            <g id="undraw_work_together_h63l" transform="translate(525.000000, 294.000000)">
                <rect id="Rectangle" fill="#E6E6E6" x="161" y="0.303030303" width="618" height="396"></rect>
                <rect id="Rectangle" fill="#FFFFFF" x="216" y="53.3030303" width="223" height="229"></rect>
                <rect id="Rectangle" fill="#FFFFFF" x="522" y="57.3030303" width="223" height="279"></rect>
                <ellipse id="Oval" fill="#E6E6E6" cx="742" cy="419.80303" rx="40" ry="5.5"></ellipse>
                <ellipse id="Oval" fill="#E6E6E6" cx="343" cy="419.80303" rx="40" ry="5.5"></ellipse>
                <ellipse id="Oval" fill="#E6E6E6" cx="92" cy="413.80303" rx="92" ry="4.5"></ellipse>
                <rect id="Rectangle" fill="#FF5252" x="161" y="0.303030303" width="618" height="26"></rect>
                <circle id="Oval" fill="#E6E6E6" cx="180" cy="13.3030303" r="5"></circle>
                <circle id="Oval" fill="#E6E6E6" cx="199" cy="13.3030303" r="5"></circle>
                <circle id="Oval" fill="#E6E6E6" cx="217" cy="13.3030303" r="5"></circle>
                <path d="M696,132.761824 L694.644628,132.761824 L694.644628,95.7338455 C694.644635,90.0500317 692.380529,84.5990106 688.350391,80.5799506 C684.320252,76.5608906 678.854211,74.3030303 673.154739,74.3030303 L594.489889,74.3030303 C588.790417,74.3030303 583.324376,76.5608906 579.294237,80.5799506 C575.264099,84.5990106 573,90.0500317 573,95.7338455 L573,298.872215 C573,304.556029 575.264099,310.00705 579.294237,314.02611 C583.324376,318.04517 588.790417,320.30303 594.489889,320.30303 L673.154739,320.30303 C678.854211,320.30303 684.320252,318.04517 688.350391,314.02611 C692.380529,310.00705 694.644635,304.556029 694.644628,298.872215 L694.644628,159.118964 L696,159.118964 L696,132.761824 Z" id="Path" fill="#3F3D56"></path>
                <path d="M672.9719,79.3030303 L662.716512,79.3030303 C663.674233,81.6490836 663.400283,84.3175545 661.985821,86.4204853 C660.571359,88.5234161 658.201994,89.7848542 655.666155,89.7850447 L610.657007,89.7850447 C608.121174,89.7848396 605.751821,88.5233973 604.337365,86.4204702 C602.922909,84.3175432 602.648957,81.6490808 603.606668,79.3030303 L594.028091,79.3030303 C589.777182,79.3030303 585.700377,80.9902658 582.694526,83.9935771 C579.688676,86.9968885 578,91.0702554 578,95.3175838 L578,298.288459 C578,302.535791 579.68867,306.609162 582.69452,309.612477 C585.700371,312.615792 589.777178,314.30303 594.028091,314.30303 L672.9719,314.30303 C677.222814,314.30303 681.299622,312.615793 684.305474,309.612478 C687.311326,306.609163 689,302.535791 689,298.288459 L689,95.3175838 C689,86.472979 681.823962,79.3030303 672.9719,79.3030303 L672.9719,79.3030303 Z" id="Path" fill="#FFFFFF"></path>
                <rect id="Rectangle" fill="#E6E6E6" x="250" y="198.30303" width="155" height="7"></rect>
                <rect id="Rectangle" fill="#FF5252" x="250" y="221.30303" width="155" height="7"></rect>
                <rect id="Rectangle" fill="#E6E6E6" x="250" y="244.30303" width="155" height="7"></rect>
                <rect id="Rectangle" fill="#E6E6E6" x="589" y="214.30303" width="91" height="7"></rect>
                <rect id="Rectangle" fill="#E6E6E6" x="589" y="236.30303" width="91" height="7"></rect>
                <rect id="Rectangle" fill="#E6E6E6" x="589" y="258.30303" width="91" height="7"></rect>
                <polygon id="Rectangle" fill="#3F3D56" transform="translate(682.500000, 359.803030) rotate(90.000000) translate(-682.500000, -359.803030) " points="675 352.30303 690 352.30303 690 367.30303 675 367.30303"></polygon>
                <polygon id="Rectangle" fill="#FF5252" transform="translate(657.500000, 359.803030) rotate(90.000000) translate(-657.500000, -359.803030) " points="650 352.30303 665 352.30303 665 367.30303 650 367.30303"></polygon>
                <polygon id="Rectangle" fill="#3F3D56" transform="translate(633.500000, 359.803030) rotate(90.000000) translate(-633.500000, -359.803030) " points="626 352.30303 641 352.30303 641 367.30303 626 367.30303"></polygon>
                <polygon id="Rectangle" fill="#3F3D56" transform="translate(609.500000, 359.803030) rotate(90.000000) translate(-609.500000, -359.803030) " points="602 352.30303 617 352.30303 617 367.30303 602 367.30303"></polygon>
                <polygon id="Rectangle" fill="#3F3D56" transform="translate(584.500000, 359.803030) rotate(90.000000) translate(-584.500000, -359.803030) " points="577 352.30303 592 352.30303 592 367.30303 577 367.30303"></polygon>
                <rect id="Rectangle" fill="#FF5252" x="609" y="122.30303" width="50" height="50"></rect>
                <path d="M307.118815,242.012706 L306.495048,243.30303 L304.623763,233.625618 C304.623763,233.625618 302.128711,223.30303 307.118815,223.30303 C312.108918,223.30303 310.861384,233.625618 310.861384,233.625618 L310.861384,240.722399 L307.118815,242.012706 Z" id="Path" fill="#A0616A"></path>
                <path d="M392.881188,241.012706 L393.504946,242.30303 L395.376238,232.625618 C395.376238,232.625618 397.871287,222.30303 392.881188,222.30303 C387.891089,222.30303 389.138614,232.625618 389.138614,232.625618 L389.138614,239.722407 L392.881188,241.012706 Z" id="Path" fill="#A0616A"></path>
                <polygon id="Path" fill="#2F2E41" points="335.799474 315.30303 328 363.477586 331.899298 410.349485 340.999415 406.444153 339.699649 371.28913 348.799766 343.295641 350.749415 376.497119 346.850117 411.000374 358.549766 412.30303 367 341.342975 366.350117 317.255697"></polygon>
                <path d="M336.384963,404.95475 L332,412.124006 L332,428.143305 C332,429.096386 332.664733,429.908631 333.569029,430.060783 C335.71826,430.427676 339.460542,430.688355 340.769935,428.4178 C342.649203,425.15905 341.396355,417.989786 341.396355,417.989786 C341.396355,417.989786 343.90205,412.775787 342.649203,408.865282 C341.396355,404.954777 340.143507,404.30303 340.143507,404.30303 L336.384963,404.95475 Z" id="Path" fill="#2F2E41"></path>
                <path d="M355.649405,410.966165 L356.924306,412.955551 C356.924306,412.955551 358.836653,414.944946 357.561752,416.271206 C356.626072,417.30201 355.773277,418.410947 355.01195,419.586853 C355.01195,419.586853 348,421.576239 348,418.923718 L348,410.30303 L355.649405,410.966165 Z" id="Path" fill="#2F2E41"></path>
                <circle id="Oval" fill="#A0616A" cx="353.5" cy="253.80303" r="8.5"></circle>
                <polygon id="Path" fill="#A0616A" points="346.666567 256.30303 346 268.653162 358 269.30303 357.333433 256.952899"></polygon>
                <path d="M360.369227,269.308243 L358.535007,264.784334 C358.535007,264.784334 350.030762,261.479975 347.446155,264.741749 L346.153847,268.655883 L335.815382,266.04646 L330,279.093574 L335.169232,316.277835 C335.169232,316.277835 348.738454,333.891435 366.830768,316.930187 L372,281.702997 L368.123119,268.003532 L360.369227,269.308243 Z" id="Path" fill="#575A89"></path>
                <polygon id="Path" fill="#575A89" points="367 271.058545 368.282681 268.468083 381.112083 260.69757 388.941455 237.30303 395 239.924071 388.167692 267.820686 369.565361 285.30303"></polygon>
                <polygon id="Path" fill="#575A89" points="337 267.855229 335.680214 266.542035 321.819786 258.004496 311.919608 238.30303 304 240.92942 312.579501 265.227954 333.700534 282.30303"></polygon>
                <path d="M359.803714,240.742127 L361.242045,240.023423 L359.084554,239.304727 L359.084554,238.585996 C359.084554,238.585996 348.297098,234.273807 346.858777,241.460786 C343.047074,246.579445 343.047074,253.590886 346.858777,258.709545 L346.858777,260.865631 L358.365393,262.30303 L359.803714,257.990841 C359.803714,257.990841 366.995357,245.054317 359.803714,240.742127 Z" id="Path" fill="#2F2E41"></path>
                <path d="M101.090765,316.30303 L98.5971321,317.548419 C98.5971321,317.548419 88.6226014,322.114836 91.5318366,324.605613 C94.4410718,327.096389 102.337581,322.114836 102.337581,322.114836 L104,320.039186 L101.090765,316.30303 Z" id="Path" fill="#FFB8B8"></path>
                <polygon id="Path" fill="#2F2E41" points="175 315.30303 167.16201 367.103686 155.327765 403.30303 148.988815 400.390681 154.90505 350.876364 138 336.729041 139.268145 315.92467"></polygon>
                <path d="M147.601968,402.556062 C147.601968,402.556062 154.589001,398.83951 155,404.20786 L154.177994,409.576209 C154.177994,409.576209 156.644004,419.074066 148.423975,417.009313 C140.203945,414.944559 145.957964,408.750315 145.957964,408.750315 L147.601968,402.556062 Z" id="Path" fill="#2F2E41"></path>
                <path d="M143.465908,332.30303 L138,336.930692 C138,336.930692 138,365.538083 141.784083,369.74505 C145.568167,373.952017 169.534083,395.407565 170.374996,396.248953 C171.215908,397.090341 175,387.835018 175,387.835018 L152.295447,361.331115 L153.977272,344.923932 L143.465908,332.30303 Z" id="Path" fill="#2F2E41"></path>
                <path d="M171.915813,386.45859 C171.915813,386.45859 178.877254,385.209795 178.877254,389.788702 C178.963904,393.408666 179.254383,397.021533 179.747429,400.611589 C179.747429,400.611589 181.487796,415.180849 175.831616,413.099522 C170.175436,411.018196 168,396.448944 168,396.448944 C168.526223,395.237985 169.440191,394.217824 170.610542,393.535085 C172.3509,392.702561 171.915813,386.45859 171.915813,386.45859 Z" id="Path" fill="#2F2E41"></path>
                <polygon id="Path" fill="#FFB8B8" points="150.78101 253.30303 152 268.538867 148.750213 274.30303 139.81266 265.655921 139 254.126729"></polygon>
                <circle id="Oval" fill="#FFB8B8" cx="144" cy="248.30303" r="10"></circle>
                <polygon id="Path" fill="#D0CDE1" points="147.527444 268.458677 151.703258 256.30303 159.219549 264.686295 173 317.919765 162.560025 324.207654 157.967419 317.500514 157.13208 326.30303 136.669799 322.111398 135 265.943169 139.173182 260.042823"></polygon>
                <polygon id="Path" fill="#2F2E41" points="142 328.30303 139.488761 260.30303 134.046716 264.50055 124 271.216229 130.698104 295.142711 132.790657 320.327831"></polygon>
                <polygon id="Path" fill="#2F2E41" points="127.346165 271.719114 124.384068 271.30303 115.922712 295.846737 99 316.647436 105.346462 323.30303 124.807225 304.582751 132 289.191142"></polygon>
                <path d="M172.486395,316.30303 L171.900783,319.099435 C171.900783,319.099435 169.221496,330.021145 173.104555,329.265559 C176.987614,328.509972 178,318.995013 178,318.995013 L177.379928,316.339102 L172.486395,316.30303 Z" id="Path" fill="#FFB8B8"></path>
                <polygon id="Path" fill="#2F2E41" points="151.343534 256.30303 172.444962 264.468114 169.890819 289.432864 175 316.894613 169.890819 322.30303 151 259.839572"></polygon>
                <path d="M144.094157,231.80303 L147.015803,230.30303 L147.015803,231.80303 L148.963559,230.80303 L148.963559,233.30303 C148.963559,233.30303 156.267656,238.80303 154.806833,245.30303 C153.34601,251.80303 153.34601,252.30303 153.34601,252.30303 C153.34601,252.30303 151.499212,239.941809 144.195124,241.941806 C136.891035,243.941802 136.303128,244.30303 134.355373,249.80303 L133.826959,252.162212 C133.826959,252.162212 125.590479,232.80303 144.094157,231.80303 Z" id="Path" fill="#2F2E41"></path>
                <polygon id="Path" fill="#2F2E41" points="169.310195 264.30303 172.62039 264.30303 178 293.692296 178 319.30303 171.37961 318.043226 166 279.417157"></polygon>
                <rect id="Rectangle" fill="#FF5252" x="3" y="325.30303" width="123" height="86"></rect>
                <path d="M65,342.30303 C50.6405965,342.30303 39,353.943627 39,368.30303 C39,382.662434 50.6405965,394.30303 65,394.30303 C79.3594035,394.30303 91,382.662434 91,368.30303 C90.9580115,353.961055 79.3419753,342.345019 65,342.30303 Z M65,350.10303 C69.3078259,350.10303 72.8000087,353.595213 72.8000087,357.903039 C72.8000087,362.210865 69.3078259,365.703048 65,365.703048 C60.6921741,365.703048 57.1999913,362.210865 57.1999913,357.903039 C57.2143508,353.601175 60.6981361,350.11739 65,350.10303 Z M65,387.653051 C58.744275,387.624519 52.9061186,384.508967 49.3999825,379.328048 C49.5249844,374.12804 59.7999913,371.265538 65,371.265538 C70.2000087,371.265538 80.4750069,374.12804 80.6,379.328048 C77.0900836,384.504762 71.2543276,387.619035 64.9999913,387.653051 L65,387.653051 Z" id="Shape" fill="#FFFFFF"></path>
                <rect id="Rectangle" fill="#E6E6E6" x="250" y="79.3030303" width="155" height="89"></rect>
                <path d="M710.265001,255.790187 L710.949746,251.219433 C710.949746,251.219433 714.940851,241.829918 711.786121,241.323743 C708.63139,240.817569 706,249.756594 706,249.756594 L707.154287,259.30303 L710.265001,255.790187 Z" id="Path" fill="#FFB8B8"></path>
                <polygon id="Path" fill="#575A89" points="744 282.236683 714.224582 276.342715 710.764778 254.969761 702 254.30303 702.428264 281.936087 728.298767 295.30303"></polygon>
                <polygon id="Path" fill="#000000" opacity="0.2" points="744 282.236683 714.224582 276.342715 710.764778 254.969761 702 254.30303 702.428264 281.936087 728.298767 295.30303"></polygon>
                <rect id="Rectangle" fill="#FF5252" transform="translate(709.500000, 246.803030) rotate(-180.000000) translate(-709.500000, -246.803030) " x="664" y="243.30303" width="91" height="7"></rect>
                <path d="M704.032417,254.234465 L704.037958,249.483825 C704.037958,249.483825 706.569197,239.30728 703.419982,239.30303 C700.270767,239.298783 699,248.798341 699,248.798341 L701.508302,258.30303 L704.032417,254.234465 Z" id="Path" fill="#FFB8B8"></path>
                <path d="M742.450396,267.999543 L746.517134,267.027884 C749.659677,267.031752 752.637793,265.65179 754.629262,263.268988 C756.62073,260.886186 757.414906,257.752583 756.792527,254.733326 L756.792527,254.733326 C756.797088,251.175861 755.359692,247.762325 752.796551,245.243658 C750.23341,242.72499 746.754484,241.307508 743.125096,241.30303 L743.125096,241.30303 C739.495698,241.298555 736.013134,242.707457 733.443531,245.219805 C730.873929,247.732152 729.427777,251.142145 729.423215,254.69962 L729.423215,254.69962 C728.352691,258.351117 729.345958,262.285104 732.030391,265.02574 C734.714823,267.766375 738.684578,268.899318 742.450396,267.999543 Z" id="Path" fill="#2F2E41"></path>
                <polygon id="Path" fill="#2F2E41" points="719 335.643038 722.247027 371.800126 728.126475 407.290704 738 407.30303 736.726639 372.487767 731.512871 330.30303"></polygon>
                <path d="M729.847706,404.30303 L723.067031,408.491061 C723.067031,408.491061 712.224421,409.87594 714.25284,413.375923 C716.281259,416.875906 739.998295,414.80825 740,413.409306 C740.001699,412.010361 739.333478,404.315311 737.978394,404.313572 L729.847706,404.30303 Z" id="Path" fill="#2F2E41"></path>
                <path d="M748.376342,332.200642 C748.376342,332.200642 748.189809,337.366588 743.53898,345.389631 L744.171147,370.146317 L768,400.954109 L759.37215,408.30303 L730.24282,374.812206 L723,334.658346 L732.293331,325.30303 L748.376342,332.200642 Z" id="Path" fill="#2F2E41"></path>
                <path d="M766.371383,400.30303 C766.371383,400.30303 774.154811,401.677272 772.853228,405.085449 C771.551644,408.493625 768.289131,424.17486 759.857765,422.117785 C759.857765,422.117785 755.96524,422.112646 757.266004,419.386451 C758.047877,417.746721 758.916135,416.154106 759.866732,414.616024 L759.87732,405.750327 L766.371383,400.30303 Z" id="Path" fill="#2F2E41"></path>
                <circle id="Oval" fill="#FFB8B8" cx="739" cy="258.30303" r="10"></circle>
                <polygon id="Path" fill="#FFB8B8" points="743 265.314082 742.985552 276.30303 732 276.290278 733.387867 265.30303"></polygon>
                <path d="M730.080351,272.095504 L733.312495,271.30303 L743.413686,272.112218 C743.413686,272.112218 748.740317,277.442109 748.071981,278.772065 C747.403646,280.102022 744.029303,312.702456 744.029303,312.702456 L750,335.998976 L728.664992,337.30303 L718,335.958862 L720.052753,294.041161 C720.052753,294.041161 715.400323,282.723511 721.404504,279.404031 C724.795741,277.628347 727.756869,275.133894 730.080351,272.095504 L730.080351,272.095504 Z" id="Path" fill="#575A89"></path>
                <polygon id="Path" fill="#575A89" points="742 275.134897 712.204644 273.776971 705.608999 253.30303 697 253.951605 701.600581 281.025898 728.738171 290.30303"></polygon>
                <circle id="Oval" fill="#2F2E41" cx="757.5" cy="244.80303" r="6.5"></circle>
                <path d="M752.449745,241.361951 C752.451222,239.394892 753.300109,237.532209 754.762719,236.286674 C756.22533,235.041139 758.147469,234.544059 760,234.932275 C757.796749,233.848592 755.190854,234.183347 753.306803,235.792088 C751.422753,237.400829 750.597806,239.995581 751.18794,242.456662 C751.778075,244.917743 753.677654,246.804604 756.066975,247.30303 C753.857257,246.219469 752.447832,243.904574 752.449745,241.361951 L752.449745,241.361951 Z" id="Path" fill="#2F2E41"></path>
                <path d="M745.91698,244.888957 L737.317767,243.30303 L730.704597,247.454609 C727.384478,249.538793 725.579741,253.368431 726.083511,257.26051 L732.706849,255.578978 L734.189974,251.854023 L735.956373,254.754009 L743.122224,267.30303 L750.377233,263.351163 L755,256.095147 L745.91698,244.888957 Z" id="Path" fill="#2F2E41"></path>
                <polygon id="Rectangle" fill="#FFFFFF" transform="translate(327.073446, 124.266980) rotate(-60.150050) translate(-327.073446, -124.266980) " points="326.194843 35.1046475 327.952049 35.1046475 327.952049 213.429312 326.194843 213.429312"></polygon>
                <polygon id="Rectangle" fill="#FFFFFF" transform="translate(327.073433, 124.266986) rotate(-29.845530) translate(-327.073433, -124.266986) " points="237.911101 123.388383 416.235766 123.388383 416.235766 125.145589 237.911101 125.145589"></polygon>
                <polygon id="Rectangle" fill="#FFFFFF" transform="translate(634.209800, 147.115427) rotate(-45.000000) translate(-634.209800, -147.115427) " points="633.331105 111.695807 635.088496 111.695807 635.088496 182.535047 633.331105 182.535047"></polygon>
                <polygon id="Rectangle" fill="#FFFFFF" transform="translate(634.209800, 147.115427) rotate(-45.000000) translate(-634.209800, -147.115427) " points="598.79018 146.236732 669.629421 146.236732 669.629421 147.994123 598.79018 147.994123"></polygon>
            </g>
        </g>
    </g>
</svg>