<?xml version="1.0" encoding="UTF-8"?>
<svg width="28px" height="28px" viewBox="0 0 28 28" version="1.1" xmlns="http://www.w3.org/2000/svg" xmlns:xlink="http://www.w3.org/1999/xlink">
    <title>Tools/Glyphs/About</title>
    <g id="Tools/Glyphs/About" stroke="none" stroke-width="1" fill="none" fill-rule="evenodd">
        <g id="np_about_4292472_000000" fill="#000000" fill-rule="nonzero">
            <path d="M14,0 C6.28535087,0 0,6.28400691 0,14 C0,21.7146491 6.28400691,28 14,28 C21.7146491,28 28,21.7159931 28,14 C28,6.28535087 21.7159931,0 14,0 L14,0 Z M14,2.79946242 C20.2013536,2.79946242 25.1991936,7.79730249 25.1991936,13.998656 C25.1991936,20.2000096 20.2013536,25.1978497 14,25.1978497 C7.79864644,25.1978497 2.80080637,20.2000096 2.80080637,13.998656 C2.80080637,7.79730249 7.79864644,2.79946242 14,2.79946242 Z" id="Shape"></path>
            <path d="M14.5,10 C13.671977,10 13,10.6472944 13,11.4449031 L13,21.5564513 L13,21.5550969 C13,21.938336 13.1588568,22.3066684 13.4400312,22.5774837 C13.7212056,22.848299 14.1021473,23 14.5,23 C14.8978527,23 15.2788268,22.8483337 15.5599688,22.5774837 C15.8411108,22.3066337 16,21.9383013 16,21.5550969 L16,11.4435487 L16,11.4449031 C16,11.061664 15.8411432,10.6946836 15.5599688,10.4238683 C15.2788088,10.1516802 14.8978527,10 14.5,10 L14.5,10 Z" id="Path"></path>
            <path d="M16,6.4992979 C16,6.89733681 15.8411432,7.27989342 15.5599688,7.56116705 C15.2787944,7.84244068 14.8978527,8 14.5,8 C13.671977,8 13,7.3277085 13,6.4992979 C13,5.67088729 13.671977,5 14.5,5 C14.8978527,5 15.2788268,5.15752331 15.5599688,5.43883295 C15.8411108,5.72014258 16,6.10125899 16,6.4992979 Z" id="Path"></path>
        </g>
    </g>
</svg>