<?xml version="1.0" encoding="UTF-8"?>
<svg width="163px" height="68px" viewBox="0 0 163 68" version="1.1" xmlns="http://www.w3.org/2000/svg" xmlns:xlink="http://www.w3.org/1999/xlink">
    <title>Group</title>
    <g id="Symbols" stroke="none" stroke-width="1" fill="none" fill-rule="evenodd">
        <g id="Group" transform="translate(0.000000, -0.000000)">
            <g id="Card-top-bar" fill="#7BEFB2">
                <path d="M163,68 L4,68 C1.790861,68 2.705415e-16,66.209139 0,64 L0,4 C-2.705415e-16,1.790861 1.790861,4.05812251e-16 4,0 L163,0 L163,68 Z" id="Top-bar-background"></path>
            </g>
            <g id="Group-9" transform="translate(55.000000, 19.000000)" stroke="#212121" stroke-linecap="round" stroke-width="2.2">
                <path d="M9.99966951,18 L1.70878573,9.84060255 C-0.569595244,7.59835474 -0.569595244,3.92537592 1.70878573,1.68312812 L1.70878573,1.68312812 C3.98912072,-0.561042707 7.71933452,-0.561042707 9.99966951,1.68312812 L18.2905533,9.84060255 C20.268016,11.7867044 20.529854,14.8077776 19.0760671,17.0384872" id="Stroke-1"></path>
                <path d="M31,21 L20.6153486,21 C17.5269069,21 15,18.3 15,15" id="Stroke-3"></path>
                <path d="M22,9 L32.3208708,9 C35.4443919,9 38,11.7 38,15 L38,15" id="Stroke-5"></path>
                <path d="M43.0002123,12 L51.2911941,20.1593975 C53.569602,22.4016453 53.569602,26.0746241 51.2911941,28.3168719 L51.2911941,28.3168719 C49.0108321,30.5610427 45.2805743,30.5610427 43.0002123,28.3168719 L34.7092306,20.1593975 C32.7141582,18.1959884 32.4659954,15.1383777 33.9627882,12.901899" id="Stroke-7"></path>
            </g>
        </g>
    </g>
</svg>