<?xml version="1.0" encoding="UTF-8"?>
<svg width="28px" height="28px" viewBox="0 0 28 28" version="1.1" xmlns="http://www.w3.org/2000/svg" xmlns:xlink="http://www.w3.org/1999/xlink">
    <title>Tools/Glyphs/Signout Active</title>
    <g id="Tools/Glyphs/Signout-Active" stroke="none" stroke-width="1" fill="none" fill-rule="evenodd">
        <path d="M28,14 C28,6.27818947 21.7218105,0 14,0 C6.27818947,0 0,6.27818947 0,14 C0,21.7218105 6.27818947,28 14,28 C21.7218105,28 28,21.7218105 28,14 Z M13.2528206,24.6962836 L8.46328709,19.9067501 C8.26971807,19.7131811 8.15832494,19.436351 8.15832494,19.1595153 C8.15832494,18.8826797 8.26862734,18.6339705 8.46328709,18.4122806 C8.87854056,17.9970271 9.54250317,17.9970271 9.93073748,18.4122806 L12.9476923,21.4292354 L12.9476923,10.7159728 C12.9476923,10.134175 13.4180915,9.66377586 13.9998893,9.66377586 C14.5816871,9.66377586 15.0520862,10.134175 15.0520862,10.7159728 L15.0520862,21.4292354 L18.0690411,18.4122806 C18.4842945,17.9970271 19.1482571,17.9970271 19.5364914,18.4122806 C19.9517449,18.827534 19.9517449,19.4914966 19.5364914,19.879731 L14.7469579,24.6961175 C14.5533889,24.8896865 14.2765588,25 13.9997232,25 C13.7228875,25 13.4460519,24.8896976 13.2524884,24.6961175 L13.2528206,24.6962836 Z" id="Fill-1" fill="#FF5252" transform="translate(14.000000, 14.000000) rotate(-270.000000) translate(-14.000000, -14.000000) "></path>
        <polyline id="Path-5" stroke="#FFFFFF" stroke-width="2" stroke-linecap="round" stroke-linejoin="round" points="13.4858896 10.0427246 13.4858896 6.48588962 21 6.48588962 21 21.5141104 13.4858896 21.5141104 13.4858896 18.0180664"></polyline>
    </g>
</svg>