<?xml version="1.0" encoding="UTF-8"?>
<svg width="28px" height="28px" viewBox="0 0 28 28" version="1.1" xmlns="http://www.w3.org/2000/svg" xmlns:xlink="http://www.w3.org/1999/xlink">
    <title>Fill 1</title>
    <g id="Symbols" stroke="none" stroke-width="1" fill="none" fill-rule="evenodd">
        <g id="Tools/Glyphs/Signout-Inactive" fill="#9E9E9E">
            <path d="M28,14 C28,6.27818947 21.7218105,0 14,0 C6.27818947,0 0,6.27818947 0,14 C0,21.7218105 6.27818947,28 14,28 C21.7218105,28 28,21.7218105 28,14 Z M13.2045053,21.8405895 L8.10526316,16.7413474 C7.89917726,16.5352615 7.78058105,16.2405305 7.78058105,15.9457937 C7.78058105,15.6510568 7.898016,15.3862653 8.10526316,15.15024 C8.54736842,14.7081347 9.25426526,14.7081347 9.66760421,15.15024 L12.8796463,18.3622821 L12.8796463,6.95626105 C12.8796463,6.33684211 13.3804632,5.83602526 13.9998821,5.83602526 C14.6193011,5.83602526 15.1201179,6.33684211 15.1201179,6.95626105 L15.1201179,18.3622821 L18.33216,15.15024 C18.7742653,14.7081347 19.4811621,14.7081347 19.8945011,15.15024 C20.3366063,15.5923453 20.3366063,16.2992421 19.8945011,16.7125811 L14.7952589,21.8404126 C14.5891731,22.0464985 14.2944421,22.1639453 13.9997053,22.1639453 C13.7049684,22.1639453 13.4102316,22.0465103 13.2041516,21.8404126 L13.2045053,21.8405895 Z" id="Fill-1" transform="translate(14.000000, 14.000000) rotate(-270.000000) translate(-14.000000, -14.000000) "></path>
        </g>
    </g>
</svg>