<?xml version="1.0" encoding="UTF-8"?>
<svg width="65px" height="43px" viewBox="0 0 65 43" version="1.1" xmlns="http://www.w3.org/2000/svg" xmlns:xlink="http://www.w3.org/1999/xlink">
    <title>Medical Device</title>
    <g id="🛠-OnTrack-Tools-screens" stroke="none" stroke-width="1" fill="none" fill-rule="evenodd">
        <g id="Medical-Device" transform="translate(1, 1.001)">
            <rect id="Rectangle" stroke="#212121" stroke-width="2" x="0" y="0" width="63" height="41"></rect>
            <g id="MD" transform="translate(6, 8)" fill="#212121" fill-rule="nonzero">
                <polygon id="Path" points="0 25 4.23761076 25 4.23761076 8.0994456 6.43518215 8.0994456 1.67771579 0.693000693 10.5073843 25 13.4926157 25 22.3222842 0.693000693 17.5648179 8.0994456 19.7623892 8.0994456 19.7623892 25 24 25 24 0 18.5021332 0 12.0511979 17.9747055 11.9488021 17.9747055 5.49786675 0 0 0"></polygon>
                <path d="M30,25 L39.3389831,25 C41.7909605,25 43.8855932,24.5033495 45.6228814,23.5100485 C47.3601695,22.5167475 48.690678,21.0787711 49.6144068,19.1961192 C50.5381356,17.3134673 51,15.049665 51,12.4047124 L51,12.3700624 C51,9.72510973 50.5367232,7.48296373 49.6101695,5.64362439 C48.6836158,3.80428505 47.3516949,2.40384615 45.6144068,1.44230769 C43.8771186,0.480769231 41.7853107,0 39.3389831,0 L30,0 L30,25 Z M35.1186441,20.6774082 L35.1186441,4.32259182 L38.7288136,4.32259182 C40.2259887,4.32259182 41.5,4.63155463 42.5508475,5.24948025 C43.6016949,5.86740587 44.4025424,6.77696928 44.9533898,7.97817048 C45.5042373,9.17937168 45.779661,10.6491106 45.779661,12.3873874 L45.779661,12.4220374 C45.779661,14.2238392 45.509887,15.7368907 44.970339,16.961192 C44.430791,18.1854932 43.6370056,19.1109379 42.5889831,19.737526 C41.5409605,20.3641141 40.2542373,20.6774082 38.7288136,20.6774082 L35.1186441,20.6774082 Z" id="Shape"></path>
            </g>
        </g>
    </g>
</svg>