<?xml version="1.0" encoding="UTF-8"?>
<svg width="412px" height="309px" viewBox="0 0 412 309" version="1.1" xmlns="http://www.w3.org/2000/svg" xmlns:xlink="http://www.w3.org/1999/xlink">
    <title>undraw_fishing_hoxa</title>
    <defs>
        <linearGradient x1="50.0031204%" y1="99.9971283%" x2="50.0031204%" y2="0%" id="linearGradient-1">
            <stop stop-color="#808080" stop-opacity="0.25" offset="0%"></stop>
            <stop stop-color="#808080" stop-opacity="0.12" offset="54%"></stop>
            <stop stop-color="#808080" stop-opacity="0.1" offset="100%"></stop>
        </linearGradient>
        <linearGradient x1="49.9951087%" y1="99.9796546%" x2="49.9951087%" y2="0.00691070484%" id="linearGradient-2">
            <stop stop-color="#808080" stop-opacity="0.25" offset="0%"></stop>
            <stop stop-color="#808080" stop-opacity="0.12" offset="54%"></stop>
            <stop stop-color="#808080" stop-opacity="0.1" offset="100%"></stop>
        </linearGradient>
    </defs>
    <g id="🛠-OnTrack-Tools-screens" stroke="none" stroke-width="1" fill="none" fill-rule="evenodd">
        <g id="Window-size-alert" transform="translate(-166, -274)">
            <g id="undraw_fishing_hoxa" transform="translate(166, 274)">
                <path d="M16.2982385,72.0699471 C8.05647682,86.0855992 13.6155045,103.58004 14.9665495,119.721618 C15.7867712,129.586913 14.9268075,139.519662 12.4231782,149.098054 C8.86942655,162.696252 2.06000481,175.45181 0.317969693,189.366963 C-1.42406543,203.282117 3.9568875,219.678807 17.3241037,224.518188 C20.6417128,225.720303 24.2303051,226.126162 27.4588769,227.548599 C36.2155068,231.41392 40.0983095,241.757518 40.3963911,251.19663 C40.6944726,260.635743 38.3407896,270.024607 38.7666204,279.459854 C39.0066342,284.770804 40.272513,290.317539 43.9307868,294.225378 C47.2948501,297.816261 52.1880332,299.536329 56.8992705,301.066996 C71.7956063,305.910242 87.3500444,310.193017 102.966421,308.697138 C118.582799,307.201259 134.412091,298.76713 140.412434,284.500232 C142.584171,279.336164 143.389379,273.677334 145.572729,268.528728 C147.75608,263.380121 151.89051,258.436376 157.511477,257.628524 C160.794245,257.156955 164.092498,258.154207 167.259131,259.135999 L212.652695,273.244419 C219.620836,275.412863 227.440638,277.531059 233.982947,274.318978 C237.347011,272.664621 239.898124,269.792687 242.352458,266.974869 C261.747116,244.845909 281.954723,220.846134 285.504604,191.829173 C286.754998,181.6054 285.837526,171.203822 287.227283,160.999376 C288.61704,150.79493 292.871477,140.223278 301.701659,134.715197 C308.511081,130.463344 316.93866,129.825566 324.959764,128.967465 C337.943732,127.57595 351.008996,125.218104 362.785153,119.663639 C374.561311,114.109173 385.04062,105.044996 390.05381,93.1784624 C391.536475,89.6687514 392.531371,85.7841042 391.695194,82.0772619 C390.200915,75.4636985 383.538598,71.4128426 377.29437,68.5486401 C358.619754,60.0449349 338.365692,55.4915874 318.192925,51.48325 C308.940783,49.6433574 299.611217,47.9000979 290.157773,48.0044615 C281.985693,48.0894986 273.898779,49.5505897 265.850577,50.9382398 C196.927925,62.7699859 122.453988,70.2416504 53.2797086,55.8162743 C38.7743628,52.7897283 24.1993356,58.6302276 16.2982385,72.0699471 Z" id="Path" fill="#9E9E9E" fill-rule="nonzero" opacity="0.1"></path>
                <path d="M115,45.2470762 C115,45.2470762 198.259929,18.615485 230.981345,38.174335 C253.486746,51.6242018 304.199331,47.7575108 333.679164,44.0268341 C349.985823,41.9610878 366.547467,43.7686637 382.032124,49.3041872 C396.951914,54.6437182 412.637614,61.090794 411.980014,64.3901112 C410.73831,70.6312224 115,66.8850012 115,66.8850012 L115,45.2470762 Z" id="Path" fill="#FF8A80" fill-rule="nonzero" opacity="0.4"></path>
                <path d="M311,165.594748 L310.690455,165.621833 L310.787188,165.381942 L310.400256,165.540579 L310.787188,164.522978 C310.787188,164.522978 309.52966,165.029844 307.200331,165.857854 C250.007957,168.523739 130.333853,120 130.333853,120 L64.0911474,129.096508 C63.7061756,128.736939 63.3418766,128.355856 63,127.955092 L63.2940681,129.150677 C63.1908863,129.03718 63.0928636,128.924973 63,128.814056 L63.1044716,129.231931 L63,129.231931 L63.1625113,129.456345 L70.7425032,160.201072 C70.7425032,160.201072 205.828096,234.629159 287.126314,225.168945 L310.268699,166.681996 L311,165.594748 Z" id="Path" fill="url(#linearGradient-1)" fill-rule="nonzero"></path>
                <path d="M133.339536,122 C133.339536,122 253.660464,170.906522 307,165.931468 L271.441596,219 L142.86142,178.785304 L80,150.177776 L109.345626,130.27756 L133.339536,122 Z" id="Path" fill="#FF8A80" fill-rule="nonzero"></path>
                <path d="M133.339536,122 C133.339536,122 253.660464,170.906522 307,165.931468 L271.441596,219 L142.86142,178.785304 L80,150.177776 L109.345626,130.27756 L133.339536,122 Z" id="Path" fill="#000000" fill-rule="nonzero" opacity="0.1"></path>
                <polygon id="Path" fill="#FFFFFF" fill-rule="nonzero" opacity="0.1" points="127.807145 136 160 143.308292 94.3690915 155 79 141.21798"></polygon>
                <polygon id="Path" fill="#FFFFFF" fill-rule="nonzero" opacity="0.1" points="142 165.715 180.126122 152 207 160.801765 159.917215 178"></polygon>
                <polygon id="Path" fill="#FFFFFF" fill-rule="nonzero" opacity="0.1" points="194 181.192066 235.786985 170 273 179.971736 233.5 193"></polygon>
                <polygon id="Path" fill="#FF8A80" fill-rule="nonzero" points="68 130.052597 133 121 133 137.001311 78.5922191 145"></polygon>
                <polygon id="Path" fill="#FFFFFF" fill-rule="nonzero" opacity="0.1" points="69 130.89415 133 121 133 137.001311 79.0850348 145"></polygon>
                <path d="M11,78.909145 C11.0075047,65.7880587 19.9666112,54.3858109 32.6598726,51.3426419 C59.6302819,44.8360449 104.860737,36.9526784 126.98475,50.1758881 C159.706629,69.7501277 252.066647,52.6727412 252.066647,52.6727412 C252.066647,52.6727412 309.221636,70.1740482 307.980061,76.3967352 C306.738486,82.6194221 11.0116035,78.8935883 11.0116035,78.8935883 L11,78.909145 Z" id="Path" fill="#FF8A80" fill-rule="nonzero"></path>
                <path d="M239.367595,56.4632453 C240.076886,55.8196473 240.743773,55.0593737 240.948079,54.1334959 C241.152386,53.2076181 240.747628,52.0973174 239.841741,51.7585816 C238.827918,51.3822085 237.740854,52.0672076 236.919773,52.7597341 C236.098692,53.4522606 235.154257,54.2464078 234.078757,54.0996223 C235.205382,53.1020387 235.713176,51.6003744 235.416386,50.1439411 C235.365003,49.8474456 235.23172,49.570263 235.030902,49.3422664 C234.468096,48.7551243 233.446564,49.0072943 232.771967,49.4702332 C230.624822,50.9456158 230.027322,53.7909964 230.015758,56.3540971 C229.799887,55.4282193 229.981064,54.4722317 229.977209,53.5200077 C229.973354,52.5677838 229.70737,51.5214666 228.88629,51.0133629 C228.376087,50.7472442 227.802949,50.6174084 227.224855,50.6369898 C226.261145,50.6031162 225.185645,50.6972095 224.526468,51.389736 C223.709242,52.2441029 223.921258,53.6818482 224.630548,54.6265446 C225.339839,55.5712411 226.426903,56.1583831 227.425306,56.8095086 C228.22561,57.2748138 228.908142,57.9103384 229.422112,58.6687917 C229.481932,58.7742442 229.530995,58.8851798 229.568596,59 L235.616838,59 C236.979062,58.3242903 238.24087,57.47089 239.367595,56.4632453 L239.367595,56.4632453 Z" id="Path" fill="#FF8A80" fill-rule="nonzero"></path>
                <path d="M105.367595,43.4783003 C106.076886,42.8347023 106.743773,42.0744286 106.948079,41.1485508 C107.152386,40.222673 106.747628,39.1123724 105.841741,38.7736366 C104.827918,38.3972635 103.740854,39.0822625 102.919773,39.774789 C102.098692,40.4673155 101.154257,41.2614627 100.078757,41.1146772 C101.210666,40.1140566 101.71895,38.605223 101.416386,37.1439411 C101.365003,36.8474456 101.23172,36.570263 101.030902,36.3422664 C100.468096,35.7551243 99.4465637,36.0072943 98.771967,36.4702332 C96.624822,37.9456158 96.027322,40.7909964 96.0157575,43.3540971 C95.7998866,42.4282193 95.981064,41.4722317 95.9772091,40.5200077 C95.9733543,39.5677838 95.7073704,38.5214666 94.8862899,38.0133629 C94.3760873,37.7472442 93.8029494,37.6174084 93.2248545,37.6369898 C92.2611449,37.6031162 91.185645,37.6972095 90.5264677,38.389736 C89.7092419,39.2441029 89.921258,40.6818482 90.6305483,41.6265446 C91.3398386,42.5712411 92.426903,43.1583831 93.4253061,43.8095086 C94.2256101,44.2748138 94.9081417,44.9103384 95.4221124,45.6687917 C95.4819318,45.7742442 95.5309954,45.8851798 95.5685963,46 L101.616838,46 C102.978158,45.3289487 104.239922,44.4806431 105.367595,43.4783003 Z" id="Path" fill="#FF8A80" fill-rule="nonzero"></path>
                <path d="M303.367595,71.4632453 C304.076886,70.8196473 304.743773,70.0593737 304.948079,69.1334959 C305.152386,68.2076181 304.747628,67.0973174 303.841741,66.7585816 C302.827918,66.3822085 301.740854,67.0672076 300.919773,67.7597341 C300.098692,68.4522606 299.154257,69.2464078 298.078757,69.0996223 C299.205382,68.1020387 299.713176,66.6003744 299.416386,65.1439411 C299.365003,64.8474456 299.23172,64.570263 299.030902,64.3422664 C298.468096,63.7551243 297.446564,64.0072943 296.771967,64.4702332 C294.624822,65.9456158 294.027322,68.7909964 294.015758,71.3540971 C293.799887,70.4282193 293.981064,69.4722317 293.977209,68.5200077 C293.973354,67.5677838 293.70737,66.5214666 292.88629,66.0133629 C292.376087,65.7472442 291.802949,65.6174084 291.224855,65.6369898 C290.261145,65.6031162 289.185645,65.6972095 288.526468,66.389736 C287.709242,67.2441029 287.921258,68.6818482 288.630548,69.6265446 C289.339839,70.5712411 290.426903,71.1583831 291.425306,71.8095086 C292.22561,72.2748138 292.908142,72.9103384 293.422112,73.6687917 C293.481932,73.7742442 293.530995,73.8851798 293.568596,74 L299.616838,74 C300.979062,73.3242903 302.24087,72.47089 303.367595,71.4632453 Z" id="Path" fill="#FF8A80" fill-rule="nonzero"></path>
                <path d="M227.302753,196.30583 C223.448993,192.49303 220.400668,187.965571 218.789796,182.804578 C217.552739,178.829531 216.44671,174.947197 216.44671,173.691716 C216.44671,171.493658 213.398385,163.222934 209.633261,159.236298 C209.502233,159.097229 209.367351,158.962024 209.247885,158.849996 C208.592745,156.254047 207.286321,149.70623 209.552332,145.642334 C210.106456,144.649874 210.569524,143.609023 210.935832,142.532603 C212.294045,138.365136 214.381999,134.47352 217.101849,131.040121 C217.647212,130.379791 218.12975,129.669765 218.543155,128.919324 C219.487327,129.08157 220.042268,128.818885 219.926656,127.887898 C219.926656,127.85313 219.926656,127.818363 219.926656,127.783596 C220.36213,127.683158 220.589502,127.36639 220.512427,126.744444 C219.938217,122.162903 222.238912,107.842691 222.238912,107.842691 C224.423444,101.381999 225.387928,94.5698467 225.082987,87.7549916 C224.508777,76.8728666 212.997594,74.5820963 212.997594,74.5820963 L212.045715,75.528536 C211.274963,75.0533846 210.41172,74.520288 209.536917,73.9562872 C209.889719,73.8031222 210.167094,73.5153502 210.307669,73.1566422 C211.305793,71.0822009 211.355892,68.2390188 211.498481,65.9907417 C211.582389,65.265112 211.548552,64.530651 211.398283,63.8158619 C211.213961,63.2051001 210.915812,62.6348973 210.519626,62.1354485 C208.717647,59.7565822 205.954545,58.30307 202.977816,58.1681279 C202.022084,58.1294977 201.050936,58.2299362 200.114472,58.2299362 C198.357157,58.2299362 196.599842,57.8899905 194.850235,58.0367852 C193.100628,58.18358 191.250823,58.9561838 190.476217,60.5284326 C189.990643,61.5135025 189.986789,62.6994493 189.412579,63.6188479 C188.749732,64.6966302 187.458722,65.245179 186.714946,66.268879 C186.308556,66.830693 186.088794,67.5064301 186.086783,68.2003886 C186.076177,68.4259192 186.122572,68.6504815 186.221665,68.8532389 C186.398079,69.0979213 186.615899,69.3097268 186.865243,69.479048 C187.741261,70.2770972 187.946368,71.5781622 187.358524,72.6080935 C188.572636,72.8355736 189.534122,73.7674453 189.801809,74.9761242 C189.814253,75.1746862 189.886854,75.3647123 190.009912,75.5208099 C190.120031,75.6110852 190.253887,75.66744 190.395288,75.6830567 C191.516732,75.8762077 192.649738,75.3469741 193.497565,74.5859593 C193.566933,74.7134389 193.632447,74.8370555 193.709522,74.9722612 C195.799346,78.4092614 200.087251,79.7904753 203.783252,78.2171973 C203.942541,78.4180743 204.099261,78.6253896 204.253411,78.8391434 C204.892771,79.7264508 205.418426,80.6907378 205.818038,81.7093666 L204.931673,82.590135 C204.152812,83.814511 203.451334,85.0866545 202.831373,86.3990718 C201.395096,89.1467196 200.342169,92.079121 199.70212,95.1140431 C197.613381,97.1846213 194.38393,100.908572 193.998554,104.354385 C193.998554,104.354385 179.034401,111.802286 175.007221,107.792472 C170.980041,103.782658 165.800587,110.654969 166.949008,111.802286 C168.097429,112.949602 171.554252,115.240373 175.581432,112.961192 L191.701713,112.961192 C194.153829,112.633404 196.513875,111.809346 198.638482,110.539079 C198.353303,111.311682 197.998757,112.111327 197.605674,112.926424 C197.000633,114.08533 196.349348,115.244236 195.740454,116.283388 C195.405176,116.557662 195.073753,116.824211 194.74233,117.07917 C192.680568,117.932897 190.086987,119.01068 187.393208,120.169585 C185.907766,120.486645 184.498894,121.093023 183.246562,121.9543 C177.026592,124.658414 171.396248,127.292993 171.561959,127.841541 C171.145753,128.115816 170.929943,128.320556 170.987749,128.42872 C171.045555,128.536885 171.095654,128.668227 171.176583,128.869104 C170.733401,130.503162 170.648618,133.844673 171.561959,140.458162 C173.874216,157.069144 168.6832,159.931641 168.6832,159.931641 C168.6832,159.931641 164.65602,165.084909 160.050776,164.513182 C155.445532,163.941455 159.476566,168.522996 163.519161,167.951269 C166.236062,167.564967 172.101486,167.178665 175.623823,166.966199 C176.267997,166.926716 176.860891,166.600821 177.240439,166.077595 C177.619987,165.554369 177.746497,164.888531 177.585387,164.262086 C176.919102,161.729921 176.832154,159.07958 177.331039,156.509006 C178.198135,152.197877 180.367802,143.992824 181.142408,139.461503 L181.142408,139.411284 C182.298537,138.252378 184.452789,136.656951 187.10803,137.035527 C188.49153,137.232541 190.96179,135.938429 193.613178,134.161441 C192.225824,142.076767 191.16604,150.579272 192.287484,153.646509 C194.599741,159.947094 196.892728,162.809591 196.892728,162.809591 C196.892728,162.809591 197.998757,162.85981 199.551823,162.840495 L200.295599,163.999401 L210.700753,180.007752 C210.700753,180.007752 219.907387,193.180647 211.274963,194.899691 C211.274963,194.899691 204.369024,196.618734 207.247783,198.909505 C207.247783,198.909505 227.39139,199.481232 227.9656,197.750599 C228.104336,197.306352 227.81145,196.808022 227.302753,196.30583 Z" id="Path" fill="url(#linearGradient-2)" fill-rule="nonzero"></path>
                <path d="M215,77.9349224 C215,77.9349224 207.2756,93.6616061 206.7244,85.7982643 C206.564463,83.4596084 205.765216,81.2130952 204.416964,79.3125551 C203.00576,77.3168282 201.149173,75.6907797 199,74.5682357 C199,74.5682357 203.4134,66.1437794 202.8622,68.3766279 C202.580898,69.5375544 205.755049,71.9948487 208.944405,74.1348231 C211.9665,76.189663 215,77.9349224 215,77.9349224 Z" id="Path" fill="#FFB9B9" fill-rule="nonzero"></path>
                <path d="M177.994258,155.647887 C177.503157,158.184737 177.588438,160.799298 178.243814,163.298863 C178.409917,163.916452 178.289862,164.575871 177.916704,165.095568 C177.543546,165.615264 176.95663,165.940442 176.317548,165.981572 C172.851048,166.187934 167.083947,166.569509 164.412909,166.951085 C160.451195,167.515661 156.489481,162.99516 161.016597,163.559736 C165.543714,164.124312 169.505427,159.039235 169.505427,159.039235 C169.505427,159.039235 174.597946,156.212462 172.336337,139.824188 C171.435593,133.302363 171.521378,130.000568 171.946405,128.3925 C172.029049,127.984242 172.209689,127.602113 172.472814,127.278923 C172.472814,127.278923 172.472814,127.278923 172.472814,127.278923 C172.591292,127.143025 172.749503,127.047693 172.925135,127.006369 C173.327833,126.967209 173.726949,127.110052 174.013047,127.395732 C174.013047,127.395732 181.371073,134.178429 181.936475,135.872157 C182.076851,136.288775 181.975468,137.371203 181.722012,138.835207 C180.98114,143.301196 178.84821,151.392153 177.994258,155.647887 Z" id="Path" fill="#FFB9B9" fill-rule="nonzero"></path>
                <path d="M177.994258,155.647887 C177.503157,158.184737 177.588438,160.799298 178.243814,163.298863 C178.409917,163.916452 178.289862,164.575871 177.916704,165.095568 C177.543546,165.615264 176.95663,165.940442 176.317548,165.981572 C172.851048,166.187934 167.083947,166.569509 164.412909,166.951085 C160.451195,167.515661 156.489481,162.99516 161.016597,163.559736 C165.543714,164.124312 169.505427,159.039235 169.505427,159.039235 C169.505427,159.039235 174.597946,156.212462 172.336337,139.824188 C171.435593,133.302363 171.521378,130.000568 171.946405,128.3925 C172.029049,127.984242 172.209689,127.602113 172.472814,127.278923 C172.472814,127.278923 172.472814,127.278923 172.472814,127.278923 C172.591292,127.143025 172.749503,127.047693 172.925135,127.006369 C173.327833,126.967209 173.726949,127.110052 174.013047,127.395732 C174.013047,127.395732 181.371073,134.178429 181.936475,135.872157 C182.076851,136.288775 181.975468,137.371203 181.722012,138.835207 C180.98114,143.301196 178.84821,151.392153 177.994258,155.647887 Z" id="Path" fill="#000000" fill-rule="nonzero" opacity="0.05"></path>
                <path d="M226.964857,195.792821 C226.408652,197.469458 206.922296,196.910579 206.922296,196.910579 C204.137435,194.671209 210.819567,192.994572 210.819567,192.994572 C219.170315,191.317935 210.263362,178.4483 210.263362,178.4483 L200.174954,162.795834 L198,159.411725 C198,159.411725 200.784861,155.495718 205.794542,156.054597 C206.945311,156.18179 208.122932,156.975784 209.223834,158.159065 C212.8641,162.051947 215.817741,170.130639 215.817741,172.277505 C215.817741,173.503185 216.887956,177.288145 218.084756,181.177172 C219.64213,186.218646 222.607278,190.635717 226.320427,194.362862 C226.822929,194.883198 227.10295,195.372699 226.964857,195.792821 Z" id="Path" fill="#FFB9B9" fill-rule="nonzero"></path>
                <path d="M181.731311,138.487772 C181.195645,138.938124 180.710989,139.445198 180.285941,140 C176.216082,139.493404 173.085713,130.605286 172.188062,128.352067 C172.11199,128.159258 172.051132,128.015596 172.005489,127.928643 C171.959846,127.84169 172.199473,127.584611 172.701549,127.270824 C172.701549,127.270824 172.701549,127.270824 172.701549,127.270824 L173.142767,127.006184 C173.53558,126.968161 173.924899,127.106857 174.203974,127.384241 C174.203974,127.384241 181.381379,133.969992 181.932902,135.61454 C182.077439,136.019061 181.978546,137.066278 181.731311,138.487772 Z" id="Path" fill="#000000" fill-rule="nonzero" opacity="0.1"></path>
                <path d="M198.963445,115 C198.963445,115 171.447465,126.35296 172.008463,127.5 C172.569461,128.64704 175.939317,139.432352 180.43117,140 C180.43117,140 183.240028,136.022549 187.170882,136.590197 C191.101737,137.157845 204.016296,125.237238 204.016296,125.237238 L213,118.417632 L198.963445,115 Z" id="Path" fill="#4C4C78" fill-rule="nonzero"></path>
                <path d="M198.963445,115 C198.963445,115 171.447465,126.35296 172.008463,127.5 C172.569461,128.64704 175.939317,139.432352 180.43117,140 C180.43117,140 183.240028,136.022549 187.170882,136.590197 C191.101737,137.157845 204.016296,125.237238 204.016296,125.237238 L213,118.417632 L198.963445,115 Z" id="Path" fill="#000000" fill-rule="nonzero" opacity="0.05"></path>
                <path d="M210,160.089892 C210,162.491823 203.937008,162.948388 200.232283,163 L198,159.514223 C198,159.514223 200.858268,155.480568 206,156.056237 C207.181102,156.187252 208.389764,157.005099 209.519685,158.22393 C209.779528,159.371298 210,160.089892 210,160.089892 Z" id="Path" fill="#000000" fill-rule="nonzero" opacity="0.1"></path>
                <path d="M196.973357,118 C196.973357,118 190.202955,146.735209 192.461051,152.948227 C194.719147,159.161245 196.973357,161.96487 196.973357,161.96487 C196.973357,161.96487 209.383168,162.527924 209.383168,159.145713 C209.383168,159.145713 206.561519,150.12907 209.383168,145.053811 C209.92662,144.076738 210.380603,143.052604 210.73958,141.993899 C212.063743,137.896936 214.104708,134.067097 216.767646,130.682323 C218.139605,128.989276 219.188978,127.07489 218.97133,125.327478 C218.407778,120.815274 196.973357,118 196.973357,118 Z" id="Path" fill="#4C4C78" fill-rule="nonzero"></path>
                <path d="M201.218205,94 C201.218205,94 194.40475,99.6179203 193.837614,104.633921 C193.837614,104.633921 179.076432,111.914838 175.102569,107.994641 C171.128705,104.074444 166.020569,110.807459 167.162664,111.922555 C168.304759,113.03765 171.703664,115.283275 175.677527,113.041509 L191.56907,113.041509 C191.56907,113.041509 202.356388,111.922555 202.911791,103.522684 C203.467193,95.1228124 201.218205,94 201.218205,94 Z" id="Path" fill="#FFB9B9" fill-rule="nonzero"></path>
                <path d="M201.218205,94 C201.218205,94 194.40475,99.6179203 193.837614,104.633921 C193.837614,104.633921 179.076432,111.914838 175.102569,107.994641 C171.128705,104.074444 166.020569,110.807459 167.162664,111.922555 C168.304759,113.03765 171.703664,115.283275 175.677527,113.041509 L191.56907,113.041509 C191.56907,113.041509 202.356388,111.922555 202.911791,103.522684 C203.467193,95.1228124 201.218205,94 201.218205,94 Z" id="Path" fill="#000000" fill-rule="nonzero" opacity="0.05"></path>
                <path d="M207.949044,73.5664631 C207.845587,73.9201698 208.10423,73.2390962 207.949044,73.5664631 C207.105471,75.3726249 206.604101,78.2474326 204.670248,79 C203.19306,77.0594131 201.249663,75.4782908 199,74.3867616 C199,74.3867616 203.61976,66.195065 203.042787,68.366222 C202.744353,69.4913104 204.642394,71.4856141 207.949044,73.5664631 Z" id="Path" fill="#000000" fill-rule="nonzero" opacity="0.1"></path>
                <path d="M208.999834,71.000083 C208.999834,75.4183152 205.418149,79 200.999917,79 C196.581685,79 193,75.4183152 193,71.000083 C193,66.5818509 196.581685,63.0001661 200.999917,63.0001661 C203.125807,62.9864332 205.168606,63.8248685 206.671869,65.3281312 C208.175131,66.8313939 209.013567,68.8741929 208.999834,71.000083 Z" id="Path" fill="#FFB9B9" fill-rule="nonzero"></path>
                <path d="M204.26725,83.8373617 L212.140937,76 C212.140937,76 223.37799,78.2408992 223.951467,88.8745637 C224.23411,95.5224172 223.280391,102.165039 221.138329,108.467968 C221.138329,108.467968 218.887044,122.46491 219.452771,126.942851 C220.018499,131.420793 204.829103,120.224011 204.829103,120.224011 C204.829103,120.224011 192.45672,122.46491 193.018573,120.783271 C193.580425,119.101632 200.330407,109.59806 199.218326,106.227069 C198.73397,104.780705 198.873465,101.575564 199.191202,98.389707 C199.718408,93.2079876 201.461107,88.2219985 204.278875,83.8335047 L204.26725,83.8373617 Z" id="Path" fill="#000000" fill-rule="nonzero" opacity="0.1"></path>
                <path d="M222.127421,107.474984 C222.127421,107.474984 219.880245,121.457269 220.453662,125.940698 C221.027079,130.424127 205.831522,119.225192 205.831522,119.225192 C205.831522,119.225192 203.894301,119.576002 201.569636,119.895972 C198.055518,120.381709 193.681275,120.798055 194.018351,119.784175 C194.10782,119.546383 194.215323,119.315701 194.339929,119.09412 C195.808343,116.333901 201.224811,108.265271 200.205833,105.215922 C199.721528,103.774131 199.861008,100.566725 200.178712,97.38245 C200.708313,92.20326 202.452065,87.2200096 205.269728,82.833472 L213.142592,75 C213.142592,75 224.378471,77.239787 224.951888,87.868174 C225.233643,94.5211622 224.276042,101.16861 222.127421,107.474984 Z" id="Path" fill="#CBCDDA" fill-rule="nonzero"></path>
                <path d="M209,70.9262863 C209.002078,72.0227643 208.772826,73.1075785 208.326926,74.1111897 C207.645768,73.5563959 207.057307,72.8985851 206.583267,72.1620444 C205.900749,71.116587 205.156874,70.1116995 204.355477,69.1525641 C204.183225,68.9094649 203.942193,68.7222851 203.662737,68.6146 C203.135309,68.4664649 202.60001,68.9420564 202.450441,69.4683256 C202.358837,70.0063904 202.358837,70.555848 202.450441,71.0939128 C202.54105,71.6409779 202.384151,72.1998269 202.021414,72.6220427 C201.340482,73.2496675 200.238395,72.813059 199.462998,72.2984846 C198.687602,71.7839102 197.715403,71.2108615 196.892774,71.6435718 C196.586688,71.8345642 196.328306,72.0918019 196.137058,72.3959419 C195.547348,73.3182417 194.87977,74.189379 194.141493,75 C192.40145,72.1303758 192.670473,68.4872266 194.813554,65.8988749 C196.956634,63.3105232 200.511126,62.3357394 203.693199,63.4637208 C206.875273,64.5917023 208.997986,67.5789416 208.99605,70.9262863 L209,70.9262863 Z" id="Path" fill="#000000" fill-rule="nonzero" opacity="0.1"></path>
                <path d="M210.955463,66.658077 C211.038319,65.9626562 211.005417,65.2588281 210.858016,64.5735471 C210.67742,63.9898613 210.385185,63.4444061 209.99659,62.9656973 C208.234774,60.6902823 205.51995,59.2951457 202.590664,59.1598224 C201.65128,59.1257738 200.715795,59.2203532 199.776412,59.2203532 C198.049661,59.2203532 196.322911,58.895 194.600059,59.0349776 C192.877206,59.1749551 191.060805,59.9164575 190.312417,61.4221616 C189.836879,62.3679555 189.832981,63.5029083 189.267792,64.399521 C188.61685,65.432328 187.346149,65.9581895 186.61725,66.9418152 C186.218357,67.4811183 186.003038,68.1279088 186.001388,68.7917882 C185.991246,69.0073332 186.036803,69.221918 186.133915,69.4160122 C186.306954,69.6494087 186.520647,69.8516927 186.765368,70.013754 C187.627357,70.7821333 187.827869,72.0267124 187.248702,73.0138125 C188.447317,73.2315167 189.394019,74.1264994 189.649782,75.2837181 C189.66148,75.4736161 189.732143,75.6556266 189.85247,75.8057964 C189.963595,75.8940044 190.099316,75.9480131 190.242256,75.9609066 C191.376532,76.1538485 192.530297,75.6090712 193.360541,74.8448697 C194.190784,74.0806681 194.798849,73.1046088 195.465383,72.1966465 C195.652022,71.9006508 195.906866,71.6507149 196.209873,71.4664936 C197.024525,71.0465611 197.983398,71.6102543 198.751275,72.1058503 C199.519153,72.6014464 200.614451,73.0251621 201.28878,72.4122876 C201.64832,72.0042009 201.803814,71.46283 201.713646,70.9330658 C201.62159,70.4109995 201.62159,69.8775477 201.713646,69.3554814 C201.861765,68.8447527 202.387975,68.3832052 202.914186,68.5269659 C203.189419,68.6323751 203.425697,68.815573 203.592413,69.0528274 C204.387821,69.9831987 205.125806,70.9584406 205.802497,71.9734392 C206.535294,73.0743434 208.725889,75.6809516 209.793902,73.5207581 C210.768366,71.5383739 210.834629,68.8107041 210.955463,66.658077 Z" id="Path" fill="#B96B6B" fill-rule="nonzero"></path>
                <path d="M199,105.074074 C199,105.074074 207.464829,104.611111 209.723931,106 C211.983033,107.388889 221,106.925926 221,106.925926" id="Path" fill="#000000" fill-rule="nonzero" opacity="0.1"></path>
                <path d="M218.63361,102.272728 C218.63361,102.272728 215.835622,107.925775 215.835622,109.624417 C215.835622,111.323058 213.596461,113.582719 213.596461,113.582719 C213.596461,113.582719 207.275938,117.089089 201.529657,120.482476 C198.034099,120.973368 193.682958,121.394132 194.018254,120.369493 C194.107251,120.129178 194.214186,119.896047 194.338134,119.672115 C200.300238,116.002114 208.563166,105.646635 208.563166,105.646635 C208.563166,100.558503 211.361154,91.508172 211.361154,91.508172 C211.361154,91.508172 218.074783,88.114785 220.31009,91.508172 C222.545398,94.9015589 218.63361,102.272728 218.63361,102.272728 Z" id="Path" fill="#000000" fill-rule="nonzero" opacity="0.05"></path>
                <path d="M68,129 L75.4666915,159.370997 C75.4666915,159.370997 205.756003,231.349133 284.177575,222.195485 L307,164.363543 C307,164.363543 250.753765,187.162188 191.06673,176.679784 C188.779321,176.273263 186.517719,175.73228 184.293624,175.059635 C166.458034,169.705761 79.8994342,143.169506 68,129 Z" id="Path" fill="#000000" fill-rule="nonzero" opacity="0.1"></path>
                <path d="M68,130 L75.4668126,160.371196 C75.4668126,160.371196 205.754361,232.345919 284.177205,223.196095 L307,165.363775 C307,165.363775 250.752853,188.162569 191.064851,177.680097 C188.777404,177.273573 186.515765,176.732587 184.291634,176.059937 C166.45963,170.706028 79.8996271,144.169599 68,130 Z" id="Path" fill="#FF8A80" fill-rule="nonzero"></path>
                <polygon id="Rectangle" fill="#535461" fill-rule="nonzero" transform="translate(153.3751, 93.5825) rotate(-49.88) translate(-153.3751, -93.5825)" points="151.924782 39.6997381 154.825343 39.6997381 154.825343 147.465225 151.924782 147.465225"></polygon>
                <path d="M209.412984,90.4947188 C209.412984,90.4947188 206.629377,99.424605 206.629377,104.415513 C206.629377,104.415513 194.94283,118.904503 189.375617,119.461181 C183.808403,120.017859 180.472676,123.361768 182.696494,124.475124 C184.920312,125.58848 187.703919,127.262354 191.04348,124.475124 C194.383041,121.687894 211.632968,112.216686 211.632968,112.216686 C211.632968,112.216686 213.86062,109.986134 213.86062,108.3161 C213.86062,106.646065 216.644226,101.071605 216.644226,101.071605 C216.644226,101.071605 220.539742,93.8271097 218.31209,90.4832013 C216.084438,87.139293 209.412984,90.4947188 209.412984,90.4947188 Z" id="Path" fill="#FFB9B9" fill-rule="nonzero"></path>
                <path d="M216.651854,81.0191878 C216.651854,81.0191878 206.496148,79.9383853 208.190709,94 C208.190709,94 214.96118,90.2134632 220.600648,94 C220.600648,94.0037259 222.85488,83.724921 216.651854,81.0191878 Z" id="Path" fill="#000000" fill-rule="nonzero" opacity="0.1"></path>
                <path d="M216.651854,80.0191878 C216.651854,80.0191878 206.496148,78.9383852 208.190709,93 C208.190709,93 214.96118,89.2134639 220.600648,93 C220.600648,93 222.85488,82.7249213 216.651854,80.0191878 Z" id="Path" fill="#CBCDDA" fill-rule="nonzero"></path>
                <line x1="114" y1="62" x2="111" y2="228" id="Path" stroke="#535461" stroke-width="2"></line>
                <path d="M103,216 C103,216 90.8654874,223.446144 98.5496713,240" id="Path" stroke="#6C63FF" opacity="0.15"></path>
                <path d="M109,219 C109,219 96.8654874,226.446144 104.549671,243" id="Path" stroke="#6C63FF" opacity="0.15"></path>
                <path d="M116,216 C116,216 128.134513,223.446144 120.450329,240" id="Path" stroke="#6C63FF" opacity="0.15"></path>
                <path d="M111,220 C111,220 123.134513,227.446144 115.450329,244" id="Path" stroke="#6C63FF" opacity="0.15"></path>
                <path d="M61.0084661,23 L58.1639691,23 C59.2638629,23 60.1555029,22.1045695 60.1555029,21 C60.1555029,19.8954305 59.2638629,19 58.1639691,19 L35.1301046,19 C34.418598,19 33.7611389,19.3811978 33.4053856,20 C33.0496323,20.6188021 33.0496323,21.3811979 33.4053856,22 C33.7611389,22.6188022 34.418598,23 35.1301046,23 L37.9746016,23 C36.8747078,23 35.9830677,23.8954305 35.9830677,25 C35.9830677,26.1045695 36.8747078,27 37.9746016,27 L33.9915339,27 C32.8916401,27 32,27.8954305 32,29 C32,30.1045695 32.8916401,31 33.9915339,31 L57.0253984,31 C58.1252922,31 59.0169323,30.1045695 59.0169323,29 C59.0169323,27.8954305 58.1252922,27 57.0253984,27 L61.0084661,27 C62.1083599,27 63,26.1045695 63,25 C63,23.8954305 62.1083599,23 61.0084661,23 L61.0084661,23 Z" id="Path" fill="#FF8A80" fill-rule="nonzero" opacity="0.1"></path>
                <path d="M219.004607,4 L216.16011,4 C217.260003,4 218.151643,3.1045695 218.151643,2 C218.151643,0.8954305 217.260003,0 216.16011,0 L193.126245,0 C192.026351,0 191.134711,0.8954305 191.134711,2 C191.134711,3.1045695 192.026351,4 193.126245,4 L195.970742,4 C194.870848,4 193.979208,4.8954305 193.979208,6 C193.979208,7.1045695 194.870848,8 195.970742,8 L191.991534,8 C191.280027,8 190.622568,8.38119781 190.266815,9 C189.911062,9.61880214 189.911062,10.3811979 190.266815,11 C190.622568,11.6188022 191.280027,12 191.991534,12 L215.025398,12 C216.125292,12 217.016932,11.1045695 217.016932,10 C217.016932,8.89543053 216.125292,8 215.025398,8 L219.008466,8 C220.10836,8 221,7.1045695 221,6 C221,4.8954305 220.10836,4 219.008466,4 L219.004607,4 Z" id="Path" fill="#FF8A80" fill-rule="nonzero" opacity="0.1"></path>
                <path d="M302.008466,35 L299.163969,35 C299.875476,35 300.532935,34.6188022 300.888688,34 C301.244441,33.3811979 301.244441,32.6188021 300.888688,32 C300.532935,31.3811978 299.875476,31 299.163969,31 L276.130105,31 C275.418598,31 274.761139,31.3811978 274.405386,32 C274.049632,32.6188021 274.049632,33.3811979 274.405386,34 C274.761139,34.6188022 275.418598,35 276.130105,35 L278.959163,35 C277.85927,35 276.967629,35.8954305 276.967629,37 C276.967629,38.1045695 277.85927,39 278.959163,39 L274.991534,39 C273.89164,39 273,39.8954305 273,41 C273,42.1045695 273.89164,43 274.991534,43 L298.025398,43 C299.125292,43 300.016932,42.1045695 300.016932,41 C300.016932,39.8954305 299.125292,39 298.025398,39 L302.008466,39 C303.10836,39 304,38.1045695 304,37 C304,35.8954305 303.10836,35 302.008466,35 L302.008466,35 Z" id="Path" fill="#FF8A80" fill-rule="nonzero" opacity="0.1"></path>
            </g>
        </g>
    </g>
</svg>