<?xml version="1.0" encoding="UTF-8"?>
<svg width="163px" height="68px" viewBox="0 0 163 68" version="1.1" xmlns="http://www.w3.org/2000/svg" xmlns:xlink="http://www.w3.org/1999/xlink">
    <title>Group</title>
    <g id="Symbols" stroke="none" stroke-width="1" fill="none" fill-rule="evenodd">
        <g id="Group" transform="translate(0.000000, -0.000000)">
            <path d="M163,68 L4,68 C1.790861,68 2.705415e-16,66.209139 0,64 L0,4 C-2.705415e-16,1.790861 1.790861,4.05812251e-16 4,0 L163,0 L163,68 Z" id="Top-bar-background" fill="#FFDE50"></path>
            <polygon id="Path" fill="#212121" fill-rule="nonzero" points="63 15.6077066 99.3901099 52 101 50.3901099 64.6077066 14"></polygon>
            <path d="M73.269074,23 C71.0623376,24.7630089 69.4712797,27.2469043 68.8703879,30.1136202 L68.6164957,30.1136202 C64.4103615,30.1136202 61,33.445143 61,37.5568101 C61,41.6663124 64.4106323,45 68.6164957,45 L92.736121,45 C93.5126114,45 94.2721486,44.9006474 95,44.7125058 L93.0238926,42.7381177 C92.9286836,42.7423459 92.8334747,42.7444596 92.736148,42.7444596 L68.6165228,42.7444596 C65.6100056,42.7444596 63.2572982,40.3747502 63.2572982,37.5569015 C63.2572982,34.7390529 65.6100598,32.3693434 68.6165228,32.3693434 L70.7048032,32.3693434 L71.0792963,30.5767328 C71.5849629,28.1605372 72.9623505,26.063521 74.8770905,24.6071364 L73.269074,23 Z" id="Path" fill="#212121" fill-rule="nonzero"></path>
            <path d="M76.7181688,23.2722232 L75,21.5602785 C76.4804302,20.7688331 78.1337561,20.2505258 79.8886064,20.0698835 C85.5097929,19.493491 90.8676246,22.5259245 93.1304841,27.5648029 C95.3932329,27.635777 97.6754568,28.5325962 99.3420058,30.1541921 C101.9376,32.6790545 102.7135,36.4791487 101.308702,39.7803708 C100.541487,41.5847563 99.2036892,43.0450901 97.5503632,44 L95.8430385,42.3009938 C97.3320996,41.6127804 98.5380544,40.4084069 99.1864273,38.8857485 C100.217329,36.4619709 99.655409,33.6660626 97.7297875,31.7927457 C96.5044131,30.5991084 94.7840866,29.9108949 93.0594447,29.8593065 L91.6157514,29.814142 L91.0257481,28.5022421 C89.1801068,24.3879922 84.7799239,21.873921 80.1247405,22.3512659 C78.9187858,22.4760032 77.7712007,22.7921519 76.718722,23.2717651 L76.7181688,23.2722232 Z" id="Path" fill="#212121" fill-rule="nonzero"></path>
            <g id="np_offline_4465778_FFFFFF" transform="translate(61.000000, 14.000000)"></g>
        </g>
    </g>
</svg>