<?xml version="1.0" encoding="UTF-8"?>
<svg width="28px" height="26px" viewBox="0 0 28 26" version="1.1" xmlns="http://www.w3.org/2000/svg" xmlns:xlink="http://www.w3.org/1999/xlink">
    <title>np_group_3556052_212121</title>
    <g id="Symbols" stroke="none" stroke-width="1" fill="none" fill-rule="evenodd">
        <g id="Tools/Glyphs/Organisation" transform="translate(0.000000, -1.000000)" fill="#212121" fill-rule="nonzero">
            <g id="np_group_3556052_212121" transform="translate(0.000000, 1.000000)">
                <path d="M24.4834718,15.1591615 L24.4834718,14.8570385 C24.481765,13.0118597 23.9935886,11.2008517 23.0684429,9.60470019 C22.1432973,8.00876716 20.813608,6.68589454 19.2142666,5.76760927 C19.2142666,5.59350431 19.2398702,5.41769517 19.2398702,5.24359895 C19.2398702,2.34699119 16.892879,1.77635684e-15 13.9962713,1.77635684e-15 C11.0996635,1.77635684e-15 8.75267233,2.34699119 8.75267233,5.24359895 C8.75267233,5.42282516 8.75267233,5.59692575 8.77827595,5.76760927 C7.17889088,6.68593823 5.84924528,8.00876716 4.92409964,9.60470019 C3.99895399,11.2006332 3.51077493,13.0116849 3.50907076,14.8570385 L3.50907076,15.1591615 C2.0206752,15.6797635 0.846283824,16.8438862 0.312048484,18.3271692 C-0.223934722,19.8087481 -0.0634718546,21.4541895 0.747306524,22.8060767 C1.55980218,24.1579639 2.93725193,25.0728408 4.4973537,25.2964366 C6.05745548,25.5217453 7.63634682,25.0318664 8.79701745,23.963339 C12.019646,25.8050657 15.9763783,25.8050657 19.2007547,23.963339 C20.3597212,25.0335575 21.9403167,25.5234407 23.5021663,25.2998449 C25.0639723,25.0762404 26.4414657,24.1596243 27.2522135,22.8077808 C28.0647092,21.4541895 28.2234591,19.8087481 27.6874716,18.3236298 C27.1497842,16.8403468 25.9737323,15.6779283 24.4836326,15.1590304 L24.4834718,15.1591615 Z M13.9962739,3.49608658 C14.7029363,3.49608658 15.3413007,3.92110649 15.6109965,4.57486967 C15.8823921,5.22861536 15.7321848,5.97962982 15.2320635,6.47978177 C14.7319421,6.97993372 13.980897,7.13011913 13.3271514,6.85871482 C12.6734057,6.58902341 12.2483683,5.95065457 12.2483683,5.24399222 C12.2483683,4.27790281 13.0301452,3.4961259 13.9962346,3.4961259 L13.9962739,3.49608658 Z M5.25694232,21.8486829 C4.55027997,21.8486829 3.9119155,21.423663 3.64221972,20.7698998 C3.37082415,20.1161541 3.52103141,19.3651396 4.02115277,18.8649877 C4.52127413,18.3648358 5.27231918,18.2146503 5.92606488,18.4860547 C6.57981057,18.7557461 7.00484797,19.3941149 7.00484797,20.1007773 C7.00484797,20.5650542 6.82050051,21.0088375 6.49276683,21.3365624 C6.16503316,21.6642874 5.72125864,21.8486436 5.25698165,21.8486436 L5.25694232,21.8486829 Z M10.438929,20.8655081 C10.8161535,18.3956419 9.38063963,16.0094985 7.02171925,15.1849426 L7.02171925,14.8742855 C7.02513327,12.4709694 8.2643648,10.2385071 10.2989686,8.96343863 C11.2838476,9.95002177 12.6203535,10.5047508 14.0131845,10.5047508 C15.4077196,10.5047508 16.7442256,9.95002177 17.7274004,8.96343863 C19.7517792,10.2402113 20.9807477,12.4642838 20.9875644,14.8572438 L20.9875644,15.1679009 C18.628644,15.9906215 17.1931214,18.3786002 17.5703546,20.8484664 C16.4950236,21.4902829 15.2660551,21.829937 14.0131845,21.829937 C12.7603139,21.829937 11.5313454,21.4902654 10.4560144,20.8484664 L10.438929,20.8655081 Z M22.7356055,21.8486829 C22.0289431,21.8486829 21.3905787,21.423663 21.1208829,20.7698998 C20.8494873,20.1161541 20.9996946,19.3651396 21.4998159,18.8649877 C21.9999373,18.3648358 22.7509823,18.2146503 23.404728,18.4860547 C24.0584737,18.7557461 24.4835111,19.3941149 24.4835111,20.1007773 C24.4835111,20.5650542 24.2991637,21.0088375 23.97143,21.3365624 C23.6436963,21.6642874 23.1999218,21.8486436 22.7356448,21.8486436 L22.7356055,21.8486829 Z" id="Shape"></path>
            </g>
        </g>
    </g>
</svg>