<?xml version="1.0" encoding="UTF-8"?>
<svg width="28px" height="28px" viewBox="0 0 28 28" version="1.1" xmlns="http://www.w3.org/2000/svg" xmlns:xlink="http://www.w3.org/1999/xlink">
    <title>np_password_2367516_212121</title>
    <g id="Symbols" stroke="none" stroke-width="1" fill="none" fill-rule="evenodd">
        <g id="Tools/Glyphs/Password" fill="#212121" fill-rule="nonzero">
            <g id="np_password_2367516_212121">
                <path d="M3.57745647,22.521699 L3.57745647,23.6519126 L4.36314942,22.8689319 C4.88695443,22.3469351 5.58496272,23.1299274 5.14884236,23.6519126 L4.27660164,24.4348932 L5.41073029,24.4348932 C6.19642324,24.4348932 6.19642324,25.5651068 5.41073029,25.5651068 L4.27660164,25.5651068 L5.14884236,26.3480874 C5.58496272,26.8700842 4.88694277,27.6530649 4.36314942,27.1310681 L3.57745647,26.3480874 L3.57745647,27.478301 C3.57745647,28.1738997 2.44332782,28.1738997 2.44332782,27.478301 L2.44332782,26.3480874 L1.65763488,27.1310681 C1.13382986,27.6530649 0.34813692,26.8700726 0.871941932,26.3480874 L1.65763488,25.5651068 L0.52350622,25.5651068 C-0.174502073,25.5651068 -0.174502073,24.4348932 0.52350622,24.4348932 L1.65763488,24.4348932 L0.871941932,23.6519126 C0.34813692,23.1299158 1.13384152,22.3469351 1.65763488,22.8689319 L2.44332782,23.6519126 L2.44332782,22.521699 C2.44332782,21.8261003 3.57745647,21.8261003 3.57745647,22.521699 Z" id="Path"></path>
                <path d="M10.8895543,22.521699 L10.8895543,23.6519126 L11.6753924,22.8689319 C12.1992941,22.3469351 12.9851321,23.1299274 12.4612304,23.6519126 L11.6753924,24.4348932 L12.8097304,24.4348932 C13.5078676,24.4348932 13.5078676,25.5651068 12.8097304,25.5651068 L11.6753924,25.5651068 L12.4612304,26.3480874 C12.9851321,26.8700842 12.1992824,27.6530649 11.6753924,27.1310681 L10.8895543,26.3480874 L10.8895543,27.478301 C10.8895543,28.1738997 9.84175087,28.1738997 9.84175087,27.478301 L9.84175087,26.3480874 L8.96934909,27.1310681 C8.53314819,27.6530649 7.74731017,26.8700726 8.2712119,26.3480874 L9.05704993,25.5651068 L7.92271185,25.5651068 C7.13687383,25.5651068 7.13687383,24.4348932 7.92271185,24.4348932 L9.05704993,24.4348932 L8.2712119,23.6519126 C7.74731017,23.1299158 8.53315986,22.3469351 8.96934909,22.8689319 L9.84175087,23.6519126 L9.84175087,22.521699 C9.84175087,21.8261003 10.8895543,21.8261003 10.8895543,22.521699 Z" id="Path"></path>
                <path d="M18.2441231,22.521699 L18.2441231,23.6519126 L19.0298161,22.8689319 C19.5536211,22.3469351 20.2516294,23.1299274 19.815509,23.6519126 L18.9432683,24.4348932 L20.077397,24.4348932 C20.8630899,24.4348932 20.8630899,25.5651068 20.077397,25.5651068 L18.9432683,25.5651068 L19.815509,26.3480874 C20.2516294,26.8700842 19.5536094,27.6530649 19.0298161,27.1310681 L18.2441231,26.3480874 L18.2441231,27.478301 C18.2441231,28.1738997 17.1099945,28.1738997 17.1099945,27.478301 L17.1099945,26.3480874 L16.3243015,27.1310681 C15.8004965,27.6530649 15.0148036,26.8700726 15.5386086,26.3480874 L16.3243015,25.5651068 L15.1901729,25.5651068 C14.4921646,25.5651068 14.4921646,24.4348932 15.1901729,24.4348932 L16.3243015,24.4348932 L15.5386086,23.6519126 C15.0148036,23.1299158 15.8005082,22.3469351 16.3243015,22.8689319 L17.1099945,23.6519126 L17.1099945,22.521699 C17.1099945,21.8261003 18.2441231,21.8261003 18.2441231,22.521699 Z" id="Path"></path>
                <path d="M25.556221,22.521699 L25.556221,23.6519126 L26.342059,22.8689319 C26.8659608,22.3469351 27.6517988,23.1299274 27.1278971,23.6519126 L26.342059,24.4348932 L27.4763971,24.4348932 C28.1745343,24.4348932 28.1745343,25.5651068 27.4763971,25.5651068 L26.342059,25.5651068 L27.1278971,26.3480874 C27.6517988,26.8700842 26.8659491,27.6530649 26.342059,27.1310681 L25.556221,26.3480874 L25.556221,27.478301 C25.556221,28.1738997 24.5084175,28.1738997 24.5084175,27.478301 L24.5084175,26.3480874 L23.6360158,27.1310681 C23.1998149,27.6530649 22.4139768,26.8700726 22.9378786,26.3480874 L23.7237166,25.5651068 L22.5893785,25.5651068 C21.8035405,25.5651068 21.8035405,24.4348932 22.5893785,24.4348932 L23.7237166,24.4348932 L22.9378786,23.6519126 C22.4139768,23.1299158 23.1998265,22.3469351 23.6360158,22.8689319 L24.5084175,23.6519126 L24.5084175,22.521699 C24.5084175,21.8261003 25.556221,21.8261003 25.556221,22.521699 Z" id="Path"></path>
                <path d="M9.12382356,6.38594987 L9.12382356,4.99241624 C9.12382356,2.20538776 11.3292113,0 13.9995239,0 C16.6698365,0 18.9919401,2.20538776 18.9919401,4.99241624 L18.9919401,6.38594987 C20.1521971,6.38594987 21.1973279,7.31444235 21.1973279,8.59133763 L21.1973279,15.2088581 C21.1973279,16.369115 20.1521971,17.4142458 18.9919401,17.4142458 L9.00710766,17.4142458 C7.84685074,17.4142458 6.8017199,16.369115 6.8017199,15.2088581 L6.8017199,8.59133763 C6.8017199,7.31444235 7.84685074,6.38594987 9.12374601,6.38594987 L9.12382356,6.38594987 Z M10.4007188,6.38594987 L17.598329,6.38594987 L17.598329,4.99241624 C17.598329,3.01879293 15.9730697,1.39353363 13.9994463,1.39353363 C12.025823,1.39353363 10.4005637,3.01879293 10.4005637,4.99241624 L10.4007188,6.38594987 Z M13.9996015,10.1014708 C14.6963683,10.1014708 15.1598584,10.5664732 15.1598584,11.2617278 C15.1598584,11.7267301 14.9281094,12.1902202 14.4630916,12.4219847 L14.4630916,13.69888 C14.4630916,14.2790084 13.5345991,14.2790084 13.5345991,13.69888 L13.5345991,12.4219847 C13.0695967,12.1902358 12.8378323,11.7252179 12.8378323,11.2617278 C12.8378323,10.5649609 13.3028346,10.1014708 13.9980892,10.1014708 L13.9996015,10.1014708 Z" id="Shape"></path>
            </g>
        </g>
    </g>
</svg>