<?xml version="1.0" encoding="UTF-8"?>
<svg width="21px" height="21px" viewBox="0 0 21 21" version="1.1" xmlns="http://www.w3.org/2000/svg" xmlns:xlink="http://www.w3.org/1999/xlink">
    <title>Group 11</title>
    <g id="Symbols" stroke="none" stroke-width="1" fill="none" fill-rule="evenodd">
        <g id="Tools/Activity/Weekly/Weekday-target/No-activity" transform="translate(-2.000000, -2.000000)">
            <g id="Group-11" transform="translate(2.000000, 2.000000)">
                <circle id="Oval-Copy" fill="#FC396B" cx="10.5" cy="10.5" r="10.5"></circle>
                <path d="M5.05169361,5.51097243 L5.51017872,5.05217504 C5.90008861,4.66103672 6.53325355,4.66082118 6.92391077,5.0512125 C6.9240713,5.05137292 6.92423178,5.0515334 6.92391077,5.05217504 L9.79313398,7.92335244 C10.1830439,8.31449076 10.8162088,8.31470631 11.206866,7.92431498 C11.2070266,7.92415456 11.207187,7.92399408 11.206866,7.92335244 L14.0760892,5.05217504 C14.4659991,4.66103672 15.0991641,4.66082118 15.4898213,5.0512125 C15.4899818,5.05137292 15.4901423,5.0515334 15.4898213,5.05217504 L15.9483064,5.51097243 C16.338028,5.90192301 16.338028,6.53471676 15.9483064,6.92566734 L13.0832725,9.79265254 C12.6935509,10.1836031 12.6935509,10.8163969 13.0832725,11.2073475 L15.9483064,14.0743327 C16.338028,14.4652832 16.338028,15.098077 15.9483064,15.4890276 L15.4898213,15.947825 C15.0999114,16.3389633 14.4667464,16.3391788 14.0760892,15.9487875 C14.0759287,15.9486271 14.0757682,15.9484666 14.0760892,15.947825 L11.206866,13.0766476 C10.8169561,12.6855092 10.1837912,12.6852937 9.79313398,13.075685 C9.79297344,13.0758454 9.79281297,13.0760059 9.79313398,13.0766476 L6.92391077,15.947825 C6.53400088,16.3389633 5.90083594,16.3391788 5.51017872,15.9487875 C5.51001819,15.9486271 5.50985771,15.9484666 5.51017872,15.947825 L5.05169361,15.4890276 C4.66197198,15.098077 4.66197198,14.4652832 5.05169361,14.0743327 L7.91672748,11.2073475 C8.3064491,10.8163969 8.3064491,10.1836031 7.91672748,9.79265254 L5.05169361,6.92566734 C4.66197198,6.53471676 4.66197198,5.90192301 5.05169361,5.51097243 Z" id="Path-3" fill="#FFFFFF"></path>
            </g>
        </g>
    </g>
</svg>