<?xml version="1.0" encoding="UTF-8"?>
<svg width="41px" height="41px" viewBox="0 0 41 41" version="1.1" xmlns="http://www.w3.org/2000/svg" xmlns:xlink="http://www.w3.org/1999/xlink">
    <title>UKCA</title>
    <defs>
        <polygon id="path-1" points="0 0 19 0 19 19 0 19"></polygon>
        <polygon id="path-3" points="0 0 19 0 19 19 0 19"></polygon>
    </defs>
    <g id="🛠-OnTrack-Tools-screens" stroke="none" stroke-width="1" fill="none" fill-rule="evenodd">
        <g id="UKCA" transform="translate(0, 0.001)">
            <g id="Group-3">
                <mask id="mask-2" fill="white">
                    <use xlink:href="#path-1"></use>
                </mask>
                <g id="Clip-2"></g>
                <path d="M12.3405136,19 L6.65946188,19 C2.98743002,19 -2.45221726e-05,16.052495 -2.45221726e-05,12.4295628 L-2.45221726e-05,0 L4.31824833,0 L4.31824833,12.3715265 C4.31824833,13.645381 5.39452648,14.6818591 6.71749769,14.6818591 L12.2824778,14.6818591 C13.605449,14.6818591 14.6817272,13.645381 14.6817272,12.3715265 L14.6817272,0 L19,0 L19,12.4295628 C19,16.052495 16.0125455,19 12.3405136,19" id="Fill-1" fill="#000000" mask="url(#mask-2)"></path>
            </g>
            <polygon id="Fill-4" fill="#000000" points="41 8.17408214e-05 35.4274889 8.17408214e-05 26.3092052 7.19074006 26.3092052 0 22 0 22 19 26.3092052 19 26.3092052 11.7617685 35.4269179 19 40.9762625 19 28.9815046 9.47792998"></polygon>
            <path d="M19,41 L6.57040896,41 C2.94749228,41 0,37.9544874 0,34.2825104 L0,28.7174896 C0,25.0454309 2.94749228,22 6.57040896,22 L19,22 L19,26.3182227 L6.62844495,26.3182227 C5.35459599,26.3182227 4.31820411,27.3945905 4.31820411,28.7174896 L4.31820411,34.2825104 C4.31820411,35.6054095 5.35459599,36.6817773 6.62844495,36.6817773 L19,36.6817773 L19,41 Z" id="Fill-6" fill="#000000"></path>
            <g id="Group-10" transform="translate(22, 22)">
                <mask id="mask-4" fill="white">
                    <use xlink:href="#path-3"></use>
                </mask>
                <g id="Clip-9"></g>
                <path d="M4.31815953,10.3635071 L4.31815953,6.62839076 C4.31815953,5.35455222 5.39453192,4.31816881 6.7175185,4.31816881 L12.2824815,4.31816881 C13.6054681,4.31816881 14.6818405,5.35455222 14.6818405,6.62839076 L14.6818405,10.3635071 L4.31815953,10.3635071 Z M12.3405997,0 L6.65940028,0 C2.98732576,0 0,2.94746818 0,6.57035526 L0,19 L4.31815953,19 L4.31815953,14.6815941 L14.6818405,14.6815941 L14.6818405,19 L19,19 L19,6.57035526 C19,2.94746818 16.0125925,0 12.3405997,0 L12.3405997,0 Z" id="Fill-8" fill="#000000" mask="url(#mask-4)"></path>
            </g>
        </g>
    </g>
</svg>