<?xml version="1.0" encoding="UTF-8"?>
<svg width="52px" height="41px" viewBox="0 0 52 41" version="1.1" xmlns="http://www.w3.org/2000/svg" xmlns:xlink="http://www.w3.org/1999/xlink">
    <title>User information website</title>
    <g id="📱-OnTrack-App-Screens" stroke="none" stroke-width="1" fill="none" fill-rule="evenodd">
        <g id="User-information-website" transform="translate(0, 0.001)">
            <path d="M8.49105328,28.0607457 L43.5084168,28.0607457 L48.3174738,37.7315013 L36.0691348,37.7315013 L34.1001469,32.9150265 C33.8482534,32.3032186 33.2563104,31.9023678 32.5971689,31.9023678 L19.4019788,31.9023678 C18.7449331,31.9023678 18.1509211,32.3032132 17.9010965,32.9150265 L15.9321087,37.7315013 L3.68591911,37.7315013 L8.49105328,28.0607457 Z M9.78832505,3.26978045 L42.2048041,3.26978045 L42.2048041,3.26767088 C42.3853291,3.26767088 42.557455,3.33939952 42.6855002,3.46809089 C42.8114496,3.59467592 42.8828181,3.76767088 42.8849139,3.94910107 L42.8849139,24.7931278 L9.1164048,24.7931278 L9.1164048,3.94910107 C9.1164048,3.57357482 9.41867702,3.26978261 9.79231235,3.26767088 L9.78832505,3.26978045 Z M2.54615132,41 L49.4528889,41 C50.3345028,41.0020957 51.155286,40.5421774 51.6191463,39.7890078 C52.0851506,39.0337534 52.1250344,38.0907116 51.7303986,37.2974353 L46.1341978,26.0420714 L46.1341978,3.94936895 C46.1341978,1.76791307 44.3751616,0 42.204659,0 L9.79247894,0 C7.62197631,0 5.86294007,1.76791307 5.86294007,3.94936895 L5.86294007,26.0420714 L0.268888832,37.295275 C-0.125747032,38.0885513 -0.0837620919,39.0315391 0.380141131,39.7868475 C0.844044354,40.5399955 1.66478464,41 2.54639851,41 L2.54615132,41 Z" id="Shape" fill="#000000" fill-rule="nonzero"></path>
            <polygon id="Path" fill="#FFFFFF" fill-rule="nonzero" points="20 38 33 38 31.9598402 35 21.0443138 35 20.0062311 38"></polygon>
            <rect id="Rectangle" fill="#212121" x="10" y="4" width="32" height="20" rx="1"></rect>
            <path d="M21.3636364,8.2962963 C21.3636364,9.01197274 20.7528544,9.59259259 20,9.59259259 C19.2471456,9.59259259 18.6363636,9.01197274 18.6363636,8.2962963 C18.6363636,7.58001789 19.2471456,7 20,7 C20.7528544,7 21.3636364,7.58001789 21.3636364,8.2962963" id="Path" fill="#FFFFFF" fill-rule="nonzero"></path>
            <path d="M23,11.7264381 C23,10.8052614 22.3193577,10.1111111 21.4165398,10.1111111 L18.5834602,10.111769 C17.6813145,10.111769 17,10.8059362 17,11.7270961 L17,14.9236237 C17,15.2644497 17.2827564,15.5401559 17.6308333,15.5401559 C17.9788929,15.5401559 18.2616666,15.2638096 18.2616666,14.9236237 C18.2616666,14.9229656 18.2609934,14.9216498 18.2609934,14.9209917 L18.2636864,14.9209917 C18.2636864,14.9209917 18.259647,11.6732576 18.2630132,11.6481597 C18.273785,11.6021008 18.3128325,11.5672283 18.3633257,11.5672283 C18.4205509,11.5672283 18.4663321,11.6119699 18.468352,11.6672408 L18.4696986,11.6672408 L18.4696986,20.3847985 C18.4696986,20.7243106 18.7517828,21 19.0991703,21 C19.4465578,21 19.7286421,20.7243106 19.7286421,20.3847985 L19.7293154,16.0777314 L20.270596,16.0777314 L20.270596,20.3841248 C20.270596,20.7236369 20.5526803,20.9993262 20.9000677,20.9993262 C21.2474552,20.9993262 21.5295395,20.7236369 21.5295395,20.3841248 L21.5288663,11.666567 L21.5302127,11.666567 C21.5322324,11.6112978 21.5780121,11.5665545 21.635239,11.5665545 C21.6850583,11.5665545 21.7247797,11.6014271 21.7355515,11.6474859 C21.7382446,11.6724895 21.7348783,14.9203179 21.7348783,14.9203179 L21.7375713,14.9203179 C21.7375713,14.9209758 21.7368981,14.9222919 21.7368981,14.9229498 C21.7368981,15.2637758 22.0196545,15.539482 22.3677314,15.539482 C22.7158082,15.539482 22.9985647,15.2631357 22.9985647,14.9229498 C22.9999111,14.9045256 22.9999111,12.1601608 22.9999111,11.7264221 L23,11.7264381 Z" id="Path" fill="#FFFFFF" fill-rule="nonzero"></path>
            <path d="M30.2023036,9.96406101 C30.4205952,9.74576934 30.6818909,9.63695556 30.9893975,9.63695556 C31.2918344,9.63695556 31.5499716,9.746414 31.7663681,9.96406101 C31.9833802,10.1760195 32.0922102,10.433525 32.0922102,10.7410316 C32.0922102,11.0485221 31.9827518,11.3098339 31.7663681,11.5281256 C31.5499878,11.7400841 31.2918344,11.8457394 30.9893975,11.8457394 C30.6819071,11.8457394 30.4205952,11.7362809 30.2023036,11.5217924 C29.9859232,11.3035007 29.8783566,11.0453636 29.8783566,10.7416633 C29.8783566,10.4335412 29.9859167,10.1753878 30.2023036,9.96406101 Z" id="Path" fill="#FFFFFF"></path>
            <path d="M33.0544947,19.6369556 L29.2481178,19.6369556 L29.2481178,19.0055181 L29.6682446,19.0055181 C29.8947483,19.0055181 30.0516682,18.9530031 30.1427783,18.8498713 C30.2370517,18.7473729 30.2851384,18.5651543 30.2851384,18.3076327 L30.2851384,14.6366656 C30.2851384,14.4050921 30.2174384,14.2266783 30.0814082,14.1007602 C29.9510697,13.9748517 29.7656895,13.9122068 29.5309575,13.9122068 L29.2481178,13.9122068 L29.2481178,13.2972097 L32.0656644,13.1681363 L32.0656644,18.551811 C32.0656644,18.6973344 32.1105861,18.8099643 32.2016962,18.8890397 C32.2959696,18.9649648 32.4383232,19.0048249 32.62814,19.0048249 L33.0545838,19.0048249 L33.0552166,19.6369556 L33.0544947,19.6369556 Z" id="Path" fill="#FFFFFF"></path>
        </g>
    </g>
</svg>