<?xml version="1.0" encoding="UTF-8"?>
<svg width="52px" height="41px" viewBox="0 0 52 41" version="1.1" xmlns="http://www.w3.org/2000/svg" xmlns:xlink="http://www.w3.org/1999/xlink">
    <title>User information website</title>
    <g id="🛠-OnTrack-Tools-screens" stroke="none" stroke-width="1" fill="none" fill-rule="evenodd">
        <g id="User-information-website" transform="translate(0, 0.001)" fill-rule="nonzero">
            <path d="M8.49105328,28.0607457 L43.5084168,28.0607457 L48.3174738,37.7315013 L36.0691348,37.7315013 L34.1001469,32.9150265 C33.8482534,32.3032186 33.2563104,31.9023678 32.5971689,31.9023678 L19.4019788,31.9023678 C18.7449331,31.9023678 18.1509211,32.3032132 17.9010965,32.9150265 L15.9321087,37.7315013 L3.68591911,37.7315013 L8.49105328,28.0607457 Z M9.78832505,3.26978045 L42.2048041,3.26978045 L42.2048041,3.26767088 C42.3853291,3.26767088 42.557455,3.33939952 42.6855002,3.46809089 C42.8114496,3.59467592 42.8828181,3.76767088 42.8849139,3.94910107 L42.8849139,24.7931278 L9.1164048,24.7931278 L9.1164048,3.94910107 C9.1164048,3.57357482 9.41867702,3.26978261 9.79231235,3.26767088 L9.78832505,3.26978045 Z M2.54615132,41 L49.4528889,41 C50.3345028,41.0020957 51.155286,40.5421774 51.6191463,39.7890078 C52.0851506,39.0337534 52.1250344,38.0907116 51.7303986,37.2974353 L46.1341978,26.0420714 L46.1341978,3.94936895 C46.1341978,1.76791307 44.3751616,0 42.204659,0 L9.79247894,0 C7.62197631,0 5.86294007,1.76791307 5.86294007,3.94936895 L5.86294007,26.0420714 L0.268888832,37.295275 C-0.125747032,38.0885513 -0.0837620919,39.0315391 0.380141131,39.7868475 C0.844044354,40.5399955 1.66478464,41 2.54639851,41 L2.54615132,41 Z" id="Shape" fill="#000000"></path>
            <polygon id="Path" fill="#FFFFFF" points="20 38 33 38 31.9598402 35 21.0443138 35 20.0062311 38"></polygon>
            <path d="M18.3636364,8.2962963 C18.3636364,9.01197274 17.7528544,9.59259259 17,9.59259259 C16.2471456,9.59259259 15.6363636,9.01197274 15.6363636,8.2962963 C15.6363636,7.58001789 16.2471456,7 17,7 C17.7528544,7 18.3636364,7.58001789 18.3636364,8.2962963" id="Path" fill="#000000"></path>
            <path d="M20,11.7264381 C20,10.8052614 19.3193577,10.1111111 18.4165398,10.1111111 L15.5834602,10.111769 C14.6813145,10.111769 14,10.8059362 14,11.7270961 L14,14.9236237 C14,15.2644497 14.2827564,15.5401559 14.6308333,15.5401559 C14.9788929,15.5401559 15.2616666,15.2638096 15.2616666,14.9236237 C15.2616666,14.9229656 15.2609934,14.9216498 15.2609934,14.9209917 L15.2636864,14.9209917 C15.2636864,14.9209917 15.259647,11.6732576 15.2630132,11.6481597 C15.273785,11.6021008 15.3128325,11.5672283 15.3633257,11.5672283 C15.4205509,11.5672283 15.4663321,11.6119699 15.468352,11.6672408 L15.4696986,11.6672408 L15.4696986,20.3847985 C15.4696986,20.7243106 15.7517828,21 16.0991703,21 C16.4465578,21 16.7286421,20.7243106 16.7286421,20.3847985 L16.7293154,16.0777314 L17.270596,16.0777314 L17.270596,20.3841248 C17.270596,20.7236369 17.5526803,20.9993262 17.9000677,20.9993262 C18.2474552,20.9993262 18.5295395,20.7236369 18.5295395,20.3841248 L18.5288663,11.666567 L18.5302127,11.666567 C18.5322324,11.6112978 18.5780121,11.5665545 18.635239,11.5665545 C18.6850583,11.5665545 18.7247797,11.6014271 18.7355515,11.6474859 C18.7382446,11.6724895 18.7348783,14.9203179 18.7348783,14.9203179 L18.7375713,14.9203179 C18.7375713,14.9209758 18.7368981,14.9222919 18.7368981,14.9229498 C18.7368981,15.2637758 19.0196545,15.539482 19.3677314,15.539482 C19.7158082,15.539482 19.9985647,15.2631357 19.9985647,14.9229498 C19.9999111,14.9045256 19.9999111,12.1601608 19.9999111,11.7264221 L20,11.7264381 Z" id="Path" fill="#000000"></path>
            <path d="M32,6 C28.1330444,6 25,9.1318 25,13 C25,16.8652444 28.1330444,20 32,20 C35.8652444,20 39,16.8652444 39,13 C39,9.1318 35.8652444,6 32,6 Z M31.1644956,8.34733333 C31.3741378,8.13769111 31.62508,8.03318889 31.9204022,8.03318889 C32.2108556,8.03318889 32.4587644,8.13831022 32.6665867,8.34733333 C32.875,8.55089333 32.9795178,8.79819556 32.9795178,9.09351778 C32.9795178,9.38882444 32.8743964,9.63978222 32.6665867,9.84942444 C32.45878,10.0529844 32.2108556,10.1544533 31.9204022,10.1544533 C31.6250956,10.1544533 31.3741378,10.049332 31.1644956,9.84334222 C30.9566889,9.6337 30.8533844,9.38579111 30.8533844,9.09412444 C30.8533844,8.79821111 30.9566827,8.55028667 31.1644956,8.34733333 Z M33.9036733,17.6369556 L30.2481178,17.6369556 L30.2481178,17.0305378 L30.6515978,17.0305378 C30.8691267,17.0305378 31.0198289,16.9801036 31.1073289,16.8810582 C31.1978669,16.7826211 31.2440482,16.6076227 31.2440482,16.3603049 L31.2440482,12.8347938 C31.2440482,12.612396 31.1790307,12.4410516 31.0483904,12.3201227 C30.9232164,12.1992031 30.7451816,12.1390404 30.5197504,12.1390404 L30.2481178,12.1390404 L30.2481178,11.5484116 L32.9540238,11.4244524 L32.9540238,16.594808 C32.9540238,16.7345653 32.9971656,16.8427324 33.0846656,16.9186747 C33.1752036,16.9915913 33.3119167,17.029872 33.4942122,17.029872 L33.9037589,17.029872 L33.9043666,17.6369556 L33.9036733,17.6369556 Z" id="Shape" fill="#000000"></path>
        </g>
    </g>
</svg>