<?xml version="1.0" encoding="UTF-8"?>
<svg width="28px" height="28px" viewBox="0 0 28 28" version="1.1" xmlns="http://www.w3.org/2000/svg" xmlns:xlink="http://www.w3.org/1999/xlink">
    <title>np_warning_4820932_000000</title>
    <g id="Tools-Symbols" stroke="none" stroke-width="1" fill="none" fill-rule="evenodd">
        <g id="Tools/Glyphs/Issue" fill="#212121" fill-rule="nonzero">
            <g id="np_warning_4820932_000000">
                <path d="M14,28 C21.73164,28 28,21.73164 28,14 C28,6.26836 21.73164,0 14,0 C6.26836,0 0,6.26836 0,14 C0,21.73164 6.26836,28 14,28 Z M12.5714286,6.7235603 C12.5714286,5.85072199 13.2111663,5.14285714 14,5.14285714 C14.7888337,5.14285714 15.4285714,5.85072199 15.4285714,6.7235603 L15.4285714,16.7050111 C15.4285714,17.5778494 14.7888337,18.2857143 14,18.2857143 C13.2111663,18.2857143 12.5714286,17.5778494 12.5714286,16.7050111 L12.5714286,6.7235603 Z M12.6412074,20.8071364 C12.7040103,20.4535836 13.02501,20.1326024 13.3785634,20.0697816 C13.5925562,20.0348908 13.8856259,20 14.2857143,20 C14.6846118,20 14.9765352,20.0337267 15.1928652,20.0697816 C15.5464186,20.1325845 15.8674004,20.4535836 15.9302212,20.8071364 C15.9651121,21.0211288 16,21.314198 16,21.7142857 C16,22.1131825 15.9662732,22.4051055 15.9302212,22.6214351 C15.8674182,22.9749878 15.5464186,23.2959691 15.1928652,23.3587898 C14.9788724,23.3936806 14.6858027,23.4285714 14.2857143,23.4285714 C13.8868168,23.4285714 13.5948933,23.3948447 13.3785634,23.3587898 C13.02501,23.2959869 12.7040282,22.9749878 12.6412074,22.6214351 C12.6063165,22.4074426 12.5714286,22.1143734 12.5714286,21.7142857 C12.5714286,21.3153889 12.6051553,21.023466 12.6412074,20.8071364 Z" id="Shape"></path>
            </g>
        </g>
    </g>
</svg>